<?xml version="1.0" encoding="utf-8"?>
<!-- Generator: Adobe Illustrator 26.1.0, SVG Export Plug-In . SVG Version: 6.00 Build 0)  -->
<svg version="1.1" id="Capa_1" xmlns="http://www.w3.org/2000/svg" xmlns:xlink="http://www.w3.org/1999/xlink" x="0px" y="0px"
	 viewBox="0 0 1229 566" style="enable-background:new 0 0 1229 566;" xml:space="preserve">
<style type="text/css">
	.st0{fill:#FFFFFF;}
	.st1{fill:#333333;}
	.st2{fill:none;}
</style>
<g>
	<g>
		<g>
			<path class="st0" d="M967.88,209.93h-57.61L862,326.69l-47.95-116.76h-57.61v6.61c26.6,10.27,44.47,33.06,45.37,72.02
				c0,44.21-17.06,69.18-44.73,78.29l56.97,75.22v-62.06l-3.86-48.25l1.61-0.34l30.57,82h39.58l29.93-82l1.93,0.34l-3.54,48.25
				l-0.32,68.84h15.24l42.69-128.31V209.93z"/>
			<polygon class="st1" points="819.19,448.85 814.05,442.06 814.05,448.85 			"/>
		</g>
		<g>
			<g>
				<path class="st0" d="M706.26,514.44h-8.24l-3,13.13h8.56v3.62h-9.39l-3.19,13.87h-3.71l3.26-13.87h-12.08l-3.19,13.87h-3.71
					l3.26-13.87h-7.22v-3.62h8.05l3-13.13h-8.31v-3.42h9.14l3.13-13.53h3.71l-3.19,13.53h12.08l3.13-13.53h3.71l-3.19,13.53h7.41
					V514.44z M691.37,527.57l3-13.13h-12.08l-3,13.13H691.37z"/>
				<path class="st0" d="M727.15,545.06v-47.57h18.79c1.96,0,3.76,0.42,5.4,1.27c1.64,0.85,3.06,2,4.25,3.45
					c1.19,1.45,2.13,3.06,2.81,4.82c0.68,1.76,1.02,3.56,1.02,5.39c0,2.59-0.54,5.04-1.63,7.34c-1.09,2.3-2.61,4.17-4.57,5.59
					c-1.96,1.43-4.26,2.14-6.9,2.14h-14.7v17.55H727.15z M731.62,523.35h14.5c1.79,0,3.34-0.51,4.67-1.54
					c1.32-1.03,2.34-2.37,3.07-4.02c0.72-1.65,1.09-3.44,1.09-5.36c0-1.96-0.43-3.77-1.28-5.43c-0.85-1.65-1.97-2.96-3.35-3.92
					c-1.38-0.96-2.91-1.44-4.57-1.44h-14.12V523.35z"/>
				<path class="st0" d="M798.14,545.39c-3.58,0-6.6-0.67-9.07-2.01c-2.47-1.34-4.43-3.14-5.88-5.39c-1.45-2.25-2.5-4.81-3.16-7.67
					c-0.66-2.86-0.99-5.81-0.99-8.84v-23.99h4.41v23.99c0,2.46,0.24,4.87,0.73,7.24c0.49,2.37,1.29,4.49,2.4,6.36
					c1.11,1.88,2.6,3.36,4.47,4.46c1.87,1.09,4.22,1.64,7.03,1.64c2.9,0,5.29-0.57,7.19-1.71c1.9-1.14,3.39-2.65,4.47-4.52
					c1.09-1.88,1.86-3.99,2.33-6.33c0.47-2.35,0.7-4.72,0.7-7.14v-23.99h4.47v23.99c0,3.17-0.34,6.21-1.02,9.11
					c-0.68,2.9-1.78,5.45-3.29,7.64c-1.51,2.19-3.48,3.93-5.91,5.23C804.59,544.75,801.63,545.39,798.14,545.39z"/>
				<path class="st0" d="M871.17,540.91v4.15h-30.48v-47.57h29.9v4.15h-25.43v17.15h22.17v3.95h-22.17v18.16H871.17z"/>
				<path class="st0" d="M892.39,545.06v-47.57h15.4c4.81,0,8.83,1.06,12.04,3.18c3.22,2.12,5.63,4.98,7.25,8.58
					c1.62,3.6,2.43,7.58,2.43,11.96c0,4.82-0.88,9.02-2.65,12.6c-1.77,3.57-4.28,6.34-7.54,8.31c-3.26,1.97-7.1,2.95-11.53,2.95
					H892.39z M925.04,521.21c0-3.8-0.67-7.17-2.01-10.12c-1.34-2.95-3.29-5.26-5.85-6.93c-2.56-1.68-5.69-2.51-9.39-2.51h-10.93
					v39.26h10.93c3.75,0,6.9-0.87,9.46-2.61c2.56-1.74,4.49-4.1,5.81-7.07C924.38,528.25,925.04,524.92,925.04,521.21z"/>
				<path class="st0" d="M981.33,540.91v4.15h-30.48v-47.57h29.9v4.15h-25.43v17.15h22.17v3.95h-22.17v18.16H981.33z"/>
				<path class="st0" d="M1038.65,545.06v-31.22l-11.69,23.25h-4.92l-11.63-23.25v31.22h-8.82v-47.57h9.52l13.35,27l13.48-27h9.46
					v47.57H1038.65z"/>
				<path class="st0" d="M1081.97,497.49h8.95l16.68,47.57h-9.07l-3.77-11.86h-16.66l-3.79,11.86h-9.07L1081.97,497.49z
					 M1092.68,526.7l-6.24-19.63l-6.27,19.63H1092.68z M1089.25,493.47l-5.5-1.74l3.45-7.97h7.92L1089.25,493.47z"/>
				<path class="st0" d="M1151.81,509.95c-0.3-0.31-0.84-0.73-1.63-1.24c-0.79-0.51-1.75-1.04-2.88-1.57
					c-1.13-0.54-2.35-0.98-3.67-1.34c-1.32-0.36-2.66-0.54-4.03-0.54c-2.39,0-4.19,0.46-5.4,1.37c-1.21,0.91-1.82,2.23-1.82,3.96
					c0,1.29,0.38,2.31,1.15,3.07s1.92,1.4,3.45,1.93c1.53,0.53,3.45,1.11,5.75,1.73c2.98,0.76,5.57,1.68,7.76,2.77
					c2.19,1.09,3.88,2.51,5.05,4.27c1.17,1.76,1.76,4.1,1.76,7.03c0,2.49-0.45,4.62-1.34,6.4c-0.89,1.78-2.12,3.23-3.67,4.37
					c-1.56,1.13-3.34,1.96-5.37,2.47c-2.02,0.51-4.17,0.77-6.42,0.77c-2.26,0-4.52-0.25-6.77-0.74c-2.26-0.49-4.42-1.19-6.49-2.11
					c-2.07-0.92-3.99-2.02-5.78-3.32l3.9-7.97c0.38,0.4,1.06,0.93,2.04,1.57c0.98,0.65,2.17,1.3,3.58,1.94
					c1.41,0.65,2.94,1.2,4.6,1.64c1.66,0.45,3.34,0.67,5.05,0.67c2.43,0,4.24-0.41,5.43-1.23c1.19-0.82,1.79-2.02,1.79-3.61
					c0-1.42-0.48-2.55-1.44-3.37c-0.96-0.82-2.31-1.53-4.06-2.14c-1.75-0.6-3.81-1.23-6.2-1.9c-2.9-0.85-5.29-1.8-7.19-2.87
					c-1.9-1.07-3.32-2.39-4.28-3.97c-0.96-1.58-1.44-3.57-1.44-5.97c0-3.25,0.74-5.97,2.24-8.17c1.49-2.2,3.49-3.87,6.01-5
					c2.51-1.13,5.3-1.7,8.37-1.7c2.13,0,4.14,0.25,6.04,0.74c1.89,0.49,3.67,1.14,5.33,1.94c1.66,0.8,3.15,1.68,4.47,2.61
					L1151.81,509.95z"/>
			</g>
		</g>
		<path class="st0" d="M1156.41,449.01h-61.79l-14.8-47.92h-60.82l-14.16,47.92h-61.79l79.49-238.91h52.46L1156.41,449.01z
			 M1065.98,347.44l-15.77-69.85h-1.61l-16.73,69.85H1065.98z"/>
		<g>
			<polygon class="st2" points="453.68,369.82 487.85,267.13 453.68,267.13 			"/>
			<polygon class="st0" points="453.68,267.13 487.85,267.13 506.82,210.1 514.18,210.1 514.18,209.76 334.93,209.76 334.93,267.13 
				395.43,267.13 395.43,449.01 427.33,449.01 453.68,369.82 			"/>
		</g>
		<g>
			<path class="st2" d="M699.57,266.28h-33.79v54.67h33.79C735.93,320.95,735.93,266.28,699.57,266.28z"/>
			<path class="st0" d="M738.51,366.85c27.68-9.11,44.73-34.08,44.73-78.29c-1.29-56.02-37.65-78.63-84.64-78.63h-91.07v49.23
				l58.25,170.93v-57.17h10.3l52.78,75.93h71.76L738.51,366.85z M699.57,320.95h-33.79v-54.67h33.79
				C735.93,266.28,735.93,320.95,699.57,320.95z"/>
		</g>
		<path class="st0" d="M656.54,449.01h-61.79l-14.8-47.92h-60.82l-14.16,47.92h-61.79l79.49-238.91h52.46L656.54,449.01z
			 M566.11,347.44l-15.77-69.85h-1.61l-16.73,69.85H566.11z"/>
	</g>
	<g>
		<g>
			<g>
				<g>
					<g>
						<g>
							<g>
								<rect x="206.8" y="218.9" class="st0" width="13.93" height="98.68"/>
								<rect x="234.5" y="218.9" class="st0" width="13.35" height="98.68"/>
								<rect x="261.61" y="218.9" class="st0" width="14.43" height="98.68"/>
							</g>
						</g>
						<g>
							<path class="st0" d="M259.54,347.24h-3.65v-4.17h-5.06v4.17h-4.89v-4.17h-5.06v4.17h-5.06v-4.17h-5.06v4.17h-3.48
								c-1.33,0-2.4,1.13-2.4,2.52s1.08,2.52,2.4,2.52h32.09c1.33,0,2.4-1.13,2.4-2.52S260.86,347.24,259.54,347.24z"/>
							<g>
								<path class="st0" d="M269.9,394.45c-0.83-1.04-2.24-1.3-3.23-0.43l-0.17,0.17c-1.41-2.35-4.06-7.39-5.39-12.17
									c-4.06-14.43-3.65-24.87-3.65-24.87h-27.78c0,0,0.41,10.35-3.65,24.87c-1.33,4.87-4.15,10-5.47,12.26l-0.33-0.26
									c-1-0.78-2.4-0.61-3.23,0.43s-0.75,2.61,0.25,3.39l13.68,11.74v-0.09v0.09h25.04l0,0l0,0l13.68-11.74
									C270.56,397.06,270.73,395.49,269.9,394.45z M236.65,404.62l2.49-14.87h8.71l2.49,14.87H236.65z"/>
							</g>
						</g>
						<g>
							<path class="st0" d="M153.65,241.34H150v-4.17h-5.06v4.17h-4.89v-4.17h-5.06v4.17h-5.06v-4.17h-5.06v4.17h-3.48
								c-1.33,0-2.4,1.13-2.4,2.52s1.08,2.52,2.4,2.52h32.09c1.33,0,2.4-1.13,2.4-2.52C156.05,242.47,154.98,241.34,153.65,241.34z"
								/>
							<g>
								<path class="st0" d="M164.01,288.55c-0.83-1.04-2.24-1.3-3.23-0.43l-0.17,0.17c-1.41-2.35-4.06-7.39-5.39-12.17
									c-4.06-14.43-3.65-24.87-3.65-24.87H123.8c0,0,0.41,10.35-3.65,24.87c-1.33,4.87-4.15,10-5.47,12.26l-0.33-0.26
									c-1-0.78-2.4-0.61-3.23,0.43c-0.83,1.04-0.75,2.61,0.25,3.39l13.68,11.74v-0.09v0.09h25.04l0,0l0,0l13.68-11.74
									C164.68,291.16,164.84,289.59,164.01,288.55z M130.76,298.72l2.49-14.87h8.71l2.49,14.87H130.76z"/>
							</g>
						</g>
						<rect x="148.09" y="208.56" class="st0" width="25.62" height="0.09"/>
						<path class="st0" d="M291.96,208.64H87.06c-3.57,0-6.47,3.04-6.47,6.78v187.54c0,3.22,0.41,6.43,1.24,9.39
							c1.33,4.78,3.73,9.13,6.8,12.78l0,0l2.49,2.61l0,0c5.64,5.3,13.02,8.43,21.14,8.43h50c13.93,1.13,23.63,9.65,23.71,9.74
							l3.4,3.13l3.23-3.3c0.41-0.43,8.79-8.52,25.21-9.56h48.67c8.13,0,15.59-3.22,21.14-8.43l0,0l2.49-2.61l0,0
							c3.07-3.65,5.47-8,6.8-12.78c0.83-2.96,1.24-6.09,1.24-9.39V215.43C298.43,211.69,295.52,208.64,291.96,208.64z M90.38,218.9
							h94.28v98.68H90.38V218.9z M173.88,394.62c-1.08,1.39-3.98,3.83-3.98,5.56c0,0,2.82,3.13-1.58,3.65
							c-0.83,0.09-3.57-1.13-0.5-4.35c0,0,1.33-2.61,1.66-4.43c0.17-0.7,0.41-3.04-1.41-2.43c-1,0.35-2.99,1.74-3.07,3.04h-0.33
							c0.58,0,1.08,0.52,1.08,1.13c0,0.61-0.5,1.13-1.08,1.13h-0.75c0.58,0,1.08,0.52,1.08,1.13c0,0.61-0.5,1.13-1.08,1.13h-1.66
							v1.13l3.57,5.83c0.17,0,0.33,0.09,0.41,0.09c0.08,0,0.08,0,0.17,0c0.08,0,0.17,0,0.25,0.09c0.08,0,0.08,0,0.17,0
							c0.08,0,0.17,0,0.25,0.09c0.08,0,0.08,0,0.08,0c0.08,0,0.17,0.09,0.17,0.09h0.08c0.08,0,0.17,0.09,0.17,0.09h0.08
							c0.08,0,0.17,0.09,0.17,0.09l0,0c1.74,0.96,0.41,2.43,0.41,2.43c-2.32,2.09-3.07-1.39-3.07-1.39l-3.81-4.09v1.39
							c0.08,0.09,0.25,0.17,0.33,0.26l0.08,0.09c0.08,0.09,0.17,0.17,0.25,0.26c0,0,0,0.09,0.08,0.09c0.08,0.09,0.08,0.17,0.17,0.26
							c0,0.09,0.08,0.09,0.08,0.17c0.08,0.09,0.08,0.17,0.17,0.26c0.08,0.09,0.08,0.17,0.08,0.26c0,0.09,0,0.09,0.08,0.17
							c1.41,3.48-2.57,8.17-2.57,8.17s-3.98-4.61-2.57-8.17c0-0.09,0-0.09,0.08-0.17c0-0.09,0.08-0.17,0.08-0.26
							s0.08-0.17,0.17-0.26c0-0.09,0.08-0.09,0.08-0.17c0.08-0.09,0.08-0.17,0.17-0.26c0,0,0-0.09,0.08-0.09
							c0.08-0.09,0.17-0.17,0.25-0.26l0.08-0.09c0.08-0.09,0.17-0.17,0.33-0.26v-1.39l-3.81,4.09c0,0-0.75,3.48-3.07,1.39
							c0,0-1.24-1.48,0.41-2.43l0,0c0.08,0,0.17-0.09,0.17-0.09h0.08c0.08,0,0.17-0.09,0.17-0.09h0.08c0.08,0,0.17-0.09,0.17-0.09
							c0.08,0,0.08,0,0.08,0c0.08,0,0.17-0.09,0.25-0.09c0.08,0,0.08,0,0.17,0c0.08,0,0.17-0.09,0.25-0.09c0.08,0,0.08,0,0.17,0
							c0.17,0,0.25-0.09,0.41-0.09l3.57-5.83v-1.13h-1.66c-0.58,0-1.08-0.52-1.08-1.13c0-0.61,0.5-1.13,1.08-1.13h-0.25
							c-0.58,0-1.08-0.52-1.08-1.13c0-0.61,0.5-1.13,1.08-1.13h-0.33c-0.08-1.3-2.07-2.7-3.07-3.04c-1.82-0.61-1.58,1.74-1.41,2.43
							c0.33,1.74,1.66,4.43,1.66,4.43c3.07,3.22,0.33,4.43-0.5,4.35c-4.39-0.52-1.58-3.65-1.58-3.65c0-1.74-2.9-4.26-3.98-5.56
							c-2.9-3.74,0-6.78,2.24-7.39c4.39-1.3,9.7,8.61,9.7,8.61v-1.13c-1.58-2.78-3.07-8.96-3.07-8.96
							c-0.08-0.09-0.08-0.26-0.17-0.35l0,0c-0.08-0.09-0.08-0.26-0.08-0.35l0,0c0-0.17-0.08-0.26-0.08-0.43l0,0
							c-0.17-1.39,0.17-2.87,0.25-3.39l0,0c0-0.09,0-0.09,0-0.17l0,0l0,0l4.73-12l4.73,12l0,0l0,0c0,0,0,0.09,0,0.17l0,0
							c0.08,0.52,0.5,2,0.25,3.39l0,0c0,0.17,0,0.26-0.08,0.43l0,0c0,0.09-0.08,0.26-0.08,0.35l0,0c-0.08,0.09-0.08,0.26-0.17,0.35
							c0,0-1.49,6.17-3.07,8.96v1.13c0,0,5.31-9.82,9.7-8.61C173.88,387.84,176.78,390.88,173.88,394.62z M106.47,410.36
							c0,0-1.08-1.22,0-2.17c0.08-0.09,0.25-0.17,0.41-0.26l0,0c0.08,0,0.17-0.09,0.17-0.09h0.08c0.08,0,0.17-0.09,0.17-0.09h0.08
							c0.08,0,0.17-0.09,0.17-0.09c0.08,0,0.08,0,0.08,0c0.08,0,0.17-0.09,0.25-0.09c0.08,0,0.08,0,0.17,0
							c0.08,0,0.17-0.09,0.25-0.09c0.08,0,0.08,0,0.17,0c0.17,0,0.25-0.09,0.41-0.09l3.57-5.83v-1.13h-1.66
							c-0.58,0-1.08-0.52-1.08-1.13s0.5-1.13,1.08-1.13h-0.75c-0.58,0-1.08-0.52-1.08-1.13c0-0.61,0.5-1.13,1.08-1.13h-0.33
							c-0.08-1.3-2.07-2.7-3.07-3.04c-1.82-0.61-1.58,1.74-1.41,2.43c0.33,1.74,1.66,4.43,1.66,4.43c3.07,3.22,0.33,4.43-0.5,4.35
							c-4.39-0.52-1.58-3.65-1.58-3.65c0-1.74-2.9-4.26-3.98-5.56c-2.9-3.74,0-6.78,2.24-7.39c4.39-1.3,9.7,8.61,9.7,8.61v-1.13
							c-1.58-2.78-3.07-8.96-3.07-8.96c-0.08-0.09-0.08-0.26-0.17-0.35l0,0c-0.08-0.09-0.08-0.26-0.08-0.35l0,0
							c0-0.17-0.08-0.26-0.08-0.43l0,0c-0.17-1.39,0.17-2.87,0.25-3.39l0,0c0-0.09,0-0.09,0-0.17l0,0l0,0l4.73-12l4.73,12l0,0l0,0
							c0,0,0,0.09,0,0.17l0,0c0.08,0.52,0.5,2,0.25,3.39l0,0c0,0.17,0,0.26-0.08,0.43l0,0c0,0.09-0.08,0.26-0.08,0.35l0,0
							c-0.08,0.09-0.08,0.26-0.17,0.35c0,0-1.49,6.17-3.07,8.96v1.13c0,0,5.31-9.82,9.7-8.61c2.24,0.61,5.14,3.65,2.24,7.39
							c-1.08,1.39-3.98,3.83-3.98,5.56c0,0,2.82,3.13-1.58,3.65c-0.83,0.09-3.57-1.13-0.5-4.35c0,0,1.33-2.61,1.66-4.43
							c0.17-0.7,0.41-3.04-1.41-2.43c-1,0.35-2.99,1.74-3.07,3.04h-0.33c0.58,0,1.08,0.52,1.08,1.13s-0.5,1.13-1.08,1.13h-0.75
							c0.58,0,1.08,0.52,1.08,1.13s-0.5,1.13-1.08,1.13h-1.66v1.13l3.57,5.83c0.17,0,0.33,0.09,0.41,0.09s0.08,0,0.17,0
							s0.17,0,0.25,0.09c0.08,0,0.08,0,0.17,0s0.17,0,0.25,0.09c0.08,0,0.08,0,0.08,0c0.08,0,0.17,0.09,0.17,0.09h0.08
							c0.08,0,0.17,0.09,0.17,0.09h0.08c0.08,0,0.17,0.09,0.17,0.09l0,0c0.17,0.09,0.25,0.17,0.41,0.26c0.41,0.35,0.5,0.7,0.5,1.04
							c0,0.61-0.5,1.13-0.5,1.13c-2.32,2.09-3.07-1.39-3.07-1.39l-3.81-4.09v1.39c0.08,0.09,0.25,0.17,0.33,0.26l0.08,0.09
							c0.08,0.09,0.17,0.17,0.25,0.26c0,0,0,0.09,0.08,0.09c0.08,0.09,0.08,0.17,0.17,0.26c0,0.09,0.08,0.09,0.08,0.17
							c0.08,0.09,0.08,0.17,0.17,0.26c0.08,0.09,0.08,0.17,0.08,0.26s0,0.09,0.08,0.17c1.41,3.48-2.57,8.17-2.57,8.17
							s-3.98-4.61-2.57-8.17c0-0.09,0-0.09,0.08-0.17c0-0.09,0.08-0.17,0.08-0.26c0-0.09,0.08-0.17,0.17-0.26
							c0-0.09,0.08-0.09,0.08-0.17c0.08-0.09,0.08-0.17,0.17-0.26l0.08-0.09c0.08-0.09,0.17-0.17,0.25-0.26l0.08-0.09
							c0.08-0.09,0.17-0.17,0.33-0.26v-1.39l-2.99,3.22l-0.75,0.87C109.54,408.97,108.79,412.45,106.47,410.36z M134.25,349.58
							c-0.83-1.83,0-4.78,0-4.78l4.73-12.09l4.64,12.09c0,0,0.83,2.96,0,4.78c0,0-1.49,6.17-3.07,8.96v1.13c0,0,5.31-9.82,9.7-8.61
							c2.24,0.61,5.14,3.65,2.24,7.39c-1.08,1.39-3.98,3.83-3.98,5.56c0,0,2.82,3.13-1.58,3.65c-0.83,0.09-3.57-1.13-0.5-4.35
							c0,0,1.33-2.61,1.66-4.43c0.17-0.7,0.41-3.04-1.41-2.43c-1,0.35-2.99,1.74-3.07,3.04h-0.33c0.58,0,1.08,0.52,1.08,1.13
							s-0.5,1.13-1.08,1.13h-0.75c0.58,0,1.08,0.52,1.08,1.13c0,0.61-0.5,1.13-1.08,1.13h-1.66v1.13l3.57,5.83
							c4.64,0.78,2.57,3.13,2.57,3.13c-2.32,2.09-3.07-1.39-3.07-1.39l-3.81-4.09v1.39c4.23,3.48-1.33,9.82-1.33,9.82
							s-5.56-6.35-1.33-9.82v-1.39l-3.81,4.09c0,0-0.75,3.48-3.07,1.39c0,0-2.07-2.43,2.57-3.13l3.57-5.83v-1.13h-1.66
							c-0.58,0-1.08-0.52-1.08-1.13s0.5-1.13,1.08-1.13h-0.75c-0.58,0-1.08-0.52-1.08-1.13c0-0.61,0.5-1.13,1.08-1.13H134
							c-0.08-1.3-2.07-2.7-3.07-3.04c-1.82-0.61-1.58,1.74-1.41,2.43c0.33,1.74,1.66,4.43,1.66,4.43c3.07,3.22,0.33,4.43-0.5,4.35
							c-4.39-0.52-1.58-3.65-1.58-3.65c0-1.74-2.9-4.26-3.98-5.56c-2.9-3.74,0-6.78,2.24-7.39c4.39-1.3,9.7,8.61,9.7,8.61v-1.13
							C135.74,355.67,134.25,349.58,134.25,349.58z M288.64,399.23L288.64,399.23v6c-1.24,10.52-8.87,18.87-18.74,20.87h-53.81
							c-0.08,0-0.17,0-0.25,0c-2.9,0.26-5.56,0.61-8.04,1.13c-5.64,1.3-10.03,3.22-13.52,5.13v-104.6h94.28v0.78l0,0v70.69H288.64z
							 M288.64,317.59h-94.28V218.9h94.28V317.59z"/>
					</g>
					<path class="st0" d="M216.09,426.01c-0.08,0-0.17,0-0.25,0l0,0H216.09z"/>
					<g>
						<path class="st0" d="M238.14,141.44c1.49,1.48,5.47,4.52,9.62,6.09c1.58,0.61,3.4,1.04,5.47,1.04c3.81,0,9.54-2.43,15.17-7.48
							c2.07,0.26,5.06,0.35,7.46-1.48c2.74-2,4.15-5.91,4.06-11.56v-0.43l0.41,0.09c0,0,2.4,0.7,4.81-1.04
							c3.07-2.26,4.81-7.48,5.22-15.22c-0.08-0.17-1.24-6.87,0-12c-0.08-0.61-0.66-5.56-3.98-7.83c-1.74-1.22-3.98-1.48-6.72-0.78
							c-0.25,0.09-4.64,1.48-6.88,8c-1.41,4.09-1,8.78,1.08,13.91c-1.33,0-2.9,0.26-3.81,1.39c0,0-0.91,0.87-1.24,1.04
							c-0.41,0.26-1.08,0.43-1.74,0.35c-1-0.09-1.66-0.43-2.57-1.48c-0.08-0.17-1.66-3.48-5.64-2.09l-0.91,0.43l0.33-1.13
							c0-0.09,1.08-2.96-0.66-5.13c-0.5-0.52-1.74-1.39-2.4-1.39l-1-0.26l0.17-0.43c0-0.09,4.89-13.22-2.65-20.78l-0.08-0.09v-0.17
							c0-0.17,2.07-14.78-12.35-19.22c-0.17-0.09-2.16-1.48-1.99-3.13c0.08-0.87,0.83-1.65,2.24-2.26c0-0.7-0.08-3.13-2.74-6.17
							l-0.17-0.17l0.08-0.17c0.25-1.04,1-3.39,1.82-4c-0.17-0.78-0.41-1.83-0.66-2.09c-1.24-1.22-5.89-1.65-7.55-1.74l-0.17-0.09
							c0,0-2.9-1.74-6.05-4.26c-4.15-9.82-10.2-16.35-17.83-18.08c-13.43-3.04-27.69,7.91-31.84,11.39
							c-0.5-0.09-0.91-0.26-1.16-0.52c-0.66-0.7-0.41-2.87-0.17-4.09c-3.32,1.39-20.15,9.74-18.91,28.34
							c0,0.7-0.33,15.65,18.91,16.69l2.16,0.09l-2.07,0.61c-2.57,0.7-6.8,2.35-6.88,3.65c-0.25,2.35,6.38,6.17,8.96,7.48l0.33,0.17
							l-0.17,0.35c0,0.09-0.91,1.39-2.24,1.65c-0.75,0.17-1.41-0.09-2.16-0.61c-1-0.78-1.33-0.7-1.41-0.61
							c-0.08,0.09-0.17,0.26-0.17,0.43c0.58,0.52,3.4,2.7,5.97,1.91h0.17l2.32,1.3l0.75,0.61l5.8,0.09l-0.75-0.7
							c-2.9-2.52-7.38-8.09-4.64-16c-2.24-4-4.98-8.09-5.64-8.35l-0.08-0.09c0,0-0.91-0.78-0.75-2c0.17-1.13,1.08-2.26,2.9-3.22
							l-0.17-5.22c-0.66-0.35-2.57-1.65-2.74-3.83s1.41-4.52,4.81-7.04l-0.25-8.43c4.06-3.39,17-13.13,28.61-10.52
							c6.38,1.48,11.69,6.87,15.34,15.56l0,0v2l-0.41-0.17c-0.08,0-6.05-2-7.55,1.22l-0.25,0.52l-0.33-0.43
							c-0.08-0.09-6.14-8.96-13.27-6.43c-7.21,2.52-10.78,13.04-10.78,13.13c0,0.09-2.65,10.96-1.49,13.56l0.75,1.74l-5.47-5.56
							c-0.33,1.65-1,6.09,0.17,9.13c1.41,3.65,3.65,4.26,3.65,4.26l0.25,0.09l-0.08,6c0.17,0,0.41,0,0.91-0.35
							c0.91-0.78,3.15-4.09,3.15-4.09l0.25-0.35l0.25,0.26c0.08,0.09,2.49,2.35,0.08,7.22c-1.49,3.13-3.07,6.09-4.06,7.91
							l-0.17,0.17l1.41,0.26l0.08-0.09c0.5-0.35,2.9-1.83,4.73-2.96c0,0,3.15-1.91,4.98-2c0.08,0,0.25-0.09,0.41-0.09
							c0.5,0,1,0.17,1.41,0.35c2.57,0.35,6.47,2.17,10.61,8.61c0.17,0.17,0.58,0.43,0.66,0.43l0,0c0,0,0.08-0.17,0-0.87
							c-0.33-0.78-2.57-5.56-1.66-7.48c0.25-0.43,0.58-0.7,1.08-0.78h0.08h0.08c0.33,0.17,7.88,3.56,9.95,9.13l3.07-10.61
							l-0.08,2.61c0,0.43,1.74,37.73,9.2,47.73C234.41,137.26,236.65,139.96,238.14,141.44z M192.37,69.44
							c-0.25,0.78-0.58,1.74-0.83,2.61l-0.08,0.26h-0.25c-0.08,0-1.66-0.26-2.32-1.39c-0.33-0.61-0.33-1.3-0.08-2.09
							c0.83-2.26,5.47-6,7.05-7.22c-0.91-0.52-2.74-1.83-3.23-5.04l-0.08-0.52l11.03,2.96l0.25,10.69l-0.5-0.26
							c-0.17-0.09-4.23-2.09-5.47-4.61l-3.48,7.74h-0.17c0,0-0.17,0-0.33,0c-0.25,0-0.58-0.09-0.91-0.35
							C192.54,71.79,192.29,70.84,192.37,69.44z M239.39,129.61c0.5-6.35,5.89-11.22,6.14-11.39l0.41-0.43l0.08,0.61
							c1.66,10.78,4.56,16.69,8.71,17.65c6.22,1.39,13.18-9.3,13.27-9.39l0.5-0.7l0.17,0.87c0.41,2.61,0.33,5.3-0.25,8
							c-0.08,0.35-0.25,0.78-0.5,1.22c-5.64,6.61-11.19,9.56-16.5,8.61c-4.81-0.78-8.46-5.3-10.61-8.78
							C239.64,133.96,239.22,131.87,239.39,129.61z M275.95,121.96c-0.17,0-14.93-2.87-24.38,2.26l-0.66,0.35l0.25-0.78
							c0-0.09,0.66-2.26,2.74-3.39c-1.66-0.7-5.14-2.52-4.89-5.91v-0.17l3.23-1.3c-1.41-1.3-2.74-2.26-3.15-2.26
							c-0.58,0.78-6.38,8.26-15.67,8.26h-0.17h-0.58l0.25-0.52c0.17-0.26,12.6-24.34,4.31-30.52l-0.08-0.09
							c-0.08-0.09-7.46-10-21.81-5.83l-0.75,0.17l2.16-4.26l-0.17-2.7c-1.91,0.7-10.2,3.65-9.78,7.39l0.08,0.43l-0.41-0.09
							c-0.08,0-7.63-2.52-11.19,1.57c-0.91,0.43-1.74,0.87-1.99,1.04l-0.08-0.78c0-3.39,0.5-7.39,9.04-9.13h0.17l0.08,0.09
							c0.08,0,1.33,0.96,3.07-0.43c0.33-1.04,2.9-9.13,7.13-8.69h0.08l0.08,0.09c0.08,0.09,2.16,1.65,4.56,0
							c0.33-0.52,2.65-3.91,5.72-4.09c0.08,0,0.08,0,0.17,0c1.66,0,3.23,0.96,4.64,2.96c0.08,0,2.32,2.09,5.8,0.35
							c0.08,0,1.99-0.87,4.81,0.43c2.99,1.39,7.3,5.56,11.03,17.39c0,0.09,5.89,12.17,1.66,22.95c0.91,0.7,4.31,3.39,5.39,6.78
							c1,0.09,4.98,0.78,7.88,3.65c1.08-0.17,7.13-0.78,11.61,4.17l0.66,0.78L275.95,121.96z M279.44,112.83l-0.08,0.26l-1.33-0.17
							c-2.4-4.96-3.07-9.3-1.82-12.87c0.83-2.43,2.99-4.43,4.89-5.91C282.42,97.35,281.92,103.61,279.44,112.83z"/>
						<g>
							<path class="st0" d="M204.89,136.31c0-2.96-2.24-5.3-5.06-5.3c-2.82,0-5.06,2.35-5.06,5.3s2.24,5.3,5.06,5.3
								S204.89,139.26,204.89,136.31z"/>
							<path class="st0" d="M142.45,168.39l10.53,14.09c1,1.39,5.39,0.52,5.39,0.52c21.81-10,29.02-25.48,36.32-37.39
								c0.33-0.61,0.66-1.13,1.08-1.65l0.25-0.43c-1.99-1.22-3.4-3.22-3.81-5.65v-0.09c-0.08-0.43-0.08-0.96-0.08-1.39
								c0-0.7,0.08-1.39,0.25-2c0.17-0.52,0.33-1.13,0.58-1.57v-0.09c0-0.09,0.08-0.09,0.08-0.17c-0.75-0.35-1.41-0.78-2.07-1.22
								c-19.9-11.74-34.66-32.52-36.82-36c-21.06,19.56-23.05,36.08-23.22,42.95c0,0.43,0,0.78,0.08,1.04
								c1.74,0.43,3.57,0.78,5.31,1.13c0.41,2.43,3.15,15.91,13.43,27.65C144.86,169.08,142.45,168.39,142.45,168.39z M190.3,140.22
								c-1.49,1.83-3.9,4.7-7.71,8.17c-0.58-0.7-1.16-1.57-1.74-2.43c3.57-1.57,6.8-3.48,9.45-5.83
								C190.3,140.13,190.3,140.13,190.3,140.22z M189.64,135.26c0,0.35-0.08,0.7-0.08,1.13c0,0.26,0,0.43,0,0.7
								c-2.16,1.22-5.89,3.3-11.03,5.39c-0.66-1.13-1.33-2.35-1.99-3.65C181.59,137.7,186.07,136.48,189.64,135.26z M179.19,151.26
								c-2.4,2-5.31,4.26-8.54,6.52c-0.33,0.26-0.75,0.52-1.08,0.78c-1.58-2-3.48-4.61-5.31-7.65c4.06-0.78,8.37-1.91,12.35-3.39
								C177.45,148.83,178.28,150.04,179.19,151.26z M172.31,139.7c0.66,1.39,1.41,2.87,2.24,4.35c-3.65,1.3-7.71,2.52-12.19,3.48
								c-1-1.91-1.99-4-2.9-6.17C163.85,141.09,168.24,140.48,172.31,139.7z M140.55,141L140.55,141c4.81,0.61,9.7,0.78,14.51,0.61
								c0.66,1.91,1.58,4.26,2.82,6.78c-4.31,0.7-8.96,1.13-13.76,1.13C142.79,146.91,141.63,144.13,140.55,141z M145.85,153.26
								c3.23-0.17,8.13-0.61,13.6-1.48c1.66,3.04,3.73,6.17,6.3,9.3c-4.48,2.7-8.21,4.52-11.44,5.65
								C152.82,164.65,149.34,159.95,145.85,153.26z"/>
							<path class="st0" d="M180.43,119.18c-11.03-10.43-19.32-22.26-19.49-22.43l-0.33-0.43l0.08-0.09l0.25,0.43
								C161.11,96.83,169.49,108.57,180.43,119.18z"/>
							<path class="st0" d="M204.06,173.08c-0.17,0-0.33,0.09-0.5,0.09c-0.08-0.17-0.17-0.43-0.17-0.7
								C203.57,172.65,203.82,172.82,204.06,173.08z"/>
							<path class="st0" d="M248.26,208.64l-5.72,0.09c-6.14-10.78-14.43-7.3-17.58-4.09c-22.55,22.52-40.05,20.69-40.05,20.69
								c-14.84,15.74-45.85,11.82-45.85,11.82v-3.74h-0.17v-0.43c-0.08-6.17,1.49-11.65,3.98-16.43c0.08-0.26,0.25-0.43,0.33-0.7
								c1.24-2.26,2.65-4.43,4.06-6.35c0.25-0.35,0.5-0.7,0.83-0.96c5.97-7.39,13.02-11.91,14.76-12.87l-4.23-9.3l0.66-0.09
								c0.17,0,0.33-0.09,0.41-0.09c-0.08-0.09-0.08-0.09-0.08-0.09s13.52-5.3,23.13-16.61c7.79-9.22,12.52-18.52,14.43-22.61
								c0.08-0.09,0.08-0.17,0.08-0.26c0.08-0.17,0.17-0.35,0.25-0.43l0,0c0.25-0.52,0.41-0.87,0.5-1.13c0-0.09,0-0.09,0.08-0.09
								c0.08-0.17,0.08-0.26,0.08-0.26c0-0.09,0.08-0.17,0.08-0.17c0.33,0.09,0.66,0.09,1,0.17c0.25,0,0.5,0,0.66,0
								c4.31,0,7.88-3.65,7.88-8.26c0-0.43,0-0.87-0.08-1.3c0-0.09,0-0.26-0.08-0.35c0-0.17-0.08-0.26-0.08-0.35
								c-0.41-1.74-1.33-3.22-2.65-4.35c-0.41-0.35-0.83-0.61-1.24-0.87c-0.08-0.09-0.17-0.09-0.25-0.17
								c-1.08-0.52-2.24-0.87-3.48-0.87c-1.91,0-3.73,0.7-5.06,1.91l-0.08,0.09l-0.17,0.09l-0.25-0.17
								c-0.58-0.35-1.24-0.78-1.82-1.13c-3.98-2.61-7.96-5.91-11.61-9.39c-0.17-0.09-0.25-0.26-0.41-0.35
								c-11.03-10.61-19.32-22.35-19.4-22.52l-0.25-0.43v-0.09l0.5-0.26c4.89-2.96,10.45-4.96,16-5.65c0,0,5.56-0.96,12.11,0.43
								c0.17,0,0.33,0.09,0.5,0.09c12.69,2.61,23.63,11.48,29.1,24.08c0.25,0.61,0.5,1.22,0.75,1.83c1.66,4.26,2.57,8.69,2.82,13.39
								c0.08,0.52,0.08,1.04,0.08,1.65v0.87c-0.25,12.17-6.22,24.08-15.67,31.13c-2.57,2.87-3.81,5.56-3.65,8
								c0,0.26,0.08,0.52,0.08,0.78l0,0c0.08,0.26,0.08,0.43,0.17,0.7c0.5,1.3,1.33,1.91,1.33,2l21.56,15.48
								c5.47,2,12.6,5.83,15.59,9.13c1.16,1.3,3.32,4.43,4.73,6.52C247.76,207.69,248.26,208.64,248.26,208.64z"/>
						</g>
					</g>
					<g>
						<g>
							<path class="st0" d="M149.59,509.56c-0.33-0.43-0.75-0.78-1.24-0.96c-0.5-0.17-1.08-0.26-1.66-0.17l-1.99,0.26l0.83,6.35
								l1.99-0.26c0.66-0.09,1.16-0.26,1.58-0.61s0.75-0.7,1-1.22c0.17-0.52,0.25-1.13,0.17-1.74
								C150.08,510.52,149.92,510,149.59,509.56z"/>
							<polygon class="st0" points="133.58,514.43 136.4,514.17 134.66,510.52 							"/>
							<path class="st0" d="M124.88,512.26c-0.25-0.43-0.66-0.78-1.16-1.04s-1.08-0.35-1.66-0.26l-1.99,0.09l0.33,6.43l1.99-0.09
								c0.66,0,1.16-0.17,1.66-0.43c0.5-0.26,0.83-0.7,1.08-1.13c0.25-0.52,0.33-1.04,0.33-1.74
								C125.29,513.3,125.12,512.78,124.88,512.26z"/>
							<polygon class="st0" points="238.97,494.61 241.79,494.18 239.8,490.7 							"/>
							<path class="st0" d="M183.5,481.74c0.25-0.26,0.33-0.52,0.25-0.96c-0.08-0.35-0.25-0.61-0.58-0.7
								c-0.33-0.09-0.66-0.09-1.24,0l-2.07,0.52l0.5,2.17l2.07-0.52C182.92,482.18,183.25,482,183.5,481.74z"/>
							<polygon class="st0" points="200.17,502.52 202.9,501.91 200.83,498.52 							"/>
							<path class="st0" d="M184.58,484.44c-0.33-0.09-0.75-0.09-1.24,0l-2.57,0.61l0.5,2.35l2.57-0.61
								c0.5-0.09,0.91-0.35,1.16-0.61c0.25-0.26,0.33-0.61,0.25-0.96C185.08,484.79,184.91,484.52,184.58,484.44z"/>
							<path class="st0" d="M214.35,495.48c-0.41-0.26-0.91-0.26-1.49-0.17l-1.74,0.35l0.66,3.39l1.74-0.35
								c0.66-0.17,1.08-0.35,1.33-0.78c0.25-0.35,0.33-0.78,0.25-1.3C214.93,496.09,214.68,495.74,214.35,495.48z"/>
							<path class="st0" d="M166.75,506.61c-0.33-0.43-0.75-0.7-1.24-0.87c-0.5-0.17-1.08-0.17-1.74-0.09l-1.99,0.35l1.08,6.35
								l1.99-0.35c0.66-0.09,1.16-0.35,1.58-0.7c0.41-0.35,0.75-0.78,0.91-1.3c0.17-0.52,0.25-1.13,0.08-1.74
								C167.33,507.56,167.08,507.04,166.75,506.61z"/>
							<path class="st0" d="M273.22,489.05c0.41,0,0.75-0.09,1-0.26c0.25-0.17,0.41-0.52,0.41-0.87c0-0.43-0.08-0.7-0.33-0.96
								s-0.58-0.35-0.91-0.35c-0.41,0-0.75,0.09-1,0.26c-0.25,0.17-0.41,0.52-0.41,0.87s0.08,0.7,0.33,0.96
								C272.56,488.87,272.89,488.96,273.22,489.05z"/>
							<path class="st0" d="M274.13,493.74c0.33-0.26,0.5-0.61,0.5-1.04c0-0.43-0.08-0.78-0.41-1.13c-0.25-0.26-0.66-0.43-1.16-0.43
								c-0.5,0-0.91,0.09-1.24,0.35c-0.33,0.26-0.5,0.61-0.5,1.04c0,0.43,0.08,0.78,0.41,1.13c0.25,0.26,0.66,0.43,1.16,0.43
								S273.8,494,274.13,493.74z"/>
							<path class="st0" d="M167.5,488c0.25,0.35,0.5,0.7,0.83,0.96s0.66,0.43,1.08,0.52c0.41,0.09,0.83,0.09,1.24,0
								c0.41-0.09,0.83-0.26,1.16-0.43c0.33-0.26,0.58-0.52,0.83-0.87c0.25-0.35,0.33-0.7,0.41-1.13c0.08-0.43,0.08-0.87,0-1.39
								c-0.08-0.52-0.25-0.96-0.5-1.3s-0.5-0.7-0.83-0.96s-0.66-0.43-1.08-0.52c-0.41-0.09-0.83-0.09-1.24,0
								c-0.41,0.09-0.83,0.26-1.16,0.43c-0.33,0.26-0.58,0.52-0.83,0.87c-0.25,0.35-0.33,0.7-0.41,1.13c-0.08,0.43-0.08,0.87,0,1.39
								C167.16,487.22,167.33,487.65,167.5,488z"/>
							<path class="st0" d="M273.8,519.3c-0.08,7.39,6.88,12.26,11.36,13.13c10.2,1.91,16.34-2,20.07-6.35c0,0-13.1-8.96-19.4-11.48
								c-7.63-3.04-10.86-0.87-10.86-0.87S273.8,515.04,273.8,519.3z"/>
							<path class="st0" d="M106.22,464.96c0.08-7.39-6.88-12.26-11.36-13.13c-10.2-1.91-16.34,2-20.07,6.35
								c0,0,10.45,8.61,16.75,11.13c7.63,3.04,13.6,1.22,13.6,1.22S106.14,469.31,106.22,464.96z"/>
							<path class="st0" d="M72.22,463.83c-0.33,0.7-0.41,1.22-0.41,1.22l2.32,53.56c4.39,13.39,24.96,15.13,34.25,14.61
								c29.35-1.65,113.77-17.91,116.34-18.35c20.4-3.56,32.34-7.39,44.61-8.26c3.57-0.26,10.86,1.04,14.59,2.09
								c6.88,2,23.3,12.78,23.3,12.78c0-0.26-4.48-19.82-5.06-27.47c-0.33-4.87,1.58-23.39,1.58-23.39
								c-3.48-24.61-32.09-20.26-43.62-17.91c-10.61,2.17-110.78,18.43-149.42,22.61c-0.58,0.09-1.16,0.09-1.74,0.17l-3.73,0.17
								c-6.22,0.17-9.54,0.43-15.92-1.57C84.66,472.61,72.22,463.83,72.22,463.83z M89.72,513.56c0.08,0.43,0.17,0.87,0.41,1.22
								c0.17,0.35,0.5,0.61,0.83,0.87c0.33,0.26,0.75,0.43,1.16,0.52c0.5,0.09,1,0.09,1.49,0c0.5-0.17,0.91-0.35,1.33-0.7l1.58,2.35
								c-0.66,0.52-1.41,0.96-2.32,1.13s-1.82,0.17-2.82-0.09c-0.83-0.17-1.66-0.52-2.32-0.96c-0.66-0.43-1.24-1.04-1.66-1.65
								c-0.41-0.7-0.75-1.39-0.83-2.17c-0.17-0.78-0.17-1.65,0.08-2.52c0.17-0.87,0.5-1.65,0.91-2.26c0.41-0.7,1-1.22,1.66-1.57
								c0.66-0.43,1.33-0.7,2.16-0.78c0.83-0.09,1.58-0.09,2.49,0.09c1,0.26,1.91,0.61,2.57,1.13c0.75,0.52,1.24,1.22,1.66,2.09
								l-2.32,1.39c-0.25-0.52-0.58-0.96-0.91-1.22c-0.33-0.35-0.83-0.52-1.33-0.7c-0.41-0.09-0.91-0.09-1.24-0.09
								c-0.41,0.09-0.75,0.17-1.08,0.43c-0.33,0.26-0.58,0.52-0.83,0.87s-0.41,0.78-0.5,1.3C89.72,512.69,89.72,513.13,89.72,513.56
								z M101.58,520l-3.15-0.26l1-11.65l3.15,0.26L101.58,520z M265.26,463.83l0.66,9.04l5.31-0.43l0.17,2.61l-8.46,0.7
								l-0.83-11.65L265.26,463.83z M232.01,468.09l1.24,8.96l5.22-0.78l0.33,2.61l-8.37,1.3l-1.66-11.56L232.01,468.09z
								 M215.09,470.87l3.32,4.09l1.91-5.04l2.99-0.52l-2.99,8.17l0.66,4.09l-3.07,0.52l-0.66-4.17l-5.39-6.61L215.09,470.87z
								 M206.63,472.44l0.41,2.52l-5.56,1.04l0.33,1.91l4.89-0.96l0.41,2.43l-4.89,0.96l0.41,2.09l5.72-1.13l0.41,2.52l-8.79,1.74
								l-2.07-11.48L206.63,472.44z M191.46,475.48l1.74,8.87l5.22-1.13l0.5,2.61l-8.29,1.74l-2.16-11.48L191.46,475.48z
								 M163.93,484.87c0.17-0.78,0.5-1.48,0.91-2.17c0.41-0.61,1-1.22,1.74-1.65c0.66-0.43,1.49-0.78,2.32-0.87
								c0.91-0.17,1.74-0.17,2.49,0c0.75,0.17,1.49,0.43,2.16,0.87c0.66,0.43,1.16,0.96,1.58,1.65c0.41,0.7,0.75,1.39,0.91,2.26
								c0.17,0.87,0.17,1.65-0.08,2.43c-0.17,0.78-0.5,1.48-0.91,2.17c-0.41,0.61-1,1.22-1.74,1.65c-0.66,0.43-1.49,0.78-2.32,0.87
								c-0.91,0.17-1.74,0.17-2.49,0c-0.83-0.17-1.49-0.43-2.16-0.87c-0.66-0.43-1.16-0.96-1.58-1.65c-0.41-0.7-0.75-1.39-0.83-2.26
								C163.77,486.44,163.77,485.65,163.93,484.87z M128.44,485.83l0.75,9.04l5.31-0.43l0.17,2.52l3.73-12l3.07-0.35l6.05,11.04
								l-3.23,0.35l-1.08-2.17l-4.73,0.52l-0.66,2.35l-3.23,0.35l0,0l-8.37,0.7l-0.91-11.65L128.44,485.83z M114.76,515.22
								c0,1.74-0.5,3.04-1.41,4c-0.91,0.96-2.24,1.39-3.9,1.39c-1.66,0-2.9-0.52-3.81-1.48c-0.91-0.96-1.33-2.35-1.33-4.09
								l0.08-6.43l3.15,0.09l-0.08,6.35c0,1.04,0.17,1.74,0.5,2.17c0.33,0.43,0.91,0.7,1.58,0.7s1.16-0.17,1.58-0.61
								c0.41-0.43,0.58-1.13,0.58-2.17l0.08-6.35l3.07,0.09L114.76,515.22z M111.86,496.44l-0.75,2.35l-3.23,0.17l4.31-11.91
								l3.07-0.17l5.47,11.39l-3.23,0.17l-1-2.26L111.86,496.44z M127.86,516.96c-0.5,0.87-1.16,1.65-2.07,2.17
								s-1.99,0.87-3.23,0.87l-5.22,0.26l-0.58-11.65l5.22-0.26c1.24-0.09,2.32,0.09,3.32,0.52s1.74,1.04,2.32,1.91
								c0.58,0.87,0.91,1.83,0.91,3.04C128.52,515.04,128.36,516.09,127.86,516.96z M138.64,518.61l-1.08-2.17l-4.73,0.52
								l-0.66,2.35l-3.23,0.35l3.81-12.17l3.07-0.35l6.05,11.13L138.64,518.61z M152.99,513.91c-0.41,0.96-1.08,1.74-1.91,2.35
								s-1.91,0.96-3.15,1.13l-5.22,0.78l-1.49-11.56l5.22-0.78c1.24-0.17,2.32-0.09,3.32,0.26c1,0.35,1.82,0.87,2.4,1.65
								c0.66,0.78,1,1.74,1.16,2.96C153.48,511.91,153.4,512.96,152.99,513.91z M152.9,494.96l-1.58-11.56l2.57-0.35l5.72,5.39
								l-0.83-6.17l3.07-0.43l1.58,11.56l-2.57,0.35l-5.72-5.39l0.83,6.17L152.9,494.96z M170.32,510.87
								c-0.41,0.96-1,1.74-1.82,2.43c-0.83,0.61-1.91,1.04-3.07,1.3l-5.22,0.96l-1.91-11.48l5.22-0.96
								c1.24-0.26,2.32-0.17,3.32,0.09s1.82,0.87,2.49,1.57c0.66,0.78,1.08,1.74,1.33,2.96
								C170.73,508.87,170.65,509.91,170.32,510.87z M173.14,513.13l-2.16-11.48l8.54-1.74l0.5,2.52l-5.47,1.13l0.33,1.91l4.89-0.96
								l0.41,2.43l-4.89,0.96l0.41,2.09l5.72-1.22l0.5,2.52L173.14,513.13z M178.69,490.35l-2.4-11.39l5.56-1.3
								c1.41-0.35,2.57-0.35,3.4,0.09c0.83,0.35,1.33,1.04,1.49,1.91c0.08,0.61,0.08,1.13-0.08,1.65c-0.17,0.43-0.5,0.87-0.83,1.22
								c0.08,0,0.17,0,0.25,0c0.58,0.09,1.16,0.35,1.58,0.78c0.41,0.35,0.66,0.96,0.83,1.57c0.25,0.96,0,1.83-0.66,2.61
								c-0.66,0.7-1.66,1.22-3.15,1.57L178.69,490.35z M193.53,508.7l-3.07,0.7l-1.74-8.87l-3.32,0.7l-0.5-2.61l9.78-2.17l0.5,2.61
								l-3.32,0.7L193.53,508.7z M205.64,506.09l-1.33-2l-4.64,0.96l-0.41,2.43l-3.15,0.7l2.57-12.52l3.07-0.7l7.05,10.43
								L205.64,506.09z M216.42,503.83l-2.57-2.61l-1.66,0.35l0.58,3.04l-3.07,0.61l-2.16-11.48l4.98-1.04c1-0.17,1.91-0.26,2.65,0
								c0.75,0.17,1.41,0.52,1.99,1.13c0.5,0.52,0.83,1.3,1,2.17c0.17,0.87,0.08,1.65-0.17,2.35c-0.25,0.7-0.66,1.22-1.33,1.74
								l3.07,3.13L216.42,503.83z M231.1,500.87l-1.08-6.09l-1.91,5.48l-1.41,0.26l-3.65-4.26l1.08,5.91l-2.9,0.52l-2.07-11.48
								l2.57-0.52l5.06,5.91l2.57-7.39l2.57-0.52l2.07,11.48L231.1,500.87z M244.28,498.52l-1.24-2.09l-4.64,0.78l-0.5,2.35
								l-3.15,0.52l3.07-12.35l3.07-0.52l6.72,10.69L244.28,498.52z M240.05,478.61l-1.49-11.56l8.62-1.22l0.33,2.52l-5.56,0.78
								l0.25,1.91l4.89-0.7l0.33,2.43l-4.89,0.7l0.25,2.09l5.8-0.78l0.33,2.52L240.05,478.61z M252.9,465.14l3.07-0.35l6.14,11.04
								l-3.23,0.35L257.8,474l-4.73,0.52l-0.66,2.35l-3.23,0.35L252.9,465.14z M253.9,497.04l-1-9.04l-2.07,0.26l-0.25-2.52
								l5.22-0.61l1.33,11.56L253.9,497.04z M263.68,496.09l-3.4,0.26l3.23-9.3l-2.9,0.17l0.08,1.83l-2.65,0.17l-0.25-4.43l9.2-0.61
								l0.08,2.09L263.68,496.09z M277.86,493.04c-0.08,0.78-0.33,1.39-0.75,1.91c-0.41,0.52-1,0.87-1.74,1.13
								c-0.75,0.26-1.58,0.35-2.57,0.26c-1-0.09-1.82-0.26-2.49-0.61c-0.66-0.35-1.24-0.78-1.58-1.39c-0.33-0.61-0.5-1.22-0.5-2
								c0.08-0.7,0.33-1.3,0.75-1.83c0.25-0.35,0.66-0.61,1.08-0.78c-0.25-0.17-0.41-0.43-0.58-0.7c-0.33-0.52-0.5-1.13-0.5-1.74
								c0.08-0.7,0.25-1.3,0.66-1.74c0.41-0.43,1-0.87,1.66-1.04c0.66-0.26,1.49-0.35,2.32-0.26c0.91,0.09,1.66,0.26,2.32,0.61
								s1.16,0.78,1.49,1.3c0.33,0.52,0.5,1.13,0.41,1.83s-0.25,1.22-0.66,1.74c-0.17,0.17-0.41,0.43-0.66,0.52
								c0.41,0.26,0.66,0.52,0.91,0.87C277.7,491.65,277.86,492.35,277.86,493.04z M289.22,489.65l-6.05,8.26l-3.32-0.87l5.8-7.83
								l-2.82-0.78l-0.41,1.74l-2.57-0.7l1.08-4.26l8.96,2.43L289.22,489.65z"/>
							<polygon class="st0" points="254.81,468.18 253.73,472.09 256.63,471.74 							"/>
							<polygon class="st0" points="140.22,487.92 139.14,491.83 141.96,491.48 							"/>
							<polygon class="st0" points="112.6,493.91 115.51,493.74 113.85,490.09 							"/>
						</g>
					</g>
				</g>
			</g>
		</g>
	</g>
</g>
</svg>
