<?xml version="1.0" encoding="utf-8"?>
<!-- Generator: Adobe Illustrator 27.1.1, SVG Export Plug-In . SVG Version: 6.00 Build 0)  -->
<svg version="1.1" id="Capa_1" xmlns="http://www.w3.org/2000/svg" xmlns:xlink="http://www.w3.org/1999/xlink" x="0px" y="0px"
	 viewBox="0 0 1229 566" style="enable-background:new 0 0 1229 566;" xml:space="preserve">
<style type="text/css">
	.st0{fill:#82BEE6;}
	.st1{fill:#FFFFFF;}
	.st2{fill:#031B80;}
	.st3{fill:#D8241C;}
	.st4{fill:#FDF500;}
	.st5{fill:#DFDDDF;}
	.st6{fill:#E5E5E5;stroke:#666666;stroke-width:0.25;stroke-miterlimit:10;}
	.st7{fill:#E4AF2C;}
	.st8{fill:#EC1C24;}
	.st9{fill:#B2B2B2;}
	.st10{fill:none;}
	.st11{fill:#2174D3;}
	.st12{fill:#F14C3C;}
	.st13{fill:#3B8DED;}
	.st14{fill:#014B9F;}
	.st15{fill:#1366C1;}
	.st16{fill:#0B5CB7;}
</style>
<g>
	<g>
		<path class="st0" d="M249.7,404.95L249.7,404.95l-0.01,6.26c-1.41,10.96-9.77,19.75-20.51,21.8H170.2
			c-0.08,0.01-0.15,0.02-0.23,0.02c-3.15,0.25-6.07,0.64-8.78,1.22c-6.17,1.32-10.98,3.35-14.82,5.35V330.29H249.7v0.8h0.01V404.95z
			"/>
		<rect x="32.32" y="216.42" class="st0" width="103.34" height="103.17"/>
		<path class="st1" d="M134.42,81.67l3.42,0.26c0,0,16.89-12.9,24.32,1.63l-0.64-7.74l6.58,2.33l5.83,5.41l3.71-9.33
			c0,0,1.8,3.18,2.02,3.61c0.21,0.42-0.5,59.4,28.08,62.94c0,0,12.3,1.13,28.57-12.45l4.14-11.46l6.47-4.56l2.97-21.11l-3.29-6.79
			c0,0-18.76-0.74-11.24,19.62l-2.13,5.62l-11.35-1.59l-3.92-2.22l-3.08,0.52l-1.06-4.88l-3.18-3.39l1.2-6.9l-2.48-13.58
			l-6.47-15.28l-4.77-4.56l-8.91-5.94l3.82-4.14l-0.42-4.24l-1.62-4.67v-2.65l-10.69-3.29c0,0-14.96-40.73-53.78-9.55
			s-9.44,37.27-9.44,37.27l8.38,1.87l0.85,3.92l-4.56,4.14l6.36,7.43l-1.17,1.8l3.23,1.96L134.42,81.67z"/>
		<path class="st2" d="M135.77,439.61c-3.84-2-8.65-4.02-14.82-5.35c-2.71-0.59-5.64-0.97-8.79-1.22c-0.07,0-0.15-0.01-0.23-0.02
			H52.94c-10.74-2.05-19.1-10.84-20.51-21.8v-6.26h-0.01v-73.87h0.01v-0.8h103.34V439.61z"/>
		<rect x="146.54" y="216.42" class="st3" width="103.17" height="103.17"/>
		<g>
			<rect x="159.95" y="216.42" class="st4" width="15.27" height="103.17"/>
			<rect x="190.33" y="216.42" class="st4" width="14.62" height="103.17"/>
			<rect x="220.07" y="216.42" class="st4" width="15.84" height="103.17"/>
		</g>
		<path class="st5" d="M121.46,392.43c-4.84-1.33-10.63,8.97-10.63,8.97v-1.21c1.75-2.91,3.39-9.35,3.39-9.35
			c0.06-0.12,0.12-0.26,0.16-0.39c0-0.01,0.01-0.02,0.01-0.03c0.04-0.13,0.08-0.26,0.11-0.4c0-0.01,0.01-0.02,0.01-0.03
			c0.03-0.14,0.05-0.27,0.07-0.42v-0.02c0.19-1.44-0.18-3.02-0.32-3.52c0,0,0-0.01,0-0.01c-0.02-0.07-0.03-0.11-0.04-0.14
			c0,0,0-0.01,0-0.01c0-0.01,0-0.02,0-0.02l-5.15-12.59l-5.15,12.59c0,0,0,0.01,0,0.02c0,0,0,0,0,0.01
			c-0.01,0.02-0.02,0.07-0.04,0.14c0,0,0,0,0,0.01c-0.13,0.5-0.5,2.08-0.32,3.52c0,0.01,0,0.01,0,0.02
			c0.02,0.14,0.04,0.28,0.07,0.42c0,0.01,0,0.02,0.01,0.03c0.03,0.13,0.07,0.26,0.11,0.4c0,0.01,0,0.02,0.01,0.03
			c0.05,0.13,0.1,0.26,0.16,0.39c0,0,1.64,6.44,3.4,9.35v1.21c0,0-5.79-10.3-10.63-8.97c-2.46,0.68-5.61,3.86-2.42,7.76
			c1.15,1.41,4.34,4.01,4.37,5.84c0,0-3.12,3.28,1.74,3.84c0.86,0.1,3.92-1.17,0.53-4.56c0,0-1.48-2.75-1.85-4.59
			c-0.14-0.73-0.45-3.18,1.57-2.52c1.1,0.36,3.29,1.84,3.37,3.2h0.37c-0.64,0-1.16,0.52-1.16,1.16c0,0.64,0.52,1.16,1.16,1.16h0.78
			c-0.64,0-1.16,0.52-1.16,1.16c0,0.64,0.52,1.16,1.16,1.16h1.79v1.16l-3.92,6.12c-0.17,0.03-0.33,0.06-0.49,0.09
			c-0.05,0.01-0.09,0.02-0.14,0.03c-0.1,0.02-0.21,0.04-0.3,0.07c-0.05,0.01-0.1,0.03-0.15,0.04c-0.09,0.02-0.17,0.04-0.25,0.07
			c-0.05,0.01-0.09,0.03-0.13,0.04c-0.08,0.03-0.15,0.05-0.23,0.08c-0.04,0.01-0.08,0.03-0.11,0.04c-0.08,0.03-0.14,0.06-0.21,0.09
			c-0.03,0.01-0.06,0.02-0.08,0.04c-0.08,0.04-0.15,0.07-0.22,0.11c-0.01,0.01-0.03,0.01-0.04,0.02c-1.87,1.04-0.47,2.58-0.47,2.58
			c2.54,2.2,3.36-1.42,3.36-1.42l4.14-4.26l-0.04,1.42c-0.13,0.1-0.24,0.2-0.35,0.31c-0.03,0.03-0.06,0.05-0.09,0.08
			c-0.1,0.1-0.2,0.2-0.29,0.3c-0.02,0.03-0.05,0.06-0.07,0.09c-0.07,0.08-0.12,0.16-0.18,0.24c-0.03,0.05-0.07,0.09-0.1,0.14
			c-0.05,0.08-0.09,0.15-0.14,0.23c-0.04,0.08-0.08,0.16-0.12,0.24c-0.02,0.05-0.04,0.09-0.06,0.14c-1.59,3.67,2.81,8.51,2.81,8.51
			s4.4-4.84,2.81-8.51c-0.02-0.05-0.04-0.09-0.06-0.14c-0.04-0.08-0.08-0.16-0.12-0.24c-0.04-0.08-0.09-0.15-0.14-0.23
			c-0.03-0.05-0.07-0.09-0.1-0.14c-0.06-0.08-0.11-0.16-0.18-0.24c-0.02-0.03-0.04-0.06-0.07-0.09c-0.09-0.1-0.19-0.2-0.29-0.3
			c-0.03-0.03-0.06-0.06-0.09-0.08c-0.11-0.1-0.23-0.21-0.36-0.31l-0.04-1.42l4.14,4.26c0,0,0.82,3.62,3.36,1.42
			c0,0,1.4-1.54-0.47-2.58c-0.01-0.01-0.03-0.01-0.04-0.02c-0.07-0.04-0.14-0.08-0.22-0.11c-0.03-0.01-0.06-0.02-0.09-0.04
			c-0.07-0.03-0.14-0.06-0.21-0.09c-0.04-0.01-0.08-0.03-0.11-0.04c-0.07-0.02-0.15-0.05-0.23-0.08c-0.04-0.01-0.09-0.03-0.13-0.04
			c-0.08-0.03-0.17-0.05-0.25-0.07c-0.05-0.01-0.1-0.03-0.15-0.04c-0.09-0.02-0.2-0.05-0.3-0.07c-0.05-0.01-0.09-0.02-0.14-0.03
			c-0.15-0.03-0.32-0.06-0.49-0.09l-3.92-6.12v-1.16h1.79c0.64,0,1.15-0.52,1.15-1.16c0-0.64-0.52-1.16-1.15-1.16h0.78
			c0.64,0,1.16-0.52,1.16-1.16c0-0.64-0.52-1.16-1.16-1.16h0.37c0.08-1.36,2.27-2.84,3.37-3.2c2.03-0.66,1.72,1.79,1.57,2.52
			c-0.37,1.84-1.85,4.59-1.85,4.59c-3.39,3.39-0.33,4.66,0.53,4.56c4.85-0.56,1.73-3.84,1.73-3.84c0.03-1.83,3.22-4.43,4.37-5.84
			C127.07,396.29,123.91,393.1,121.46,392.43z M94.44,378.8c0,0,2.28-2.5-2.84-3.28l-3.92-6.12v-1.16h1.79
			c0.64,0,1.16-0.52,1.16-1.16c0-0.64-0.52-1.16-1.16-1.16h0.78c0.64,0,1.15-0.52,1.15-1.15c0-0.64-0.52-1.16-1.15-1.16h0.37
			c0.08-1.36,2.26-2.84,3.37-3.2c2.02-0.66,1.71,1.79,1.57,2.52c-0.37,1.84-1.85,4.59-1.85,4.59c-3.39,3.39-0.33,4.66,0.53,4.57
			c4.85-0.56,1.74-3.85,1.74-3.85c0.03-1.83,3.21-4.43,4.37-5.84c3.19-3.9,0.04-7.09-2.42-7.76c-4.84-1.33-10.63,8.97-10.63,8.97
			v-1.21c1.75-2.91,3.4-9.35,3.4-9.35c0.93-1.87,0-4.96,0-4.96l-5.15-12.59l-5.15,12.59c0,0-0.93,3.1,0,4.96c0,0,1.65,6.44,3.4,9.35
			v1.21c0,0-5.79-10.3-10.63-8.97c-2.46,0.67-5.61,3.86-2.42,7.76c1.15,1.41,4.34,4.01,4.37,5.84c0,0-3.12,3.28,1.74,3.85
			c0.87,0.1,3.92-1.18,0.53-4.57c0,0-1.48-2.75-1.85-4.59c-0.15-0.73-0.46-3.18,1.57-2.52c1.11,0.36,3.29,1.84,3.37,3.2h0.37
			c-0.64,0-1.15,0.52-1.15,1.16c0,0.64,0.52,1.15,1.15,1.15h0.78c-0.64,0-1.16,0.52-1.16,1.16c0,0.64,0.52,1.16,1.16,1.16h1.79v1.16
			l-3.92,6.12c-5.12,0.78-2.84,3.28-2.84,3.28c2.54,2.2,3.36-1.42,3.36-1.42l4.14-4.26l-0.04,1.42c-4.63,3.62,1.42,10.27,1.42,10.27
			s6.05-6.65,1.42-10.27l-0.04-1.42l4.14,4.26C91.08,377.39,91.9,381.01,94.44,378.8z M71.28,392.43
			c-4.84-1.33-10.63,8.97-10.63,8.97v-1.21c1.75-2.91,3.4-9.35,3.4-9.35c0.06-0.12,0.12-0.26,0.16-0.39c0-0.01,0.01-0.02,0.01-0.03
			c0.04-0.13,0.08-0.26,0.11-0.4c0-0.01,0.01-0.02,0.01-0.03c0.03-0.14,0.05-0.27,0.07-0.42v-0.02c0.19-1.44-0.18-3.02-0.32-3.52
			c0,0,0-0.01,0-0.01c-0.02-0.07-0.03-0.11-0.04-0.14c0,0,0-0.01,0-0.01c0-0.01,0-0.02,0-0.02l-5.15-12.59l-5.15,12.59
			c0,0,0,0.01,0,0.02c0,0,0,0,0,0.01c-0.01,0.02-0.02,0.07-0.04,0.14c0,0,0,0,0,0.01c-0.13,0.5-0.5,2.08-0.32,3.52
			c0,0.01,0,0.01,0,0.02c0.02,0.14,0.04,0.28,0.07,0.42c0,0.01,0,0.02,0.01,0.03c0.03,0.13,0.07,0.26,0.11,0.4
			c0,0.01,0,0.02,0.01,0.03c0.05,0.13,0.1,0.26,0.16,0.39c0,0,1.64,6.44,3.4,9.35v1.21c0,0-5.79-10.3-10.63-8.97
			c-2.46,0.68-5.61,3.86-2.42,7.76c1.15,1.41,4.34,4.01,4.37,5.84c0,0-3.12,3.28,1.74,3.84c0.86,0.1,3.92-1.17,0.53-4.56
			c0,0-1.48-2.75-1.85-4.59c-0.15-0.73-0.45-3.18,1.57-2.52c1.1,0.36,3.29,1.84,3.37,3.2h0.37c-0.64,0-1.16,0.52-1.16,1.16
			c0,0.64,0.52,1.16,1.16,1.16h0.79c-0.64,0-1.16,0.52-1.16,1.16c0,0.64,0.52,1.16,1.16,1.16h1.79v1.16l-3.92,6.12
			c-0.17,0.03-0.33,0.06-0.49,0.09c-0.05,0.01-0.09,0.02-0.14,0.03c-0.1,0.02-0.21,0.04-0.3,0.07c-0.05,0.01-0.1,0.03-0.15,0.04
			c-0.09,0.02-0.17,0.04-0.25,0.07c-0.05,0.01-0.09,0.03-0.13,0.04c-0.08,0.03-0.15,0.05-0.23,0.08c-0.04,0.01-0.08,0.03-0.11,0.04
			c-0.08,0.03-0.14,0.06-0.21,0.09c-0.03,0.01-0.06,0.02-0.09,0.04c-0.08,0.04-0.15,0.07-0.22,0.11c-0.01,0.01-0.03,0.01-0.04,0.02
			c-0.17,0.09-0.31,0.19-0.43,0.29c-1.21,1.01-0.04,2.29-0.04,2.29c2.54,2.2,3.36-1.42,3.36-1.42l0.85-0.87l3.29-3.38l-0.04,1.42
			c-0.13,0.1-0.24,0.2-0.35,0.31c-0.03,0.03-0.06,0.05-0.09,0.08c-0.1,0.1-0.2,0.2-0.29,0.3c-0.02,0.03-0.05,0.06-0.07,0.09
			c-0.06,0.08-0.12,0.16-0.18,0.24c-0.03,0.05-0.07,0.09-0.1,0.14c-0.05,0.08-0.09,0.15-0.14,0.23c-0.04,0.08-0.08,0.16-0.12,0.24
			c-0.02,0.05-0.04,0.09-0.06,0.14c-1.59,3.67,2.81,8.51,2.81,8.51s4.4-4.84,2.81-8.51c-0.02-0.05-0.04-0.09-0.06-0.14
			c-0.04-0.08-0.08-0.16-0.12-0.24c-0.04-0.08-0.09-0.15-0.14-0.23c-0.03-0.05-0.06-0.09-0.1-0.14c-0.06-0.08-0.11-0.16-0.18-0.24
			c-0.02-0.03-0.04-0.06-0.07-0.09c-0.09-0.1-0.19-0.2-0.29-0.3c-0.03-0.03-0.06-0.06-0.09-0.08c-0.11-0.1-0.23-0.21-0.36-0.31
			l-0.04-1.42l4.14,4.26c0,0,0.82,3.62,3.36,1.42c0,0,0.5-0.56,0.5-1.22c0-0.35-0.13-0.72-0.55-1.07c-0.12-0.1-0.26-0.2-0.43-0.29
			c-0.01-0.01-0.03-0.01-0.04-0.02c-0.07-0.04-0.14-0.08-0.22-0.11c-0.03-0.01-0.06-0.02-0.09-0.04c-0.07-0.03-0.14-0.06-0.21-0.09
			c-0.04-0.01-0.08-0.03-0.11-0.04c-0.07-0.02-0.15-0.05-0.23-0.08c-0.04-0.01-0.09-0.03-0.13-0.04c-0.08-0.03-0.17-0.05-0.25-0.07
			c-0.05-0.01-0.1-0.03-0.15-0.04c-0.09-0.02-0.2-0.05-0.3-0.07c-0.05-0.01-0.09-0.02-0.14-0.03c-0.16-0.03-0.32-0.06-0.49-0.09
			l-3.92-6.12v-1.16h1.79c0.64,0,1.15-0.52,1.15-1.16c0-0.64-0.52-1.16-1.15-1.16h0.78c0.64,0,1.16-0.52,1.16-1.16
			c0-0.64-0.52-1.16-1.16-1.16h0.37c0.08-1.36,2.27-2.84,3.37-3.2c2.03-0.66,1.72,1.79,1.57,2.52c-0.37,1.84-1.85,4.59-1.85,4.59
			c-3.39,3.39-0.33,4.66,0.53,4.56c4.85-0.56,1.73-3.84,1.73-3.84c0.03-1.83,3.22-4.43,4.37-5.84
			C76.89,396.29,73.74,393.1,71.28,392.43z M97.94,354.64c-4.84-1.33-10.63,8.97-10.63,8.97v-1.21c1.75-2.91,3.4-9.35,3.4-9.35
			c0.93-1.87,0-4.96,0-4.96l-5.15-12.59l-5.15,12.59c0,0-0.93,3.1,0,4.96c0,0,1.65,6.44,3.4,9.35v1.21c0,0-5.79-10.3-10.63-8.97
			c-2.46,0.67-5.61,3.86-2.42,7.76c1.15,1.41,4.34,4.01,4.37,5.84c0,0-3.12,3.28,1.74,3.85c0.87,0.1,3.92-1.18,0.53-4.57
			c0,0-1.48-2.75-1.85-4.59c-0.15-0.73-0.46-3.18,1.57-2.52c1.11,0.36,3.29,1.84,3.37,3.2h0.37c-0.64,0-1.15,0.52-1.15,1.16
			c0,0.64,0.52,1.15,1.15,1.15h0.78c-0.64,0-1.16,0.52-1.16,1.16c0,0.64,0.52,1.16,1.16,1.16h1.79v1.16l-3.92,6.12
			c-5.12,0.78-2.84,3.28-2.84,3.28c2.54,2.2,3.36-1.42,3.36-1.42l4.14-4.26l-0.04,1.42c-4.63,3.62,1.42,10.27,1.42,10.27
			s6.05-6.65,1.42-10.27l-0.04-1.42l4.14,4.26c0,0,0.82,3.62,3.36,1.42c0,0,2.28-2.5-2.84-3.28l-3.92-6.12v-1.16h1.79
			c0.64,0,1.16-0.52,1.16-1.16c0-0.64-0.52-1.16-1.16-1.16h0.78c0.64,0,1.15-0.52,1.15-1.15c0-0.64-0.52-1.16-1.15-1.16h0.37
			c0.08-1.36,2.26-2.84,3.37-3.2c2.02-0.66,1.71,1.79,1.57,2.52c-0.37,1.84-1.85,4.59-1.85,4.59c-3.39,3.39-0.33,4.66,0.53,4.57
			c4.85-0.56,1.74-3.85,1.74-3.85c0.03-1.83,3.21-4.43,4.37-5.84C103.55,358.5,100.4,355.31,97.94,354.64z M71.28,392.43
			c-4.84-1.33-10.63,8.97-10.63,8.97v-1.21c1.75-2.91,3.4-9.35,3.4-9.35c0.06-0.12,0.12-0.26,0.16-0.39c0-0.01,0.01-0.02,0.01-0.03
			c0.04-0.13,0.08-0.26,0.11-0.4c0-0.01,0.01-0.02,0.01-0.03c0.03-0.14,0.05-0.27,0.07-0.42v-0.02c0.19-1.44-0.18-3.02-0.32-3.52
			c0,0,0-0.01,0-0.01c-0.02-0.07-0.03-0.11-0.04-0.14c0,0,0-0.01,0-0.01c0-0.01,0-0.02,0-0.02l-5.15-12.59l-5.15,12.59
			c0,0,0,0.01,0,0.02c0,0,0,0,0,0.01c-0.01,0.02-0.02,0.07-0.04,0.14c0,0,0,0,0,0.01c-0.13,0.5-0.5,2.08-0.32,3.52
			c0,0.01,0,0.01,0,0.02c0.02,0.14,0.04,0.28,0.07,0.42c0,0.01,0,0.02,0.01,0.03c0.03,0.13,0.07,0.26,0.11,0.4
			c0,0.01,0,0.02,0.01,0.03c0.05,0.13,0.1,0.26,0.16,0.39c0,0,1.64,6.44,3.4,9.35v1.21c0,0-5.79-10.3-10.63-8.97
			c-2.46,0.68-5.61,3.86-2.42,7.76c1.15,1.41,4.34,4.01,4.37,5.84c0,0-3.12,3.28,1.74,3.84c0.86,0.1,3.92-1.17,0.53-4.56
			c0,0-1.48-2.75-1.85-4.59c-0.15-0.73-0.45-3.18,1.57-2.52c1.1,0.36,3.29,1.84,3.37,3.2h0.37c-0.64,0-1.16,0.52-1.16,1.16
			c0,0.64,0.52,1.16,1.16,1.16h0.79c-0.64,0-1.16,0.52-1.16,1.16c0,0.64,0.52,1.16,1.16,1.16h1.79v1.16l-3.92,6.12
			c-0.17,0.03-0.33,0.06-0.49,0.09c-0.05,0.01-0.09,0.02-0.14,0.03c-0.1,0.02-0.21,0.04-0.3,0.07c-0.05,0.01-0.1,0.03-0.15,0.04
			c-0.09,0.02-0.17,0.04-0.25,0.07c-0.05,0.01-0.09,0.03-0.13,0.04c-0.08,0.03-0.15,0.05-0.23,0.08c-0.04,0.01-0.08,0.03-0.11,0.04
			c-0.08,0.03-0.14,0.06-0.21,0.09c-0.03,0.01-0.06,0.02-0.09,0.04c-0.08,0.04-0.15,0.07-0.22,0.11c-0.01,0.01-0.03,0.01-0.04,0.02
			c-0.17,0.09-0.31,0.19-0.43,0.29c-1.21,1.01-0.04,2.29-0.04,2.29c2.54,2.2,3.36-1.42,3.36-1.42l0.85-0.87l3.29-3.38l-0.04,1.42
			c-0.13,0.1-0.24,0.2-0.35,0.31c-0.03,0.03-0.06,0.05-0.09,0.08c-0.1,0.1-0.2,0.2-0.29,0.3c-0.02,0.03-0.05,0.06-0.07,0.09
			c-0.06,0.08-0.12,0.16-0.18,0.24c-0.03,0.05-0.07,0.09-0.1,0.14c-0.05,0.08-0.09,0.15-0.14,0.23c-0.04,0.08-0.08,0.16-0.12,0.24
			c-0.02,0.05-0.04,0.09-0.06,0.14c-1.59,3.67,2.81,8.51,2.81,8.51s4.4-4.84,2.81-8.51c-0.02-0.05-0.04-0.09-0.06-0.14
			c-0.04-0.08-0.08-0.16-0.12-0.24c-0.04-0.08-0.09-0.15-0.14-0.23c-0.03-0.05-0.06-0.09-0.1-0.14c-0.06-0.08-0.11-0.16-0.18-0.24
			c-0.02-0.03-0.04-0.06-0.07-0.09c-0.09-0.1-0.19-0.2-0.29-0.3c-0.03-0.03-0.06-0.06-0.09-0.08c-0.11-0.1-0.23-0.21-0.36-0.31
			l-0.04-1.42l4.14,4.26c0,0,0.82,3.62,3.36,1.42c0,0,0.5-0.56,0.5-1.22c0-0.35-0.13-0.72-0.55-1.07c-0.12-0.1-0.26-0.2-0.43-0.29
			c-0.01-0.01-0.03-0.01-0.04-0.02c-0.07-0.04-0.14-0.08-0.22-0.11c-0.03-0.01-0.06-0.02-0.09-0.04c-0.07-0.03-0.14-0.06-0.21-0.09
			c-0.04-0.01-0.08-0.03-0.11-0.04c-0.07-0.02-0.15-0.05-0.23-0.08c-0.04-0.01-0.09-0.03-0.13-0.04c-0.08-0.03-0.17-0.05-0.25-0.07
			c-0.05-0.01-0.1-0.03-0.15-0.04c-0.09-0.02-0.2-0.05-0.3-0.07c-0.05-0.01-0.09-0.02-0.14-0.03c-0.16-0.03-0.32-0.06-0.49-0.09
			l-3.92-6.12v-1.16h1.79c0.64,0,1.15-0.52,1.15-1.16c0-0.64-0.52-1.16-1.15-1.16h0.78c0.64,0,1.16-0.52,1.16-1.16
			c0-0.64-0.52-1.16-1.16-1.16h0.37c0.08-1.36,2.27-2.84,3.37-3.2c2.03-0.66,1.72,1.79,1.57,2.52c-0.37,1.84-1.85,4.59-1.85,4.59
			c-3.39,3.39-0.33,4.66,0.53,4.56c4.85-0.56,1.73-3.84,1.73-3.84c0.03-1.83,3.22-4.43,4.37-5.84
			C76.89,396.29,73.74,393.1,71.28,392.43z M121.46,392.43c-4.84-1.33-10.63,8.97-10.63,8.97v-1.21c1.75-2.91,3.39-9.35,3.39-9.35
			c0.06-0.12,0.12-0.26,0.16-0.39c0-0.01,0.01-0.02,0.01-0.03c0.04-0.13,0.08-0.26,0.11-0.4c0-0.01,0.01-0.02,0.01-0.03
			c0.03-0.14,0.05-0.27,0.07-0.42v-0.02c0.19-1.44-0.18-3.02-0.32-3.52c0,0,0-0.01,0-0.01c-0.02-0.07-0.03-0.11-0.04-0.14
			c0,0,0-0.01,0-0.01c0-0.01,0-0.02,0-0.02l-5.15-12.59l-5.15,12.59c0,0,0,0.01,0,0.02c0,0,0,0,0,0.01
			c-0.01,0.02-0.02,0.07-0.04,0.14c0,0,0,0,0,0.01c-0.13,0.5-0.5,2.08-0.32,3.52c0,0.01,0,0.01,0,0.02
			c0.02,0.14,0.04,0.28,0.07,0.42c0,0.01,0,0.02,0.01,0.03c0.03,0.13,0.07,0.26,0.11,0.4c0,0.01,0,0.02,0.01,0.03
			c0.05,0.13,0.1,0.26,0.16,0.39c0,0,1.64,6.44,3.4,9.35v1.21c0,0-5.79-10.3-10.63-8.97c-2.46,0.68-5.61,3.86-2.42,7.76
			c1.15,1.41,4.34,4.01,4.37,5.84c0,0-3.12,3.28,1.74,3.84c0.86,0.1,3.92-1.17,0.53-4.56c0,0-1.48-2.75-1.85-4.59
			c-0.14-0.73-0.45-3.18,1.57-2.52c1.1,0.36,3.29,1.84,3.37,3.2h0.37c-0.64,0-1.16,0.52-1.16,1.16c0,0.64,0.52,1.16,1.16,1.16h0.78
			c-0.64,0-1.16,0.52-1.16,1.16c0,0.64,0.52,1.16,1.16,1.16h1.79v1.16l-3.92,6.12c-0.17,0.03-0.33,0.06-0.49,0.09
			c-0.05,0.01-0.09,0.02-0.14,0.03c-0.1,0.02-0.21,0.04-0.3,0.07c-0.05,0.01-0.1,0.03-0.15,0.04c-0.09,0.02-0.17,0.04-0.25,0.07
			c-0.05,0.01-0.09,0.03-0.13,0.04c-0.08,0.03-0.15,0.05-0.23,0.08c-0.04,0.01-0.08,0.03-0.11,0.04c-0.08,0.03-0.14,0.06-0.21,0.09
			c-0.03,0.01-0.06,0.02-0.08,0.04c-0.08,0.04-0.15,0.07-0.22,0.11c-0.01,0.01-0.03,0.01-0.04,0.02c-1.87,1.04-0.47,2.58-0.47,2.58
			c2.54,2.2,3.36-1.42,3.36-1.42l4.14-4.26l-0.04,1.42c-0.13,0.1-0.24,0.2-0.35,0.31c-0.03,0.03-0.06,0.05-0.09,0.08
			c-0.1,0.1-0.2,0.2-0.29,0.3c-0.02,0.03-0.05,0.06-0.07,0.09c-0.07,0.08-0.12,0.16-0.18,0.24c-0.03,0.05-0.07,0.09-0.1,0.14
			c-0.05,0.08-0.09,0.15-0.14,0.23c-0.04,0.08-0.08,0.16-0.12,0.24c-0.02,0.05-0.04,0.09-0.06,0.14c-1.59,3.67,2.81,8.51,2.81,8.51
			s4.4-4.84,2.81-8.51c-0.02-0.05-0.04-0.09-0.06-0.14c-0.04-0.08-0.08-0.16-0.12-0.24c-0.04-0.08-0.09-0.15-0.14-0.23
			c-0.03-0.05-0.07-0.09-0.1-0.14c-0.06-0.08-0.11-0.16-0.18-0.24c-0.02-0.03-0.04-0.06-0.07-0.09c-0.09-0.1-0.19-0.2-0.29-0.3
			c-0.03-0.03-0.06-0.06-0.09-0.08c-0.11-0.1-0.23-0.21-0.36-0.31l-0.04-1.42l4.14,4.26c0,0,0.82,3.62,3.36,1.42
			c0,0,1.4-1.54-0.47-2.58c-0.01-0.01-0.03-0.01-0.04-0.02c-0.07-0.04-0.14-0.08-0.22-0.11c-0.03-0.01-0.06-0.02-0.09-0.04
			c-0.07-0.03-0.14-0.06-0.21-0.09c-0.04-0.01-0.08-0.03-0.11-0.04c-0.07-0.02-0.15-0.05-0.23-0.08c-0.04-0.01-0.09-0.03-0.13-0.04
			c-0.08-0.03-0.17-0.05-0.25-0.07c-0.05-0.01-0.1-0.03-0.15-0.04c-0.09-0.02-0.2-0.05-0.3-0.07c-0.05-0.01-0.09-0.02-0.14-0.03
			c-0.15-0.03-0.32-0.06-0.49-0.09l-3.92-6.12v-1.16h1.79c0.64,0,1.15-0.52,1.15-1.16c0-0.64-0.52-1.16-1.15-1.16h0.78
			c0.64,0,1.16-0.52,1.16-1.16c0-0.64-0.52-1.16-1.16-1.16h0.37c0.08-1.36,2.27-2.84,3.37-3.2c2.03-0.66,1.72,1.79,1.57,2.52
			c-0.37,1.84-1.85,4.59-1.85,4.59c-3.39,3.39-0.33,4.66,0.53,4.56c4.85-0.56,1.73-3.84,1.73-3.84c0.03-1.83,3.22-4.43,4.37-5.84
			C127.07,396.29,123.91,393.1,121.46,392.43z M121.46,392.43c-4.84-1.33-10.63,8.97-10.63,8.97v-1.21
			c1.75-2.91,3.39-9.35,3.39-9.35c0.06-0.12,0.12-0.26,0.16-0.39c0-0.01,0.01-0.02,0.01-0.03c0.04-0.13,0.08-0.26,0.11-0.4
			c0-0.01,0.01-0.02,0.01-0.03c0.03-0.14,0.05-0.27,0.07-0.42v-0.02c0.19-1.44-0.18-3.02-0.32-3.52c0,0,0-0.01,0-0.01
			c-0.02-0.07-0.03-0.11-0.04-0.14c0,0,0-0.01,0-0.01c0-0.01,0-0.02,0-0.02l-5.15-12.59l-5.15,12.59c0,0,0,0.01,0,0.02
			c0,0,0,0,0,0.01c-0.01,0.02-0.02,0.07-0.04,0.14c0,0,0,0,0,0.01c-0.13,0.5-0.5,2.08-0.32,3.52c0,0.01,0,0.01,0,0.02
			c0.02,0.14,0.04,0.28,0.07,0.42c0,0.01,0,0.02,0.01,0.03c0.03,0.13,0.07,0.26,0.11,0.4c0,0.01,0,0.02,0.01,0.03
			c0.05,0.13,0.1,0.26,0.16,0.39c0,0,1.64,6.44,3.4,9.35v1.21c0,0-5.79-10.3-10.63-8.97c-2.46,0.68-5.61,3.86-2.42,7.76
			c1.15,1.41,4.34,4.01,4.37,5.84c0,0-3.12,3.28,1.74,3.84c0.86,0.1,3.92-1.17,0.53-4.56c0,0-1.48-2.75-1.85-4.59
			c-0.14-0.73-0.45-3.18,1.57-2.52c1.1,0.36,3.29,1.84,3.37,3.2h0.37c-0.64,0-1.16,0.52-1.16,1.16c0,0.64,0.52,1.16,1.16,1.16h0.78
			c-0.64,0-1.16,0.52-1.16,1.16c0,0.64,0.52,1.16,1.16,1.16h1.79v1.16l-3.92,6.12c-0.17,0.03-0.33,0.06-0.49,0.09
			c-0.05,0.01-0.09,0.02-0.14,0.03c-0.1,0.02-0.21,0.04-0.3,0.07c-0.05,0.01-0.1,0.03-0.15,0.04c-0.09,0.02-0.17,0.04-0.25,0.07
			c-0.05,0.01-0.09,0.03-0.13,0.04c-0.08,0.03-0.15,0.05-0.23,0.08c-0.04,0.01-0.08,0.03-0.11,0.04c-0.08,0.03-0.14,0.06-0.21,0.09
			c-0.03,0.01-0.06,0.02-0.08,0.04c-0.08,0.04-0.15,0.07-0.22,0.11c-0.01,0.01-0.03,0.01-0.04,0.02c-1.87,1.04-0.47,2.58-0.47,2.58
			c2.54,2.2,3.36-1.42,3.36-1.42l4.14-4.26l-0.04,1.42c-0.13,0.1-0.24,0.2-0.35,0.31c-0.03,0.03-0.06,0.05-0.09,0.08
			c-0.1,0.1-0.2,0.2-0.29,0.3c-0.02,0.03-0.05,0.06-0.07,0.09c-0.07,0.08-0.12,0.16-0.18,0.24c-0.03,0.05-0.07,0.09-0.1,0.14
			c-0.05,0.08-0.09,0.15-0.14,0.23c-0.04,0.08-0.08,0.16-0.12,0.24c-0.02,0.05-0.04,0.09-0.06,0.14c-1.59,3.67,2.81,8.51,2.81,8.51
			s4.4-4.84,2.81-8.51c-0.02-0.05-0.04-0.09-0.06-0.14c-0.04-0.08-0.08-0.16-0.12-0.24c-0.04-0.08-0.09-0.15-0.14-0.23
			c-0.03-0.05-0.07-0.09-0.1-0.14c-0.06-0.08-0.11-0.16-0.18-0.24c-0.02-0.03-0.04-0.06-0.07-0.09c-0.09-0.1-0.19-0.2-0.29-0.3
			c-0.03-0.03-0.06-0.06-0.09-0.08c-0.11-0.1-0.23-0.21-0.36-0.31l-0.04-1.42l4.14,4.26c0,0,0.82,3.62,3.36,1.42
			c0,0,1.4-1.54-0.47-2.58c-0.01-0.01-0.03-0.01-0.04-0.02c-0.07-0.04-0.14-0.08-0.22-0.11c-0.03-0.01-0.06-0.02-0.09-0.04
			c-0.07-0.03-0.14-0.06-0.21-0.09c-0.04-0.01-0.08-0.03-0.11-0.04c-0.07-0.02-0.15-0.05-0.23-0.08c-0.04-0.01-0.09-0.03-0.13-0.04
			c-0.08-0.03-0.17-0.05-0.25-0.07c-0.05-0.01-0.1-0.03-0.15-0.04c-0.09-0.02-0.2-0.05-0.3-0.07c-0.05-0.01-0.09-0.02-0.14-0.03
			c-0.15-0.03-0.32-0.06-0.49-0.09l-3.92-6.12v-1.16h1.79c0.64,0,1.15-0.52,1.15-1.16c0-0.64-0.52-1.16-1.15-1.16h0.78
			c0.64,0,1.16-0.52,1.16-1.16c0-0.64-0.52-1.16-1.16-1.16h0.37c0.08-1.36,2.27-2.84,3.37-3.2c2.03-0.66,1.72,1.79,1.57,2.52
			c-0.37,1.84-1.85,4.59-1.85,4.59c-3.39,3.39-0.33,4.66,0.53,4.56c4.85-0.56,1.73-3.84,1.73-3.84c0.03-1.83,3.22-4.43,4.37-5.84
			C127.07,396.29,123.91,393.1,121.46,392.43z M94.44,378.8c0,0,2.28-2.5-2.84-3.28l-3.92-6.12v-1.16h1.79
			c0.64,0,1.16-0.52,1.16-1.16c0-0.64-0.52-1.16-1.16-1.16h0.78c0.64,0,1.15-0.52,1.15-1.15c0-0.64-0.52-1.16-1.15-1.16h0.37
			c0.08-1.36,2.26-2.84,3.37-3.2c2.02-0.66,1.71,1.79,1.57,2.52c-0.37,1.84-1.85,4.59-1.85,4.59c-3.39,3.39-0.33,4.66,0.53,4.57
			c4.85-0.56,1.74-3.85,1.74-3.85c0.03-1.83,3.21-4.43,4.37-5.84c3.19-3.9,0.04-7.09-2.42-7.76c-4.84-1.33-10.63,8.97-10.63,8.97
			v-1.21c1.75-2.91,3.4-9.35,3.4-9.35c0.93-1.87,0-4.96,0-4.96l-5.15-12.59l-5.15,12.59c0,0-0.93,3.1,0,4.96c0,0,1.65,6.44,3.4,9.35
			v1.21c0,0-5.79-10.3-10.63-8.97c-2.46,0.67-5.61,3.86-2.42,7.76c1.15,1.41,4.34,4.01,4.37,5.84c0,0-3.12,3.28,1.74,3.85
			c0.87,0.1,3.92-1.18,0.53-4.57c0,0-1.48-2.75-1.85-4.59c-0.15-0.73-0.46-3.18,1.57-2.52c1.11,0.36,3.29,1.84,3.37,3.2h0.37
			c-0.64,0-1.15,0.52-1.15,1.16c0,0.64,0.52,1.15,1.15,1.15h0.78c-0.64,0-1.16,0.52-1.16,1.16c0,0.64,0.52,1.16,1.16,1.16h1.79v1.16
			l-3.92,6.12c-5.12,0.78-2.84,3.28-2.84,3.28c2.54,2.2,3.36-1.42,3.36-1.42l4.14-4.26l-0.04,1.42c-4.63,3.62,1.42,10.27,1.42,10.27
			s6.05-6.65,1.42-10.27l-0.04-1.42l4.14,4.26C91.08,377.39,91.9,381.01,94.44,378.8z M71.28,392.43
			c-4.84-1.33-10.63,8.97-10.63,8.97v-1.21c1.75-2.91,3.4-9.35,3.4-9.35c0.06-0.12,0.12-0.26,0.16-0.39c0-0.01,0.01-0.02,0.01-0.03
			c0.04-0.13,0.08-0.26,0.11-0.4c0-0.01,0.01-0.02,0.01-0.03c0.03-0.14,0.05-0.27,0.07-0.42v-0.02c0.19-1.44-0.18-3.02-0.32-3.52
			c0,0,0-0.01,0-0.01c-0.02-0.07-0.03-0.11-0.04-0.14c0,0,0-0.01,0-0.01c0-0.01,0-0.02,0-0.02l-5.15-12.59l-5.15,12.59
			c0,0,0,0.01,0,0.02c0,0,0,0,0,0.01c-0.01,0.02-0.02,0.07-0.04,0.14c0,0,0,0,0,0.01c-0.13,0.5-0.5,2.08-0.32,3.52
			c0,0.01,0,0.01,0,0.02c0.02,0.14,0.04,0.28,0.07,0.42c0,0.01,0,0.02,0.01,0.03c0.03,0.13,0.07,0.26,0.11,0.4
			c0,0.01,0,0.02,0.01,0.03c0.05,0.13,0.1,0.26,0.16,0.39c0,0,1.64,6.44,3.4,9.35v1.21c0,0-5.79-10.3-10.63-8.97
			c-2.46,0.68-5.61,3.86-2.42,7.76c1.15,1.41,4.34,4.01,4.37,5.84c0,0-3.12,3.28,1.74,3.84c0.86,0.1,3.92-1.17,0.53-4.56
			c0,0-1.48-2.75-1.85-4.59c-0.15-0.73-0.45-3.18,1.57-2.52c1.1,0.36,3.29,1.84,3.37,3.2h0.37c-0.64,0-1.16,0.52-1.16,1.16
			c0,0.64,0.52,1.16,1.16,1.16h0.79c-0.64,0-1.16,0.52-1.16,1.16c0,0.64,0.52,1.16,1.16,1.16h1.79v1.16l-3.92,6.12
			c-0.17,0.03-0.33,0.06-0.49,0.09c-0.05,0.01-0.09,0.02-0.14,0.03c-0.1,0.02-0.21,0.04-0.3,0.07c-0.05,0.01-0.1,0.03-0.15,0.04
			c-0.09,0.02-0.17,0.04-0.25,0.07c-0.05,0.01-0.09,0.03-0.13,0.04c-0.08,0.03-0.15,0.05-0.23,0.08c-0.04,0.01-0.08,0.03-0.11,0.04
			c-0.08,0.03-0.14,0.06-0.21,0.09c-0.03,0.01-0.06,0.02-0.09,0.04c-0.08,0.04-0.15,0.07-0.22,0.11c-0.01,0.01-0.03,0.01-0.04,0.02
			c-0.17,0.09-0.31,0.19-0.43,0.29c-1.21,1.01-0.04,2.29-0.04,2.29c2.54,2.2,3.36-1.42,3.36-1.42l0.85-0.87l3.29-3.38l-0.04,1.42
			c-0.13,0.1-0.24,0.2-0.35,0.31c-0.03,0.03-0.06,0.05-0.09,0.08c-0.1,0.1-0.2,0.2-0.29,0.3c-0.02,0.03-0.05,0.06-0.07,0.09
			c-0.06,0.08-0.12,0.16-0.18,0.24c-0.03,0.05-0.07,0.09-0.1,0.14c-0.05,0.08-0.09,0.15-0.14,0.23c-0.04,0.08-0.08,0.16-0.12,0.24
			c-0.02,0.05-0.04,0.09-0.06,0.14c-1.59,3.67,2.81,8.51,2.81,8.51s4.4-4.84,2.81-8.51c-0.02-0.05-0.04-0.09-0.06-0.14
			c-0.04-0.08-0.08-0.16-0.12-0.24c-0.04-0.08-0.09-0.15-0.14-0.23c-0.03-0.05-0.06-0.09-0.1-0.14c-0.06-0.08-0.11-0.16-0.18-0.24
			c-0.02-0.03-0.04-0.06-0.07-0.09c-0.09-0.1-0.19-0.2-0.29-0.3c-0.03-0.03-0.06-0.06-0.09-0.08c-0.11-0.1-0.23-0.21-0.36-0.31
			l-0.04-1.42l4.14,4.26c0,0,0.82,3.62,3.36,1.42c0,0,0.5-0.56,0.5-1.22c0-0.35-0.13-0.72-0.55-1.07c-0.12-0.1-0.26-0.2-0.43-0.29
			c-0.01-0.01-0.03-0.01-0.04-0.02c-0.07-0.04-0.14-0.08-0.22-0.11c-0.03-0.01-0.06-0.02-0.09-0.04c-0.07-0.03-0.14-0.06-0.21-0.09
			c-0.04-0.01-0.08-0.03-0.11-0.04c-0.07-0.02-0.15-0.05-0.23-0.08c-0.04-0.01-0.09-0.03-0.13-0.04c-0.08-0.03-0.17-0.05-0.25-0.07
			c-0.05-0.01-0.1-0.03-0.15-0.04c-0.09-0.02-0.2-0.05-0.3-0.07c-0.05-0.01-0.09-0.02-0.14-0.03c-0.16-0.03-0.32-0.06-0.49-0.09
			l-3.92-6.12v-1.16h1.79c0.64,0,1.15-0.52,1.15-1.16c0-0.64-0.52-1.16-1.15-1.16h0.78c0.64,0,1.16-0.52,1.16-1.16
			c0-0.64-0.52-1.16-1.16-1.16h0.37c0.08-1.36,2.27-2.84,3.37-3.2c2.03-0.66,1.72,1.79,1.57,2.52c-0.37,1.84-1.85,4.59-1.85,4.59
			c-3.39,3.39-0.33,4.66,0.53,4.56c4.85-0.56,1.73-3.84,1.73-3.84c0.03-1.83,3.22-4.43,4.37-5.84
			C76.89,396.29,73.74,393.1,71.28,392.43z"/>
		<path class="st6" d="M253.32,205.72H28.7c-3.92,0-7.09,3.18-7.09,7.09v196.1c0,3.41,0.49,6.7,1.4,9.81
			c1.48,5.03,4.06,9.59,7.46,13.4l0.02,0.02l2.72,2.73l0.01,0.01c6.16,5.5,14.29,8.85,23.2,8.85h54.84
			c15.27,1.19,25.88,10.06,26.03,10.2l3.7,3.28l3.58-3.47c0.43-0.43,9.6-8.89,27.64-10.02h53.35c8.91,0,17.05-3.35,23.2-8.85
			l0.01-0.01l2.73-2.73l0.02-0.02c3.41-3.81,5.99-8.36,7.47-13.4c0.91-3.11,1.4-6.4,1.4-9.81V212.8
			C260.41,208.89,257.24,205.72,253.32,205.72z M32.32,216.42h103.34v103.17H32.32V216.42z M135.77,439.61
			c-3.84-2-8.65-4.02-14.82-5.35c-2.71-0.59-5.64-0.97-8.79-1.22c-0.07,0-0.15-0.01-0.23-0.02H52.94
			c-10.74-2.05-19.1-10.84-20.51-21.8v-6.26h-0.01v-73.87h0.01v-0.8h103.34V439.61z M249.7,404.95L249.7,404.95l-0.01,6.26
			c-1.41,10.96-9.77,19.75-20.51,21.8H170.2c-0.08,0.01-0.15,0.02-0.23,0.02c-3.15,0.25-6.07,0.64-8.78,1.22
			c-6.17,1.32-10.98,3.35-14.82,5.35V330.29H249.7v0.8h0.01V404.95z M249.7,319.59H146.36V216.42H249.7V319.59z"/>
		<g>
			<path class="st7" d="M216.08,354.29h-3.96v-4.36h-5.5v4.36h-5.39v-4.36h-5.5v4.36h-5.53v-4.36h-5.5v4.36h-3.82
				c-1.44,0-2.6,1.17-2.6,2.6s1.17,2.6,2.6,2.6h35.21c1.44,0,2.6-1.17,2.6-2.6S217.52,354.29,216.08,354.29z"/>
			<g>
				<path class="st7" d="M227.42,403.67c-0.91-1.11-2.49-1.33-3.54-0.47l-0.17,0.14c-1.5-2.47-4.48-7.72-5.94-12.7
					c-4.44-15.12-4.01-25.96-4.01-25.96h-30.41c0,0,0.43,10.83-4.01,25.96c-1.49,5.09-4.56,10.45-6.03,12.85l-0.35-0.29
					c-1.05-0.85-2.63-0.64-3.54,0.47c-0.91,1.11-0.79,2.71,0.25,3.56l15.02,12.24l0.04-0.05v0.05h27.43v0l0,0l15.02-12.24
					C228.21,406.38,228.32,404.78,227.42,403.67z M190.99,414.26l2.72-15.53h9.53l2.72,15.53H190.99z"/>
			</g>
		</g>
		<g>
			<path class="st7" d="M106.61,237.59h-3.96v-4.36h-5.5v4.36h-5.39v-4.36h-5.5v4.36h-5.53v-4.36h-5.5v4.36H71.4
				c-1.44,0-2.6,1.17-2.6,2.6s1.17,2.6,2.6,2.6h35.21c1.44,0,2.6-1.17,2.6-2.6S108.05,237.59,106.61,237.59z"/>
			<g>
				<path class="st7" d="M117.94,286.97c-0.91-1.11-2.49-1.33-3.54-0.47l-0.17,0.14c-1.5-2.47-4.48-7.72-5.94-12.7
					c-4.44-15.12-4.01-25.96-4.01-25.96H73.86c0,0,0.43,10.83-4.01,25.96c-1.49,5.09-4.56,10.45-6.03,12.85l-0.35-0.29
					c-1.05-0.85-2.63-0.64-3.54,0.47c-0.91,1.11-0.79,2.71,0.25,3.56l15.02,12.24l0.04-0.05v0.05h27.43v0l0,0l15.02-12.24
					C118.74,289.68,118.85,288.08,117.94,286.97z M81.52,297.57l2.72-15.53h9.53l2.72,15.53H81.52z"/>
			</g>
		</g>
		<rect x="95.66" y="205.63" class="st1" width="28.11" height="0.09"/>
		<path class="st1" d="M114.64,433.02v0.14c-0.4-0.05-0.8-0.1-1.21-0.14H114.64z"/>
		<path class="st1" d="M170.19,433.02c-0.08,0.01-0.15,0.01-0.23,0.02v-0.02H170.19z"/>
		<path class="st8" d="M194.32,135.44c1.66,1.57,5.98,4.69,10.56,6.38c1.71,0.63,3.72,1.08,5.96,1.08c4.22,0,10.49-2.53,16.63-7.81
			c2.24,0.32,5.55,0.32,8.19-1.56c3-2.14,4.5-6.19,4.48-12.05l0-0.49l0.47,0.13c0.03,0.01,2.62,0.73,5.25-1.13
			c3.33-2.36,5.32-7.86,5.75-15.89c-0.05-0.21-1.4-7.22-0.01-12.57c-0.07-0.62-0.74-5.82-4.32-8.21c-1.94-1.29-4.4-1.56-7.34-0.8
			c-0.27,0.11-5.13,1.56-7.56,8.36c-1.53,4.28-1.11,9.15,1.21,14.52c-1.44,0.02-3.19,0.31-4.21,1.48c0,0-1,0.88-1.38,1.1
			c-0.42,0.25-1.14,0.48-1.9,0.4c-1.09-0.11-1.81-0.45-2.84-1.56c-0.13-0.18-1.86-3.67-6.21-2.19l-0.97,0.5l0.32-1.21
			c0.01-0.05,1.17-3.13-0.77-5.32c-0.5-0.57-1.9-1.45-2.63-1.48l-1.08-0.29l0.14-0.45c0.04-0.14,5.33-13.85-2.88-21.72l-0.14-0.13
			l0.03-0.19c0.02-0.14,2.3-15.42-13.58-20.12c-0.14-0.09-2.37-1.56-2.17-3.25c0.11-0.95,0.94-1.73,2.47-2.32
			c0.03-0.72-0.1-3.3-3.04-6.44l-0.14-0.15l0.05-0.2c0.31-1.13,1.06-3.57,2.01-4.15c-0.15-0.85-0.45-1.95-0.72-2.2
			c-1.38-1.26-6.42-1.76-8.25-1.85l-0.16-0.05c-0.04-0.02-3.21-1.81-6.68-4.46c-4.52-10.3-11.21-17.05-19.53-18.87
			c-14.75-3.22-30.38,8.28-34.89,11.95c-0.52-0.1-0.98-0.29-1.27-0.59c-0.72-0.73-0.44-3.03-0.22-4.24
			c-3.61,1.5-22.1,10.16-20.7,29.64c-0.03,0.71-0.35,16.4,20.69,17.46l2.36,0.12l-2.28,0.59c-2.85,0.74-7.44,2.44-7.58,3.86
			c-0.24,2.43,7,6.48,9.81,7.84l0.37,0.18l-0.22,0.34c-0.04,0.06-0.98,1.49-2.46,1.74c-0.81,0.14-1.59-0.09-2.35-0.68
			c-1.05-0.81-1.46-0.72-1.54-0.67c-0.14,0.07-0.2,0.29-0.22,0.46c0.66,0.54,3.73,2.85,6.51,2l0.15-0.04l2.55,1.41l0.78,0.6
			l6.4,0.12l-0.81-0.77c-3.14-2.68-8.11-8.5-5.06-16.74c-2.48-4.14-5.46-8.49-6.2-8.71l-0.13-0.07c-0.04-0.03-0.99-0.86-0.84-2.13
			c0.14-1.2,1.2-2.33,3.14-3.36l-0.15-5.42c-0.68-0.37-2.83-1.69-3.03-3.99c-0.2-2.29,1.58-4.76,5.29-7.35l-0.26-8.77
			c4.42-3.51,18.68-13.75,31.35-10.98c7.02,1.53,12.85,7.14,16.84,16.23l0,0l-0.03,2.05l-0.47-0.15c-0.07-0.02-6.63-2.06-8.28,1.23
			l-0.27,0.54l-0.35-0.49c-0.07-0.09-6.77-9.33-14.58-6.7c-7.91,2.66-11.83,13.64-11.86,13.75c-0.02,0.09-2.93,11.45-1.66,14.19
			l0.82,1.78l-5.96-5.79c-0.33,1.69-1.09,6.4,0.2,9.59c1.55,3.83,3.97,4.49,3.99,4.49l0.28,0.07l-0.08,6.29
			c0.17,0.04,0.49-0.02,0.98-0.4c1.04-0.82,3.44-4.28,3.46-4.32l0.23-0.34l0.31,0.27c0.11,0.1,2.69,2.44,0.09,7.58
			c-1.67,3.29-3.4,6.39-4.45,8.23l-0.14,0.18l1.59,0.25l0.1-0.11c0.58-0.35,3.21-1.9,5.22-3.11c0,0,3.5-1.99,5.5-2.13
			c0.13-0.04,0.27-0.07,0.42-0.07c0.59-0.02,1.08,0.17,1.58,0.39c2.86,0.39,7.07,2.31,11.67,8.98c0.23,0.23,0.6,0.48,0.73,0.48
			c0,0,0,0,0,0c-0.01-0.02,0.07-0.21-0.03-0.87c-0.39-0.79-2.81-5.79-1.78-7.82c0.24-0.47,0.65-0.77,1.19-0.86l0.1-0.02l0.1,0.04
			c0.37,0.16,8.63,3.75,10.92,9.55L178.17,76l-0.06,2.69c-0.01,0.42,1.91,39.41,10.1,49.87
			C190.22,131.13,192.74,133.95,194.32,135.44z M144.17,60.2c-0.28,0.8-0.6,1.8-0.87,2.75l-0.09,0.3l-0.31-0.04
			c-0.07-0.01-1.82-0.27-2.53-1.47c-0.36-0.62-0.38-1.36-0.05-2.2c0.92-2.37,6.04-6.3,7.72-7.55c-1.02-0.51-2.96-1.91-3.51-5.27
			l-0.09-0.55l12.05,3.09l0.32,11.17l-0.54-0.25c-0.2-0.1-4.6-2.2-6.04-4.8l-3.79,8.07l-0.16,0.05c-0.01,0-0.15,0.04-0.36,0.04
			c-0.27,0-0.66-0.07-1.01-0.37C144.32,62.64,144.07,61.65,144.17,60.2z M195.7,123.13c0.54-6.6,6.46-11.69,6.72-11.9l0.49-0.42
			l0.1,0.63c1.84,11.26,5.04,17.46,9.53,18.44c6.85,1.49,14.47-9.72,14.55-9.84l0.5-0.75l0.15,0.89c0.48,2.76,0.37,5.56-0.29,8.36
			c-0.12,0.35-0.31,0.78-0.54,1.24c-6.19,6.93-12.28,9.97-18.09,9.04c-5.23-0.84-9.27-5.53-11.65-9.16
			C196.01,127.61,195.51,125.42,195.7,123.13z M235.79,115.08c-0.16-0.03-16.36-2.98-26.73,2.32l-0.76,0.39l0.25-0.82
			c0.03-0.11,0.73-2.32,2.98-3.51c-1.82-0.69-5.64-2.59-5.36-6.19l0.02-0.23l3.55-1.4c-1.52-1.34-2.99-2.38-3.41-2.41
			c-0.62,0.79-6.98,8.62-17.19,8.62h-0.15l-0.61,0l0.29-0.53c0.14-0.25,13.86-25.42,4.7-31.87l-0.08-0.08
			c-0.08-0.11-8.19-10.47-23.87-6.11l-0.81,0.23l2.35-4.42l-0.2-2.85c-2.11,0.68-11.15,3.85-10.69,7.72l0.05,0.45l-0.45-0.05
			c-0.1-0.01-8.38-2.6-12.32,1.59c-1.03,0.44-1.89,0.94-2.2,1.12c0,0-0.05-0.81-0.05-0.81c-0.01-3.57,0.59-7.75,9.91-9.53l0.15-0.03
			l0.12,0.08c0.06,0.04,1.49,0.96,3.33-0.46c0.36-1.12,3.19-9.57,7.81-9.1l0.1,0.01l0.08,0.06c0.09,0.08,2.32,1.72,5.01,0.01
			c0.38-0.56,2.92-4.13,6.29-4.25c0.06,0,0.12,0,0.18,0c1.82,0,3.53,1.03,5.07,3.06c0.06,0.04,2.58,2.19,6.39,0.36
			c0.1-0.05,2.22-0.93,5.25,0.44c3.26,1.47,8.02,5.82,12.13,18.22c0.04,0.08,6.49,12.74,1.83,24.01c1,0.72,4.7,3.54,5.95,7.14
			c1.08,0.14,5.49,0.86,8.68,3.84c1.21-0.17,7.85-0.85,12.74,4.37l0.76,0.81L235.79,115.08z M239.58,105.55l-0.08,0.3l-1.47-0.16
			c-2.65-5.17-3.33-9.69-2-13.45c0.89-2.54,3.25-4.65,5.4-6.15C242.93,89.35,242.31,95.88,239.58,105.55z"/>
		<g>
			<path class="st9" d="M157.91,130.13c0-3.05-2.47-5.52-5.52-5.52c-3.05,0-5.52,2.47-5.52,5.52s2.47,5.52,5.52,5.52
				C155.44,135.64,157.91,133.17,157.91,130.13z"/>
			<path class="st9" d="M89.45,163.65l11.58,14.71c1.12,1.43,5.89,0.53,5.89,0.53c23.89-10.48,31.81-26.6,39.8-39.05
				c0.38-0.6,0.77-1.19,1.15-1.77l0.23-0.46c-2.15-1.23-3.71-3.36-4.18-5.88c-0.01-0.04-0.02-0.08-0.02-0.13
				c-0.08-0.48-0.13-0.97-0.13-1.48c0-0.73,0.09-1.43,0.26-2.11c0.15-0.58,0.35-1.14,0.61-1.67c0.01-0.03,0.03-0.05,0.04-0.08
				c0.03-0.06,0.06-0.11,0.09-0.18c-0.77-0.41-1.54-0.82-2.3-1.25c-21.81-12.3-38.01-34.04-40.32-37.61
				c-23.12,20.42-25.27,37.68-25.48,44.88c0.02,0.47,0.04,0.83,0.06,1.08c1.93,0.46,3.87,0.85,5.81,1.17
				c0.46,2.52,3.49,16.65,14.77,28.95C92.06,164.38,89.45,163.65,89.45,163.65z M141.9,134.18c-1.61,1.95-4.31,4.88-8.49,8.52
				c-0.61-0.77-1.26-1.63-1.93-2.58c3.9-1.66,7.46-3.68,10.36-6.12C141.86,134.06,141.88,134.12,141.9,134.18z M141.21,128.97
				c-0.04,0.38-0.06,0.77-0.06,1.16c0,0.24,0.01,0.48,0.02,0.72c-2.33,1.3-6.5,3.47-12.08,5.66c-0.72-1.17-1.44-2.42-2.16-3.78
				C132.37,131.59,137.21,130.26,141.21,128.97z M129.75,145.75c-2.66,2.12-5.77,4.43-9.39,6.86c-0.4,0.27-0.8,0.54-1.19,0.79
				c-1.77-2.12-3.81-4.8-5.85-8c4.49-0.86,9.15-2,13.57-3.52C127.76,143.17,128.71,144.47,129.75,145.75z M122.13,133.66
				c0.7,1.44,1.51,2.96,2.42,4.52c-3.97,1.37-8.46,2.66-13.36,3.67c-1.13-2-2.22-4.15-3.22-6.45
				C112.91,135.06,117.68,134.44,122.13,133.66z M87.31,135.04l-0.06-0.01c5.37,0.62,10.73,0.79,15.93,0.62
				c0.72,1.98,1.71,4.42,3.05,7.11c-4.74,0.74-9.79,1.19-15.08,1.19C89.81,141.21,88.5,138.23,87.31,135.04z M93.18,147.84
				c3.53-0.2,8.9-0.63,14.95-1.55c1.81,3.16,4.08,6.49,6.87,9.7c-4.86,2.86-9.03,4.71-12.5,5.89
				C100.76,159.75,97,154.84,93.18,147.84z"/>
			<path class="st9" d="M131.11,112.16c-12.05-10.91-21.22-23.27-21.35-23.45l-0.33-0.45l0.08-0.05l0.3,0.41
				C109.94,88.79,119.04,101.05,131.11,112.16z"/>
			<path class="st9" d="M156.99,168.51c-0.19,0.03-0.37,0.08-0.55,0.13c-0.08-0.22-0.15-0.45-0.21-0.7
				C156.43,168.09,156.68,168.28,156.99,168.51z"/>
			<path class="st9" d="M205.48,205.75l-6.3,0.06c-6.71-11.32-15.77-7.62-19.27-4.29c-24.75,23.55-43.87,21.6-43.87,21.6
				c-16.27,16.48-50.24,12.33-50.24,12.33v-3.95l-0.2-0.02l-0.01-0.46c-0.08-6.44,1.68-12.18,4.33-17.15
				c0.13-0.24,0.26-0.46,0.39-0.7c1.34-2.39,2.87-4.6,4.5-6.62c0.28-0.35,0.58-0.7,0.87-1.04c6.57-7.73,14.26-12.41,16.16-13.5
				l-4.65-9.69l0.7-0.1c0.2-0.03,0.36-0.05,0.47-0.07c-0.05-0.08-0.08-0.13-0.08-0.13s14.83-5.53,25.35-17.38
				c8.57-9.64,13.77-19.38,15.84-23.66c0.05-0.09,0.09-0.18,0.13-0.26c0.09-0.17,0.16-0.33,0.23-0.48c0-0.01,0-0.01,0.01-0.01
				c0.24-0.51,0.41-0.9,0.52-1.15c0.02-0.05,0.04-0.09,0.05-0.12c0.07-0.15,0.1-0.23,0.1-0.23c0.04-0.11,0.07-0.17,0.07-0.17
				c0.34,0.07,0.69,0.13,1.05,0.16c0.25,0.02,0.5,0.04,0.76,0.04c4.76,0,8.62-3.86,8.62-8.62c0-0.48-0.04-0.94-0.11-1.39
				c-0.02-0.12-0.04-0.25-0.06-0.36c-0.03-0.14-0.06-0.27-0.09-0.4c-0.44-1.81-1.48-3.39-2.88-4.52c-0.42-0.34-0.88-0.65-1.36-0.9
				c-0.1-0.06-0.2-0.1-0.31-0.16c-1.14-0.57-2.44-0.89-3.8-0.89c-2.11,0-4.05,0.76-5.55,2.02c-0.03,0.02-0.06,0.05-0.09,0.08
				l-0.16,0.13l-0.31-0.19c-0.67-0.39-1.34-0.79-2.01-1.21c-4.4-2.76-8.72-6.18-12.74-9.79c-0.14-0.13-0.29-0.26-0.43-0.39
				c-12.07-11.1-21.17-23.36-21.3-23.54l-0.3-0.41l-0.04-0.06l0.5-0.29c5.38-3.12,11.44-5.14,17.51-5.9c0,0,6.14-0.96,13.29,0.42
				c0.19,0.04,0.38,0.07,0.56,0.1c13.87,2.75,25.88,12.01,31.89,25.17c0.3,0.6,0.57,1.23,0.84,1.87c1.78,4.42,2.83,9.13,3.13,14.03
				c0.06,0.58,0.06,1.13,0.06,1.71v0.87c-0.28,12.71-6.86,25.19-17.15,32.59c-2.84,3.02-4.21,5.86-4,8.37
				c0.02,0.29,0.07,0.57,0.13,0.83c0,0,0,0,0,0c0.06,0.25,0.13,0.48,0.21,0.7c0.52,1.35,1.41,2.04,1.46,2.08l23.68,16.19
				c6.03,2.1,13.78,6.09,17.1,9.59c1.31,1.38,3.61,4.61,5.16,6.86C204.91,204.75,205.48,205.75,205.48,205.75z"/>
		</g>
		<g>
			<path class="st7" d="M97.24,528.48c-0.36-0.46-0.81-0.78-1.36-0.97c-0.55-0.19-1.17-0.24-1.86-0.14l-2.16,0.3l0.91,6.64
				l2.16-0.29c0.69-0.09,1.28-0.31,1.75-0.64c0.48-0.33,0.83-0.76,1.05-1.31c0.22-0.54,0.28-1.16,0.19-1.85
				C97.82,529.51,97.6,528.93,97.24,528.48z"/>
			<polygon class="st7" points="79.7,533.61 82.81,533.3 80.86,529.57 			"/>
			<path class="st7" d="M70.13,531.38c-0.32-0.48-0.74-0.84-1.27-1.08c-0.53-0.23-1.15-0.33-1.84-0.29l-2.18,0.12l0.36,6.69
				l2.18-0.12c0.7-0.04,1.3-0.2,1.8-0.49c0.5-0.29,0.89-0.69,1.15-1.22c0.26-0.52,0.38-1.13,0.34-1.83
				C70.62,532.46,70.44,531.87,70.13,531.38z"/>
			<polygon class="st7" points="195.24,512.93 198.34,512.42 196.15,508.82 			"/>
			<path class="st7" d="M134.41,499.42c0.24-0.26,0.32-0.58,0.23-0.96c-0.09-0.39-0.29-0.64-0.62-0.77c-0.33-0.12-0.77-0.12-1.34,0
				l-2.32,0.52l0.51,2.3l2.32-0.52C133.77,499.87,134.17,499.67,134.41,499.42z"/>
			<polygon class="st7" points="152.67,521.12 155.75,520.49 153.43,516.98 			"/>
			<path class="st7" d="M135.61,502.22c-0.35-0.13-0.81-0.13-1.39,0l-2.83,0.63l0.54,2.42l2.83-0.63c0.58-0.13,1-0.33,1.25-0.59
				c0.26-0.27,0.34-0.6,0.25-1.01C136.18,502.62,135.96,502.35,135.61,502.22z"/>
			<path class="st7" d="M168.23,513.79c-0.41-0.24-0.97-0.29-1.68-0.15l-1.88,0.37l0.7,3.51l1.88-0.37c0.71-0.14,1.2-0.4,1.49-0.78
				c0.29-0.38,0.38-0.84,0.27-1.39C168.9,514.43,168.64,514.03,168.23,513.79z"/>
			<path class="st7" d="M116.08,525.43c-0.37-0.44-0.84-0.75-1.39-0.92c-0.55-0.17-1.18-0.19-1.86-0.07l-2.15,0.38l1.16,6.6
				l2.15-0.38c0.69-0.12,1.26-0.35,1.73-0.7c0.46-0.35,0.8-0.79,1-1.34c0.2-0.55,0.24-1.17,0.12-1.85
				C116.7,526.44,116.45,525.87,116.08,525.43z"/>
			<path class="st7" d="M232.82,507.02c0.44,0.03,0.8-0.06,1.09-0.27c0.28-0.21,0.44-0.51,0.46-0.9c0.03-0.42-0.09-0.75-0.34-0.99
				c-0.26-0.24-0.6-0.37-1.03-0.4c-0.43-0.03-0.79,0.06-1.07,0.26c-0.28,0.2-0.44,0.51-0.47,0.93c-0.03,0.39,0.09,0.71,0.34,0.96
				C232.05,506.86,232.39,507,232.82,507.02z"/>
			<path class="st7" d="M233.82,511.99c0.35-0.24,0.54-0.6,0.57-1.08c0.03-0.46-0.11-0.84-0.42-1.14c-0.31-0.29-0.75-0.46-1.3-0.5
				c-0.56-0.04-1.01,0.07-1.36,0.32c-0.35,0.25-0.54,0.61-0.57,1.07c-0.03,0.48,0.11,0.86,0.42,1.15c0.31,0.29,0.75,0.45,1.3,0.49
				C233.02,512.34,233.47,512.23,233.82,511.99z"/>
			<path class="st7" d="M116.92,506.01c0.24,0.39,0.54,0.71,0.89,0.96c0.35,0.25,0.73,0.42,1.16,0.51c0.42,0.09,0.86,0.09,1.32,0.01
				c0.46-0.08,0.87-0.24,1.23-0.47c0.37-0.23,0.67-0.53,0.9-0.88c0.24-0.36,0.4-0.76,0.49-1.22c0.09-0.45,0.09-0.94-0.01-1.45
				c-0.1-0.53-0.27-0.98-0.51-1.37c-0.24-0.39-0.54-0.71-0.88-0.96c-0.35-0.25-0.73-0.42-1.16-0.51c-0.42-0.09-0.87-0.09-1.32-0.01
				c-0.46,0.08-0.87,0.24-1.23,0.47c-0.37,0.23-0.67,0.53-0.9,0.88c-0.24,0.36-0.4,0.76-0.49,1.21c-0.09,0.45-0.09,0.94,0.01,1.46
				C116.5,505.17,116.67,505.62,116.92,506.01z"/>
			<path class="st7" d="M233.39,538.74c-0.05,7.7,7.56,12.84,12.48,13.73c11.2,2.02,17.89-2.05,22.04-6.61
				c0,0-14.37-9.4-21.28-12.01c-8.35-3.15-11.94-0.91-11.94-0.91S233.43,534.21,233.39,538.74z"/>
			<path class="st7" d="M49.68,481.9c0.05-7.7-7.56-12.84-12.48-13.73c-11.2-2.02-17.89,2.05-22.04,6.61c0,0,11.42,9.02,18.33,11.63
				c8.35,3.15,14.88,1.29,14.88,1.29S49.65,486.43,49.68,481.9z"/>
			<path class="st7" d="M12.48,480.71c-0.34,0.77-0.48,1.24-0.48,1.24l2.57,56.01c4.8,13.96,27.4,15.82,37.51,15.27
				c32.19-1.76,124.75-18.73,127.51-19.19c22.35-3.72,35.48-7.69,48.87-8.6c3.89-0.26,11.95,1.06,15.97,2.16
				c7.55,2.07,25.59,13.32,25.59,13.32c0.03-0.25-4.93-20.69-5.52-28.69c-0.37-5.08,1.74-24.43,1.74-24.43
				c-3.86-25.73-35.18-21.18-47.78-18.76C206.8,471.29,97,488.33,54.69,492.69c-0.64,0.07-1.26,0.12-1.88,0.17l-4.08,0.23
				c-6.82,0.21-10.46,0.42-17.47-1.65C26.07,489.92,12.48,480.71,12.48,480.71z M31.66,532.74c0.07,0.46,0.22,0.87,0.45,1.23
				c0.22,0.36,0.52,0.67,0.9,0.92c0.37,0.25,0.81,0.43,1.29,0.53c0.57,0.12,1.11,0.12,1.62-0.02c0.51-0.14,1.01-0.39,1.5-0.76
				l1.72,2.41c-0.74,0.59-1.58,0.99-2.54,1.19c-0.95,0.2-1.98,0.18-3.09-0.06c-0.94-0.21-1.78-0.55-2.52-1.02
				c-0.74-0.48-1.34-1.06-1.8-1.74c-0.46-0.68-0.78-1.44-0.94-2.27c-0.16-0.83-0.15-1.7,0.05-2.61c0.2-0.91,0.54-1.71,1.04-2.39
				c0.49-0.68,1.1-1.24,1.8-1.67c0.71-0.43,1.49-0.71,2.36-0.83c0.87-0.13,1.77-0.09,2.72,0.12c1.1,0.24,2.05,0.65,2.83,1.23
				c0.79,0.58,1.39,1.29,1.81,2.15l-2.57,1.47c-0.29-0.54-0.63-0.98-1.04-1.32c-0.41-0.34-0.9-0.57-1.46-0.69
				c-0.49-0.11-0.95-0.12-1.4-0.06c-0.44,0.07-0.84,0.22-1.2,0.46c-0.36,0.24-0.66,0.55-0.92,0.93c-0.26,0.38-0.44,0.83-0.55,1.34
				C31.61,531.8,31.59,532.28,31.66,532.74z M44.67,539.41l-3.44-0.31l1.09-12.17l3.44,0.31L44.67,539.41z M224.06,480.75l0.72,9.45
				l5.81-0.44l0.21,2.73l-9.26,0.7l-0.93-12.18L224.06,480.75z M187.57,485.15l1.4,9.37l5.76-0.86l0.4,2.71l-9.18,1.37l-1.8-12.08
				L187.57,485.15z M169.09,488.11l3.65,4.3l2.06-5.26l3.3-0.55l-3.32,8.5l0.72,4.32l-3.41,0.57l-0.73-4.37l-5.88-6.91
				L169.09,488.11z M159.77,489.74l0.49,2.62l-6.06,1.13l0.38,2.02l5.33-1l0.47,2.54l-5.33,1l0.41,2.2l6.28-1.17l0.49,2.62
				l-9.64,1.8l-2.24-12.01L159.77,489.74z M143.18,492.93l1.87,9.29l5.71-1.15l0.54,2.69l-9.1,1.83l-2.41-11.97L143.18,492.93z
				 M113.02,502.7c0.19-0.82,0.54-1.56,1.04-2.24c0.5-0.68,1.12-1.24,1.88-1.7c0.76-0.46,1.61-0.77,2.58-0.95
				c0.97-0.18,1.89-0.19,2.75-0.02c0.86,0.16,1.64,0.47,2.34,0.93c0.7,0.46,1.29,1.03,1.76,1.73c0.48,0.69,0.8,1.49,0.96,2.4
				c0.17,0.9,0.15,1.77-0.05,2.59c-0.2,0.82-0.54,1.57-1.04,2.24c-0.49,0.67-1.11,1.23-1.86,1.69c-0.75,0.46-1.61,0.77-2.58,0.95
				c-0.96,0.18-1.88,0.18-2.75,0.02c-0.87-0.16-1.66-0.47-2.36-0.93c-0.7-0.46-1.29-1.03-1.76-1.73c-0.47-0.69-0.79-1.49-0.95-2.4
				C112.81,504.38,112.83,503.52,113.02,502.7z M74.1,503.71l0.78,9.44l5.81-0.48l0.22,2.63l4.05-12.58l3.38-0.35l6.65,11.58
				l-3.57,0.37l-1.19-2.26l-5.15,0.54l-0.7,2.46l-3.51,0.37l0.01-0.02l-9.21,0.76l-1-12.17L74.1,503.71z M59.12,534.41
				c-0.03,1.81-0.55,3.21-1.58,4.18c-1.03,0.97-2.44,1.45-4.24,1.42c-1.8-0.03-3.2-0.54-4.2-1.55c-1-1-1.48-2.41-1.46-4.23l0.1-6.77
				l3.45,0.05l-0.1,6.67c-0.02,1.05,0.18,1.8,0.59,2.26c0.41,0.46,0.97,0.69,1.69,0.71c0.72,0.01,1.29-0.21,1.7-0.66
				c0.41-0.45,0.63-1.19,0.64-2.24l0.1-6.67l3.4,0.05L59.12,534.41z M55.87,514.76l-0.83,2.42l-3.52,0.19l4.74-12.48l3.4-0.18
				l6.04,11.91l-3.59,0.19l-1.08-2.32L55.87,514.76z M73.46,536.26c-0.53,0.94-1.29,1.69-2.28,2.25c-1,0.55-2.17,0.87-3.51,0.94
				l-5.77,0.31l-0.66-12.2l5.77-0.31c1.35-0.07,2.55,0.11,3.6,0.56c1.05,0.44,1.89,1.1,2.51,1.98c0.62,0.87,0.97,1.94,1.04,3.19
				C74.21,534.23,73.98,535.32,73.46,536.26z M85.27,537.99l-1.19-2.27l-5.15,0.52l-0.71,2.46l-3.51,0.35l4.14-12.69l3.39-0.34
				l6.61,11.61L85.27,537.99z M100.96,533.07c-0.45,0.98-1.14,1.79-2.09,2.43c-0.95,0.63-2.09,1.04-3.43,1.22l-5.72,0.78l-1.65-12.1
				l5.72-0.78c1.34-0.18,2.55-0.1,3.63,0.26c1.08,0.36,1.97,0.95,2.66,1.77c0.69,0.82,1.12,1.85,1.29,3.1
				C101.55,530.98,101.41,532.09,100.96,533.07z M100.88,513.21l-1.75-12.09l2.81-0.41l6.27,5.67l-0.93-6.44l3.35-0.49l1.75,12.09
				l-2.81,0.41l-6.27-5.67l0.93,6.44L100.88,513.21z M119.97,529.87c-0.41,1-1.08,1.83-2,2.5c-0.92,0.67-2.05,1.12-3.38,1.35
				l-5.69,1l-2.11-12.03l5.69-1c1.33-0.23,2.54-0.19,3.64,0.13c1.09,0.32,2,0.87,2.73,1.67c0.72,0.79,1.19,1.81,1.41,3.05
				C120.48,527.76,120.38,528.87,119.97,529.87z M123.03,532.21l-2.35-11.99l9.4-1.84l0.51,2.62l-6.04,1.19l0.4,2.02l5.33-1.04
				l0.5,2.53l-5.33,1.04l0.43,2.19l6.27-1.23l0.51,2.62L123.03,532.21z M129.14,508.44l-2.65-11.92l6.1-1.36
				c1.57-0.35,2.8-0.32,3.7,0.08c0.9,0.4,1.45,1.07,1.66,2c0.14,0.61,0.09,1.19-0.13,1.72c-0.19,0.46-0.51,0.87-0.93,1.23
				c0.08,0.01,0.17,0.01,0.25,0.03c0.68,0.12,1.25,0.38,1.7,0.78c0.45,0.41,0.76,0.95,0.91,1.65c0.23,1.03-0.01,1.93-0.72,2.69
				c-0.71,0.76-1.86,1.32-3.46,1.67L129.14,508.44z M145.39,527.65l-3.38,0.71l-1.93-9.28l-3.67,0.77l-0.56-2.68l10.71-2.23
				l0.56,2.68l-3.66,0.76L145.39,527.65z M158.67,524.91l-1.41-2.13l-5.07,1.04l-0.46,2.52l-3.45,0.71l2.83-13.05l3.33-0.68
				l7.75,10.88L158.67,524.91z M170.54,522.53l-2.81-2.75l-1.85,0.37l0.63,3.18l-3.39,0.67l-2.38-11.98l5.48-1.09
				c1.1-0.22,2.07-0.23,2.94-0.03c0.86,0.2,1.58,0.58,2.14,1.17c0.57,0.58,0.94,1.33,1.12,2.24c0.18,0.9,0.12,1.72-0.19,2.47
				c-0.28,0.7-0.76,1.29-1.41,1.78l3.34,3.26L170.54,522.53z M186.6,519.45l-1.23-6.36l-2.12,5.77l-1.51,0.28l-4.01-4.43l1.16,6.19
				l-3.14,0.59l-2.25-12.01l2.8-0.52l5.53,6.14l2.81-7.71l2.8-0.52l2.29,12L186.6,519.45z M201.09,516.95l-1.33-2.19l-5.11,0.85
				l-0.55,2.5l-3.48,0.58l3.32-12.93l3.36-0.56l7.33,11.17L201.09,516.95z M196.45,496.19l-1.62-12.11l9.5-1.27l0.35,2.65l-6.1,0.82
				l0.27,2.04l5.38-0.72l0.34,2.56l-5.38,0.72l0.3,2.21l6.33-0.85l0.35,2.65L196.45,496.19z M210.56,482.08l3.38-0.38l6.73,11.54
				l-3.57,0.4l-1.21-2.25l-5.15,0.57l-0.68,2.46l-3.5,0.39L210.56,482.08z M211.64,515.46l-1.11-9.48l-2.25,0.26l-0.31-2.65
				l5.68-0.67l1.43,12.13L211.64,515.46z M222.34,514.47l-3.76,0.23l3.54-9.71l-3.21,0.2l0.11,1.88l-2.94,0.18l-0.28-4.62l10.1-0.61
				l0.13,2.16L222.34,514.47z M237.85,511.25c-0.05,0.78-0.32,1.44-0.8,1.98c-0.48,0.54-1.13,0.95-1.94,1.21
				c-0.82,0.26-1.75,0.35-2.81,0.28c-1.06-0.07-1.97-0.29-2.74-0.66c-0.77-0.37-1.36-0.85-1.76-1.46c-0.41-0.6-0.59-1.3-0.53-2.07
				c0.05-0.77,0.32-1.4,0.8-1.91c0.31-0.33,0.7-0.59,1.15-0.81c-0.25-0.2-0.47-0.43-0.66-0.68c-0.38-0.53-0.55-1.15-0.5-1.86
				c0.05-0.73,0.3-1.34,0.75-1.84c0.45-0.49,1.05-0.86,1.8-1.11c0.75-0.25,1.6-0.34,2.55-0.27c0.96,0.07,1.8,0.27,2.5,0.61
				c0.71,0.34,1.25,0.79,1.62,1.34c0.38,0.55,0.54,1.19,0.49,1.92c-0.05,0.71-0.29,1.3-0.74,1.78c-0.21,0.23-0.46,0.42-0.74,0.59
				c0.41,0.27,0.75,0.59,1.02,0.95C237.72,509.81,237.9,510.48,237.85,511.25z M250.32,507.7l-6.66,8.67l-3.65-0.93l6.34-8.16
				l-3.12-0.8l-0.47,1.83l-2.86-0.73l1.14-4.48l9.81,2.5L250.32,507.7z"/>
			<polygon class="st7" points="212.6,485.26 211.47,489.31 214.59,488.97 			"/>
			<polygon class="st7" points="86.97,505.92 85.82,509.97 88.93,509.64 			"/>
			<polygon class="st7" points="56.76,512.16 59.89,511.99 58.12,508.18 			"/>
		</g>
	</g>
	<g>
		<path class="st10" d="M718.3,269.4h-37.51v57.88h37.51C758.68,327.28,758.68,269.4,718.3,269.4z"/>
		<polygon class="st10" points="1082.24,281.37 1063.66,355.32 1101.54,355.32 1084.03,281.37 		"/>
		<path class="st10" d="M770.07,386.62v-14.07c-2.74,1.25-5.57,2.39-8.54,3.32L770.07,386.62z"/>
		<path class="st11" d="M1004.81,209.73h-63.95l-53.59,123.62l-53.24-123.62h-63.95v11c24.37,12.3,40.24,35.47,41.12,72.25
			c0,42.28-15.49,67.89-41.12,79.57v14.07l60.42,76.07h3.54V389.8l-4.29-51.09l1.79-0.36l33.94,86.82h43.95l33.23-86.82l2.14,0.36
			l-3.93,51.09l-0.36,72.89h24.62l39.69-113.77V209.73z"/>
	</g>
	<g>
		<g>
			<path class="st12" d="M705.77,518.99l-3.05,12.63h9.43v4.82h-10.57l-3.48,14.26h-5.18l3.55-14.26h-11.92l-3.48,14.26h-5.18
				l3.55-14.26h-8.02v-4.82h9.15l3.05-12.63h-9.08v-4.54h10.21l3.41-14.12h5.18l-3.48,14.12h11.92l3.41-14.12h5.18l-3.48,14.12h8.37
				v4.54H705.77z M700.66,518.99h-11.92l-3.05,12.63h11.92L700.66,518.99z"/>
			<path class="st12" d="M738.12,500.33h21c8.87,0,15.25,8.16,15.25,16.1c0,8.3-5.96,16.17-14.83,16.17H744.5v18.09h-6.38V500.33z
				 M759.19,526.93c5.25,0,8.73-4.75,8.73-10.5c0-5.96-4.26-10.43-9.15-10.43H744.5v20.93H759.19z"/>
			<path class="st12" d="M795.79,525.8v-25.47h6.38v25.47c0,9.93,3.55,19.51,15.04,19.51c11.7,0,15.11-9.86,15.11-19.51v-25.47h6.38
				v25.47c0,13.62-5.96,25.25-21.42,25.25C801.25,551.05,795.79,538.71,795.79,525.8z"/>
			<path class="st12" d="M898.44,550.7h-34.19v-50.37h33.55v5.67h-27.17v16.32h23.62v5.32h-23.62v17.38h27.81V550.7z"/>
			<path class="st12" d="M921.35,500.33h17.45c16.17,0,24.33,11.21,24.33,25.11c0,15.25-9.51,25.25-24.33,25.25h-17.45V500.33z
				 M938.8,506.01h-11.07v39.02h11.07c11.63,0,17.88-8.44,17.88-19.58C956.68,514.09,950.22,506.01,938.8,506.01z"/>
			<path class="st12" d="M1020.52,550.7h-34.19v-50.37h33.55v5.67h-27.17v16.32h23.62v5.32h-23.62v17.38h27.81V550.7z"/>
			<path class="st12" d="M1083.73,517.64l-12.91,24.62h-5.46l-12.91-24.62v33.06h-9.79v-50.37h10.5l14.9,28.66l15.04-28.66h10.43
				v50.37h-9.79V517.64z"/>
			<path class="st12" d="M1141.83,500.33l18.51,50.37h-10.07l-4.68-12.56h-17.59l-4.61,12.56h-10.07l18.59-50.37H1141.83z
				 M1136.86,510.48l-7.24,20.78h14.19L1136.86,510.48z M1133.88,494.23l3.83-8.44h8.87l-6.6,10.29L1133.88,494.23z"/>
			<path class="st12" d="M1195.88,508.56c-5.32,0-8.02,2.06-8.02,5.68c0,4.11,3.9,5.18,11.49,7.16c9.93,2.55,16.17,5.68,16.17,14.9
				c0,10.85-8.8,14.97-18.66,14.97c-7.52,0-15.32-2.41-21.14-6.53l4.33-8.44c1.7,1.7,9.29,6.17,16.95,6.17
				c5.32,0,8.09-1.84,8.09-5.18c0-4.47-5.18-5.67-13.05-7.87c-9.58-2.7-14.26-5.89-14.26-13.62c0-10.29,8.16-15.82,18.37-15.82
				c7.02,0,13.19,2.62,17.59,5.6l-4.33,7.94C1208.15,512.11,1201.91,508.56,1195.88,508.56z"/>
		</g>
	</g>
	<path class="st13" d="M1214.11,462.87h-68.6l-16.43-50.73h-67.53l-15.72,50.73h-68.6l88.25-252.96h58.24L1214.11,462.87z
		 M1113.72,355.32l-17.51-73.96h-1.79l-18.58,73.96H1113.72z"/>
	<g>
		<polygon class="st10" points="433.94,396.68 478.04,270.29 433.94,270.29 		"/>
		<polygon class="st10" points="528.04,281.37 509.46,355.32 547.33,355.32 529.83,281.37 		"/>
		<polygon class="st14" points="433.94,270.29 478.04,270.29 499.1,209.91 501.11,209.91 501.11,209.55 302.1,209.55 302.1,270.29 
			369.27,270.29 369.27,462.87 410.85,462.87 433.94,396.68 		"/>
	</g>
	<g>
		<polygon class="st10" points="549.12,281.19 530.54,355.14 568.41,355.14 550.91,281.19 		"/>
		<path class="st10" d="M706.93,269.4h-37.51v57.88h37.51C747.3,327.28,747.3,269.4,706.93,269.4z"/>
		<path class="st15" d="M750.16,375.87c30.73-9.65,49.66-36.09,49.66-82.89c-1.43-59.31-41.8-83.25-93.97-83.25H604.74v73.68
			l64.07,179.28h0.6V382.3h11.43l58.59,80.39h79.67L750.16,375.87z M706.93,327.28h-37.51V269.4h37.51
			C747.3,269.4,747.3,327.28,706.93,327.28z"/>
	</g>
	<path class="st16" d="M659.16,462.87h-68.6l-16.44-50.73H506.6l-15.72,50.73h-68.6l88.25-252.96h58.24L659.16,462.87z
		 M558.76,355.32l-17.51-73.96h-1.79l-18.58,73.96H558.76z"/>
</g>
</svg>
