<svg id="Capa_1" data-name="Capa 1" xmlns="http://www.w3.org/2000/svg" viewBox="0 0 80 80"><defs><style>.cls-1{fill:#d5e9fa;}.cls-2{fill:none;}.cls-3{fill:#004884;}.cls-4{fill:#69f;}.cls-5{fill:#ffab00;}</style></defs><path class="cls-1" d="M61.33,67.14H29.52a1.72,1.72,0,0,1-1.73-1.71V22.72A1.72,1.72,0,0,1,29.52,21H61.33a1.72,1.72,0,0,1,1.74,1.72V65.43A1.67,1.67,0,0,1,61.33,67.14Z"/><rect class="cls-2" x="6.07" y="2" width="67.86" height="76"/><path class="cls-3" d="M63.79,71.59H32.4a2.82,2.82,0,0,1-2.82-2.82.38.38,0,0,1,.75,0,2,2,0,0,0,2.07,2.07H63.79a2.07,2.07,0,0,0,2.07-2.07V23.62a2,2,0,0,0-2.07-2.06.38.38,0,0,1-.37-.38.37.37,0,0,1,.37-.37,2.81,2.81,0,0,1,2.82,2.81V68.77A2.82,2.82,0,0,1,63.79,71.59Z"/><path class="cls-3" d="M56.29,43.54H34.57a.38.38,0,0,1,0-.75H56.29a.38.38,0,0,1,0,.75Z"/><path class="cls-3" d="M56.29,49H34.57a.38.38,0,0,1,0-.75H56.29a.38.38,0,0,1,0,.75Z"/><path class="cls-3" d="M56.29,54.49H34.57a.36.36,0,0,1-.37-.37.37.37,0,0,1,.37-.38H56.29a.38.38,0,0,1,.37.38A.37.37,0,0,1,56.29,54.49Z"/><path class="cls-3" d="M56.29,37.21H40.9a.38.38,0,0,1,0-.75H56.29a.38.38,0,0,1,0,.75Z"/><path class="cls-4" d="M49.56,21.63c-4.44,2-7.24,2.9-10.86,5.16a73.56,73.56,0,0,0-9.86,8C27,32,25.31,29.14,23.5,26.34a19.17,19.17,0,0,1,8.41-9.68c3.53-2.26,6.43-3.17,12.31-3.35C46,16,47.84,18.83,49.56,21.63Z"/><path class="cls-4" d="M33.53,28c.54-.27.72-.27.63-.18.72-.45,1.25-1.08,2-1.61A29.55,29.55,0,0,1,39,24.57C40,24,41,23.5,42,23l6.63-11.91-22.84.18L16.51,29.14l15,.18A7.79,7.79,0,0,1,33.53,28Z"/><path class="cls-3" d="M27.57,35.85h-.05a.39.39,0,0,1-.26-.17c-.91-1.4-1.79-2.81-2.68-4.21s-1.76-2.8-2.66-4.2a.39.39,0,0,1,0-.36,22.59,22.59,0,0,1,9.19-10.3c3.66-2.26,6.69-3.48,13.12-3.86a.37.37,0,0,1,.34.18l2.09,3.33c1.11,1.74,2.19,3.46,3.25,5.18a.39.39,0,0,1,0,.3.38.38,0,0,1-.2.23c-1.51.71-2.84,1.29-4.08,1.84a59.42,59.42,0,0,0-7.38,3.66,77.16,77.16,0,0,0-10,8l-.39.34A.38.38,0,0,1,27.57,35.85ZM22.66,27c.87,1.35,1.71,2.69,2.56,4s1.61,2.56,2.43,3.84l.06-.06a77.48,77.48,0,0,1,10.16-8,58.86,58.86,0,0,1,7.47-3.71c1.13-.5,2.33-1,3.68-1.65-1-1.6-2-3.19-3-4.81l-2-3.14c-6.15.38-9,1.51-12.54,3.73A21.91,21.91,0,0,0,22.66,27Z"/><path class="cls-3" d="M21,30.88H13.37a.38.38,0,0,1-.33-.56L24.34,9.06a.41.41,0,0,1,.33-.2l25.6-.63a.36.36,0,0,1,.33.17.4.4,0,0,1,0,.37l-1.9,3.8a.38.38,0,0,1-.51.17.37.37,0,0,1-.16-.5L49.67,9,24.9,9.61,14,30.12h7a.38.38,0,0,1,0,.76Z"/><circle class="cls-5" cx="20.97" cy="37.2" r="3.17"/><path class="cls-5" d="M50.37,18.21a.36.36,0,0,1-.24-.09.38.38,0,0,1-.13-.36l1.27-6.42a.39.39,0,0,1,.25-.29.38.38,0,0,1,.37.08l2.44,2.17h0l2.44,2.17a.38.38,0,0,1,.12.36.37.37,0,0,1-.25.28l-3.08,1L50.5,18.19Zm1.51-6.09-1,5.14,2.46-.87,2.46-.79Z"/></svg>