<svg xmlns="http://www.w3.org/2000/svg" viewBox="0 0 80 80"><defs><style>.cls-1{fill:none;}.cls-2{fill:#d5e9fa;}.cls-3{fill:#004884;}.cls-4{fill:#ffab00;}.cls-5{fill:#36c;}</style></defs><g id="SERVICIOS_PUBLICOS" data-name="SERVICIOS PUBLICOS"><rect class="cls-1" x="34.72" y="64.49" width="15.27" height="4.59"/><path class="cls-1" d="M12.52,55V44.45c-.44-.25-.87-.52-1.29-.8V55.2h1.32A1.92,1.92,0,0,1,12.52,55Z"/><path class="cls-1" d="M67.1,12.71a2.17,2.17,0,0,0-2.49,1,3.06,3.06,0,0,0-.27,1.08v3h4.35v-3A2.1,2.1,0,0,0,67.1,12.71Z"/><path class="cls-1" d="M69.11,59H16.81a4.21,4.21,0,0,1-4.15-3H11.23v3.68a4.11,4.11,0,0,0,4.11,4.11h54a4.12,4.12,0,0,0,4.11-4.11V56h-.24A4.31,4.31,0,0,1,69.11,59Z"/><path class="cls-1" d="M73.37,55.2h.12V27a4.71,4.71,0,0,0-.09-.85V55A1.92,1.92,0,0,1,73.37,55.2Z"/><path class="cls-2" d="M69.38,22.84h-5V46.12a5.43,5.43,0,0,1-5.28,5.46H35.17a5.47,5.47,0,0,1-5.46-5.46,1.24,1.24,0,0,1,1.23-1.24H34V41.25a17.58,17.58,0,0,1-21.49,3.2V55a1.92,1.92,0,0,0,0,.22h48.5a.37.37,0,0,1,.37.37.38.38,0,0,1-.37.38H12.66a4.21,4.21,0,0,0,4.15,3h52.3a4.31,4.31,0,0,0,4.14-3H66.39a.38.38,0,0,1-.38-.38.37.37,0,0,1,.38-.37h7a1.92,1.92,0,0,0,0-.22V26.1A4.13,4.13,0,0,0,69.38,22.84Z"/><path class="cls-2" d="M69.11,22.07H64.34v0h5Z"/><path class="cls-3" d="M43.34,36.56a.35.35,0,0,0-.35.35v6.66a.35.35,0,1,0,.7,0V36.91A.35.35,0,0,0,43.34,36.56Z"/><path class="cls-3" d="M46,36.56H44.88a.34.34,0,0,0-.34.34v6.68a.34.34,0,0,0,.34.34H46a.35.35,0,0,0,.35-.34V36.9A.33.33,0,0,0,46,36.56Z"/><path class="cls-3" d="M47.51,36.56a.35.35,0,0,0-.35.35v6.66a.36.36,0,0,0,.71,0V36.91A.35.35,0,0,0,47.51,36.56Z"/><path class="cls-3" d="M49.08,36.56a.36.36,0,0,0-.36.35v6.66a.36.36,0,0,0,.71,0V36.91A.35.35,0,0,0,49.08,36.56Z"/><path class="cls-3" d="M51.4,36.56h-.79a.34.34,0,0,0-.34.34v6.68a.34.34,0,0,0,.34.34h.79a.34.34,0,0,0,.34-.34V36.9A.33.33,0,0,0,51.4,36.56Z"/><path class="cls-3" d="M41.8,36.56h-.55a.34.34,0,0,0-.34.34v6.68a.34.34,0,0,0,.34.34h.55a.34.34,0,0,0,.34-.34V36.9A.34.34,0,0,0,41.8,36.56Z"/><path class="cls-4" d="M70.26,14.09c-.35-1.78-1.56-2.8-3.62-3.09l-.18,0h-27a4.64,4.64,0,0,0-4.61,4.61V18c.14.16.25.34.38.51s.27.35.4.52V15.58a3.91,3.91,0,0,1,.24-1.32c.07-.17.15-.33.23-.49a3.83,3.83,0,0,1,3.36-2H64l-.51.67a4.28,4.28,0,0,0-.79,2.13c0,.08,0,.15,0,.22V46.12a3.77,3.77,0,0,1-.48,1.82,3.24,3.24,0,0,1-.5.71.48.48,0,0,1-.09.11,3.07,3.07,0,0,1-.58.5,3.33,3.33,0,0,1-1,.5,3.7,3.7,0,0,1-1.15.2h-.1a3.71,3.71,0,0,1-1-.2,3.51,3.51,0,0,1-1-.5,3.07,3.07,0,0,1-.58-.5,3.8,3.8,0,0,1-1-2.64.34.34,0,0,0-.12-.27.33.33,0,0,0-.27-.12H35.64V39.27c-.13.18-.26.35-.4.52s-.24.35-.38.52v5.42H30.94a.39.39,0,0,0-.38.39,4.62,4.62,0,0,0,4.61,4.61H59a4.63,4.63,0,0,0,2.72-1,4.39,4.39,0,0,0,1.05-1.1,4.6,4.6,0,0,0,.76-2.54V19.38h6.43a.35.35,0,0,0,.39-.39V14.77A2.5,2.5,0,0,0,70.26,14.09ZM37,50H35.17a3.8,3.8,0,0,1-1.81-.46,3.65,3.65,0,0,1-.86-.66,3.61,3.61,0,0,1-.5-.61,3.86,3.86,0,0,1-.5-1.2l-.11-.52h23l.06.35a4.58,4.58,0,0,0,.79,1.9,3.6,3.6,0,0,0,.39.47l0,0,.5.5.2.2ZM69.54,18.61h-6V14.77a3.68,3.68,0,0,1,.35-1.45,3,3,0,0,1,3.48-1.43,2.92,2.92,0,0,1,2.21,2.88Z"/><path class="cls-4" d="M57.44,18.7a.39.39,0,1,0,0-.77H49a.39.39,0,1,0,0,.77Z"/><path class="cls-4" d="M40.14,23.27a.39.39,0,0,0,.39.38H57.75a.39.39,0,0,0,0-.77H40.53A.34.34,0,0,0,40.14,23.27Z"/><path class="cls-4" d="M40.53,28.61H57.75a.34.34,0,0,0,.38-.39.35.35,0,0,0-.38-.39H40.53a.35.35,0,0,0-.39.39A.39.39,0,0,0,40.53,28.61Z"/><path class="cls-4" d="M40.53,33.65H57.75a.35.35,0,0,0,.38-.39.34.34,0,0,0-.38-.39H40.53a.34.34,0,0,0-.39.39A.39.39,0,0,0,40.53,33.65Z"/><path class="cls-5" d="M35.74,25.39c0-.16-.07-.31-.1-.47l-.09-.37c-.1-.3-.19-.61-.31-.91s-.24-.55-.36-.82l0,0a2.06,2.06,0,0,0-.12-.26c-.07-.15-.14-.28-.21-.42l0,0L34.44,22c-.14-.25-.28-.5-.43-.75a15.08,15.08,0,0,0-9-6.63,13.57,13.57,0,0,0-2.41-.29A13.8,13.8,0,0,0,10.85,36c.12.19.24.37.38.55A13.53,13.53,0,0,0,12.52,38,13.8,13.8,0,0,0,34,35.26c.15-.24.29-.5.43-.76s.21-.39.3-.59l.12-.28a10.09,10.09,0,0,0,.38-1,12,12,0,0,0,.4-1.33c0-.18.07-.37.1-.55a14.46,14.46,0,0,0,.28-2.3A13.82,13.82,0,0,0,35.74,25.39Zm-8.6,8.08a6.3,6.3,0,0,1-5.86,4.3h-.13a6.27,6.27,0,0,1-1.78-.25,6.37,6.37,0,0,1-2.75-1.69,6.24,6.24,0,0,1-1.39-2.23,6.86,6.86,0,0,1-.12-4.08A13.33,13.33,0,0,1,17,25.29a22.2,22.2,0,0,1,2.58-3.22c.4-.42.81-.84,1.26-1.26a1.41,1.41,0,0,1,.45-.28.39.39,0,0,1,.32,0,1.08,1.08,0,0,1,.39.29c.39.4.76.81,1.11,1.22a23.43,23.43,0,0,1,2.34,3.22,13.2,13.2,0,0,1,1.89,5A6.86,6.86,0,0,1,27.14,33.47Z"/><path class="cls-2" d="M26.63,30.38a12.36,12.36,0,0,0-1.79-4.71,22.24,22.24,0,0,0-2.7-3.6c-.21-.24-.41-.47-.64-.71,0,0,0,0-.05-.05l-.06.05-.72.71a23.08,23.08,0,0,0-3,3.63,12.85,12.85,0,0,0-1.82,4,6.21,6.21,0,0,0,.09,3.64A5.48,5.48,0,0,0,21.27,37a5.23,5.23,0,0,0,2.8-.82,5.47,5.47,0,0,0,2.36-3A6.06,6.06,0,0,0,26.63,30.38Zm-6.81,4.67a.38.38,0,0,1-.31.16.33.33,0,0,1-.21-.07A4.75,4.75,0,0,1,17.16,31a.38.38,0,0,1,.38-.38h0a.38.38,0,0,1,.37.38,6,6,0,0,0,.07.87A3.79,3.79,0,0,0,19.07,34a4.58,4.58,0,0,0,.66.55A.38.38,0,0,1,19.82,35.05Z"/><path class="cls-3" d="M70,22.15l-.38,0-.23,0h-5v.75h5a4.13,4.13,0,0,1,4,3.26,4.71,4.71,0,0,1,.09.85V55.2h-7.1a.37.37,0,0,0-.38.37.38.38,0,0,0,.38.38h7.1v3.68a4.12,4.12,0,0,1-4.11,4.11h-54a4.11,4.11,0,0,1-4.11-4.11V56H61.05a.38.38,0,0,0,.37-.38.37.37,0,0,0-.37-.37H11.23V43.65c-.26-.18-.51-.37-.75-.56V59.63a4.87,4.87,0,0,0,4.86,4.86H34v4.59H30.74a.38.38,0,0,0,0,.75H53.57a.38.38,0,1,0,0-.75H50.74V64.49H69.38a4.87,4.87,0,0,0,4.86-4.86V27A4.85,4.85,0,0,0,70,22.15ZM50,69.08H34.72V64.49H50Z"/><path class="cls-3" d="M16.62,35.84a6.37,6.37,0,0,0,2.75,1.69,6.27,6.27,0,0,0,1.78.25h.13a6.3,6.3,0,0,0,5.86-4.3,6.86,6.86,0,0,0,.24-3.2,13.2,13.2,0,0,0-1.89-5,23.43,23.43,0,0,0-2.34-3.22c-.35-.41-.72-.82-1.11-1.22a1.08,1.08,0,0,0-.39-.29.39.39,0,0,0-.32,0,1.41,1.41,0,0,0-.45.28c-.45.42-.86.84-1.26,1.26A22.2,22.2,0,0,0,17,25.29a13.33,13.33,0,0,0-1.93,4.24,6.86,6.86,0,0,0,.12,4.08A6.24,6.24,0,0,0,16.62,35.84Zm-.78-6.13a12.85,12.85,0,0,1,1.82-4,23.08,23.08,0,0,1,3-3.63l.72-.71.06-.05s0,0,.05.05c.23.24.43.47.64.71a22.24,22.24,0,0,1,2.7,3.6,12.36,12.36,0,0,1,1.79,4.71,6.06,6.06,0,0,1-.2,2.85,5.47,5.47,0,0,1-2.36,3,5.23,5.23,0,0,1-2.8.82,5.57,5.57,0,0,1-5.34-3.67A6.21,6.21,0,0,1,15.84,29.71Z"/><path class="cls-3" d="M19.3,35.14a.33.33,0,0,0,.21.07.38.38,0,0,0,.22-.69,4.58,4.58,0,0,1-.66-.55A3.79,3.79,0,0,1,18,31.87a6,6,0,0,1-.07-.87.38.38,0,0,0-.37-.38h0a.38.38,0,0,0-.38.38A4.75,4.75,0,0,0,19.3,35.14Z"/><path class="cls-3" d="M11.23,41.36a13.38,13.38,0,0,0,1.29,1,15.65,15.65,0,0,0,8.26,2.63h.45A15.8,15.8,0,0,0,34,38.42l.43-.63.3-.48.12-.19c.14-.23.26-.47.38-.71s.28-.51.4-.77c0-.09.07-.18.1-.26.12-.27.22-.54.32-.81.16-.44.3-.89.43-1.35A16.16,16.16,0,0,0,37,29.58,15.94,15.94,0,0,0,36.49,25c-.13-.45-.27-.89-.43-1.32-.1-.26-.21-.52-.32-.78,0,0,0-.07,0-.11l-.06-.13c-.09-.2-.17-.39-.26-.58l0,0-.12-.22c-.12-.23-.25-.45-.38-.67l-.12-.2-.3-.5-.43-.6A15.79,15.79,0,1,0,10.48,40.7Q10.84,41,11.23,41.36ZM6.17,28.72A15.08,15.08,0,0,1,21.22,14.08h.43a15.29,15.29,0,0,1,3.34.48,15.08,15.08,0,0,1,9,6.63c.15.25.29.5.43.75l.06.12,0,0c.07.14.14.27.21.42a2.06,2.06,0,0,1,.12.26l0,0c.12.27.25.54.36.82s.21.61.31.91l.09.25c0,.12.07.23.1.35a12.41,12.41,0,0,1,.32,1.4,14.93,14.93,0,0,1,.22,3,15.75,15.75,0,0,1-.22,2.08,14.43,14.43,0,0,1-.32,1.45l-.1.37c-.12.39-.25.77-.4,1.14s-.24.62-.38.92l-.12.22-.3.6c-.14.24-.28.48-.43.72a15.06,15.06,0,0,1-21.49,4.38,14.41,14.41,0,0,1-1.29-1q-.39-.35-.75-.72l-.19-.18A15,15,0,0,1,6.17,28.72Z"/><path class="cls-3" d="M44.25,16.87V15.14a3.56,3.56,0,0,1,1.39.46l.34-.83v0a3.48,3.48,0,0,0-1.3-.48,3.27,3.27,0,0,0-.44,0v-1h-.7v1l-.2,0a2.37,2.37,0,0,0-1.2.51A1.58,1.58,0,0,0,41.58,16c0,1.19,1,1.5,2,1.73v1.72a3.26,3.26,0,0,1-1.72-.66l-.38.87a3.69,3.69,0,0,0,2.1.71v.95h.7v-1c1.35-.13,2-.89,2-1.76C46.24,17.41,45.2,17.11,44.25,16.87Zm-.7-.18c-.5-.14-.87-.33-.87-.74s.26-.69.87-.78Zm.7,2.74V17.91c.52.15.89.34.89.76S44.88,19.33,44.25,19.43Z"/></g></svg>