<svg id="Capa_1" data-name="Capa 1" xmlns="http://www.w3.org/2000/svg" viewBox="0 0 80 80"><defs><style>.cls-1{fill:#d5e9fa;}.cls-2{fill:#fff;}.cls-3{isolation:isolate;}.cls-4{fill:#004884;}.cls-5{fill:#36c;}.cls-6{fill:#ffab00;}</style></defs><path class="cls-1" d="M28.5,38h0A13.59,13.59,0,0,1,15,24.31V14.86H42v9.45A13.59,13.59,0,0,1,28.5,38Z"/><path class="cls-2" d="M30.89,41.4h0a14.4,14.4,0,0,1,14.5,14.3v9.8h-29V55.7A14.4,14.4,0,0,1,30.89,41.4Z"/><path class="cls-2" d="M8.1,67h35a1,1,0,0,1,1,1h0a1,1,0,0,1-1,1H8.1a1,1,0,0,1-1-1h0A1.08,1.08,0,0,1,8.1,67Z"/><g class="cls-3"><path class="cls-2" d="M28.57,34.47c0-1.58.86-2.6,2.06-2.6s2.06,1,2.06,2.6-.85,2.6-2.06,2.6S28.57,36.05,28.57,34.47Zm3.85,0c0-1.46-.74-2.34-1.79-2.34s-1.78.88-1.78,2.34.73,2.34,1.78,2.34S32.42,35.92,32.42,34.47Zm4.15-2.56h.3L30.26,41.6H30ZM34.13,39c0-1.58.86-2.61,2.07-2.61s2.06,1,2.06,2.61-.86,2.6-2.06,2.6S34.13,40.61,34.13,39ZM38,39c0-1.46-.73-2.34-1.78-2.34s-1.79.88-1.79,2.34.73,2.33,1.79,2.33S38,40.49,38,39Z"/></g><path class="cls-1" d="M28.19,40.4h0a14.1,14.1,0,0,1,14.2,14V64H14V54.4A14.09,14.09,0,0,1,28.19,40.4Z"/><path class="cls-4" d="M47.1,68.38h-35A1.38,1.38,0,0,1,10.73,67a1.45,1.45,0,0,1,1.37-1.38h35a1.38,1.38,0,0,1,0,2.76Zm-35-2a.7.7,0,0,0-.62.62.62.62,0,0,0,.62.62h35a.62.62,0,0,0,.63-.62.62.62,0,0,0-.63-.62Z"/><path class="cls-2" d="M50.4,13.5H15.1a1,1,0,0,1-1-1h0a1,1,0,0,1,1-1H50.4a1,1,0,0,1,1,1h0A1,1,0,0,1,50.4,13.5Z"/><path class="cls-4" d="M47.41,13.38H12.1a1.38,1.38,0,0,1,0-2.76H47.41a1.38,1.38,0,0,1,0,2.76Zm-35.31-2a.62.62,0,0,0-.62.62.62.62,0,0,0,.62.62H47.41a.62.62,0,1,0,0-1.24Z"/><path class="cls-4" d="M30.34,39.88a.38.38,0,0,1,0-.76A15.26,15.26,0,0,0,45.51,23.8V13.38H15.26V23.7a15.23,15.23,0,0,0,1.93,7.52.37.37,0,1,1-.65.36,15.87,15.87,0,0,1-2-7.88V12.62H46.26V23.8A16,16,0,0,1,30.34,39.88Z"/><path class="cls-4" d="M45.26,66.38H13.51V55.2A16,16,0,0,1,29.39,39.12a.38.38,0,0,1,0,.76A15.24,15.24,0,0,0,14.26,55.2V65.62H44.51V55.2a15.46,15.46,0,0,0-3.37-9.66A.38.38,0,0,1,41.2,45a.37.37,0,0,1,.52.05A16.24,16.24,0,0,1,45.26,55.2Z"/><circle class="cls-5" cx="30.8" cy="38.59" r="12"/><path class="cls-4" d="M29.5,49.77A12.38,12.38,0,1,1,41.88,37.39,12.39,12.39,0,0,1,29.5,49.77Zm0-24A11.63,11.63,0,1,0,41.13,37.39,11.63,11.63,0,0,0,29.5,25.77Z"/><g class="cls-3"><path class="cls-2" d="M33.2,42.07c-1.47,0-2.5-1.25-2.5-3s1-3,2.5-3,2.49,1.25,2.49,3S34.66,42.07,33.2,42.07Zm0-4.94c-.84,0-1.36.73-1.36,1.91s.52,1.9,1.36,1.9,1.35-.73,1.35-1.9S34,37.13,33.2,37.13ZM27.26,42H27a.44.44,0,0,1-.38-.23.45.45,0,0,1,0-.45l6.61-9.69a.45.45,0,0,1,.36-.18h.3a.43.43,0,0,1,.36.67l-6.61,9.69A.44.44,0,0,1,27.26,42Zm.37-4.53c-1.47,0-2.49-1.25-2.49-3s1-3,2.49-3,2.5,1.25,2.5,3S29.1,37.5,27.63,37.5Zm0-4.94c-.83,0-1.35.73-1.35,1.91s.52,1.91,1.35,1.91S29,35.64,29,34.47,28.47,32.56,27.63,32.56Z"/></g><path class="cls-2" d="M64.06,69h-23a2,2,0,0,1-2-2v-2.2a2,2,0,0,1,2-2h23a2,2,0,0,1,2,2v2.28A1.82,1.82,0,0,1,64.06,69Z"/><path class="cls-6" d="M64.06,69.35h-23A2.3,2.3,0,0,1,38.76,67v-2.2a2.31,2.31,0,0,1,2.31-2.31h23a2.31,2.31,0,0,1,2.3,2.31v2.28a1.85,1.85,0,0,1-.48,1.44A2.5,2.5,0,0,1,64.06,69.35Zm-23-6.12a1.61,1.61,0,0,0-1.61,1.61V67a1.61,1.61,0,0,0,1.61,1.61h23a1.76,1.76,0,0,0,1.31-.56,1.15,1.15,0,0,0,.31-.93V64.84a1.61,1.61,0,0,0-1.6-1.61Z"/><path class="cls-6" d="M46.45,68.13a.35.35,0,0,1-.35-.35V64.11a.35.35,0,1,1,.7,0v3.67A.35.35,0,0,1,46.45,68.13Z"/><path class="cls-6" d="M50.12,68.13a.35.35,0,0,1-.35-.35V64.11a.35.35,0,0,1,.7,0v3.67A.35.35,0,0,1,50.12,68.13Z"/><path class="cls-6" d="M53.79,68.13a.35.35,0,0,1-.35-.35V64.11a.35.35,0,0,1,.7,0v3.67A.35.35,0,0,1,53.79,68.13Z"/><path class="cls-6" d="M57.46,68.13a.35.35,0,0,1-.35-.35V64.11a.35.35,0,0,1,.7,0v3.67A.35.35,0,0,1,57.46,68.13Z"/><path class="cls-2" d="M66.5,62.88h-23a2,2,0,0,1-1.95-2V58.72a2,2,0,0,1,1.95-1.95h23a2,2,0,0,1,2,1.95V61A1.83,1.83,0,0,1,66.5,62.88Z"/><path class="cls-6" d="M66.5,63.23h-23a2.3,2.3,0,0,1-2.3-2.3V58.72a2.3,2.3,0,0,1,2.3-2.3h23a2.3,2.3,0,0,1,2.31,2.3V61a1.85,1.85,0,0,1-.48,1.44A2.47,2.47,0,0,1,66.5,63.23Zm-23-6.11a1.6,1.6,0,0,0-1.6,1.6v2.21a1.6,1.6,0,0,0,1.6,1.6h23A1.83,1.83,0,0,0,67.82,62a1.22,1.22,0,0,0,.3-.94V58.72a1.61,1.61,0,0,0-1.61-1.6Z"/><path class="cls-6" d="M48.9,62a.35.35,0,0,1-.35-.35V58a.35.35,0,0,1,.35-.35.35.35,0,0,1,.35.35v3.67A.35.35,0,0,1,48.9,62Z"/><path class="cls-6" d="M52.57,62a.35.35,0,0,1-.35-.35V58a.35.35,0,0,1,.35-.35.35.35,0,0,1,.35.35v3.67A.35.35,0,0,1,52.57,62Z"/><path class="cls-6" d="M56.24,62a.35.35,0,0,1-.35-.35V58a.35.35,0,0,1,.35-.35.35.35,0,0,1,.35.35v3.67A.35.35,0,0,1,56.24,62Z"/><path class="cls-6" d="M59.91,62a.35.35,0,0,1-.35-.35V58a.35.35,0,0,1,.35-.35.35.35,0,0,1,.35.35v3.67A.35.35,0,0,1,59.91,62Z"/><path class="cls-2" d="M62.83,56.77h-23a2,2,0,0,1-2-2v-2.2a2,2,0,0,1,2-2h23a2,2,0,0,1,2,2v2.27A1.84,1.84,0,0,1,62.83,56.77Z"/><path class="cls-6" d="M62.83,57.12h-23a2.31,2.31,0,0,1-2.3-2.31v-2.2a2.3,2.3,0,0,1,2.3-2.31h23a2.3,2.3,0,0,1,2.31,2.31v2.27a1.87,1.87,0,0,1-.48,1.45A2.5,2.5,0,0,1,62.83,57.12ZM39.84,51a1.61,1.61,0,0,0-1.6,1.61v2.2a1.61,1.61,0,0,0,1.6,1.61h23a1.8,1.8,0,0,0,1.32-.56,1.21,1.21,0,0,0,.3-.94V52.61A1.61,1.61,0,0,0,62.84,51Z"/><path class="cls-6" d="M45.23,55.89a.34.34,0,0,1-.35-.35V51.87a.35.35,0,0,1,.35-.35.35.35,0,0,1,.35.35v3.67A.35.35,0,0,1,45.23,55.89Z"/><path class="cls-6" d="M48.9,55.89a.34.34,0,0,1-.35-.35V51.87a.35.35,0,0,1,.35-.35.35.35,0,0,1,.35.35v3.67A.35.35,0,0,1,48.9,55.89Z"/><path class="cls-6" d="M52.57,55.89a.34.34,0,0,1-.35-.35V51.87a.35.35,0,0,1,.35-.35.35.35,0,0,1,.35.35v3.67A.35.35,0,0,1,52.57,55.89Z"/><path class="cls-6" d="M56.24,55.89a.34.34,0,0,1-.35-.35V51.87a.35.35,0,0,1,.35-.35.35.35,0,0,1,.35.35v3.67A.35.35,0,0,1,56.24,55.89Z"/><circle class="cls-6" cx="48.49" cy="42.85" r="4.28"/><path class="cls-6" d="M55.28,43a.35.35,0,0,1-.23-.09.34.34,0,0,1-.11-.33l.85-4.41,1-4.29a.34.34,0,0,1,.24-.25.35.35,0,0,1,.34.07l3.3,2.93h0l3.18,2.93a.36.36,0,0,1,.1.34.34.34,0,0,1-.23.26l-4.16,1.34L55.4,43Zm2-8.39-.84,3.71-.74,3.79,3.58-1.26,3.6-1.17L60.18,37.2Z"/></svg>