<svg xmlns="http://www.w3.org/2000/svg" viewBox="0 0 80 80"><defs><style>.cls-1{fill:#ffab00;}.cls-2{fill:#004685;}.cls-3{fill:#d5e9fa;}.cls-4{fill:#0266cf;}.cls-5{fill:#fff;}</style></defs><g id="AGRICULTURA"><circle class="cls-1" cx="18.14" cy="24.4" r="12.5"/><path class="cls-2" d="M60.68,41.86H37a.34.34,0,0,1,0-.68H60.68a.34.34,0,0,1,0,.68Z"/><path class="cls-2" d="M65.52,52.55a.34.34,0,0,1-.34-.34V46a3.46,3.46,0,0,0-3.45-3.56.34.34,0,0,1-.34-.34.34.34,0,0,1,.34-.34A4.14,4.14,0,0,1,65.86,46v6.24A.34.34,0,0,1,65.52,52.55Z"/><path class="cls-2" d="M41.81,60.35a.37.37,0,0,1-.37-.36.36.36,0,0,1,.37-.37l24.29-.1h0a.37.37,0,1,1,0,.74l-24.29.09Z"/><path class="cls-1" d="M56.52,36.18h-.18a3.21,3.21,0,0,0-3.36,3V42h2V39c-.55,0,0-2.14,1.2-1.95l.74-.1v-.75Z"/><path class="cls-3" d="M35.92,43H59.34a3.42,3.42,0,0,1,3.36,3.45v12.1l-22.35.09S44.47,51.14,35.92,43Z"/><circle class="cls-4" cx="23.38" cy="55.49" r="11.95"/><path class="cls-3" d="M35.56,41.78l11.18.06L46.56,28.2a5.93,5.93,0,0,0-5.91-5.91l-20.22-.53V38.22S29.17,35.71,35.56,41.78Z"/><path class="cls-2" d="M47,41.86H37a.34.34,0,0,1,0-.68h9.38V35.69a.34.34,0,0,1,.34-.34.34.34,0,0,1,.34.34Z"/><path class="cls-2" d="M20.43,37a.34.34,0,0,1-.34-.34V21.75H40.55A6.47,6.47,0,0,1,47,28.21v6.51a.34.34,0,0,1-.34.34.34.34,0,0,1-.34-.34V28.21a5.79,5.79,0,0,0-5.78-5.78H20.77V36.66A.34.34,0,0,1,20.43,37Z"/><path class="cls-2" d="M24.16,67.79A13.07,13.07,0,1,1,37.23,54.72a13.41,13.41,0,0,1-1.29,5.68.34.34,0,0,1-.62-.29,12.55,12.55,0,0,0,1.23-5.39,12.48,12.48,0,1,0-2.27,7.09.33.33,0,0,1,.47-.08.34.34,0,0,1,.09.47A13.11,13.11,0,0,1,24.16,67.79Z"/><path class="cls-2" d="M37.26,54.72h-.74a12.36,12.36,0,0,0-24.72,0h-.74a13.1,13.1,0,0,1,26.2,0Z"/><path class="cls-2" d="M40.19,60.11H40.1a.35.35,0,0,1-.23-.43,17.49,17.49,0,0,0,.76-5A16.56,16.56,0,0,0,12.35,43a.34.34,0,0,1-.48,0,.36.36,0,0,1,0-.49,17.25,17.25,0,0,1,29.44,12.2,18.24,18.24,0,0,1-.79,5.15A.35.35,0,0,1,40.19,60.11Z"/><circle class="cls-5" cx="24.06" cy="54.72" r="4.37"/><path class="cls-2" d="M55.27,42.35H52.64V39.18c0-1.81,1.85-3.34,4-3.34h.54v1.65h-.69a1.39,1.39,0,0,0-1.32.45.61.61,0,0,0,0,.67l.05.08Zm-2-.68h1.27V38.86a1.26,1.26,0,0,1,0-1.3,2,2,0,0,1,1.9-.75v-.29c-1.75.06-3.21,1.26-3.21,2.66Z"/><path class="cls-2" d="M27.23,38a.34.34,0,0,1-.34-.34V23.06a.34.34,0,0,1,.68,0V37.63A.34.34,0,0,1,27.23,38Z"/><path class="cls-2" d="M60.27,60.35H43.75a.37.37,0,1,1,0-.73H60.27a.37.37,0,1,1,0,.73Z"/><rect class="cls-2" x="6.34" y="67.42" width="68.02" height="0.68"/><circle class="cls-4" cx="60.99" cy="60.16" r="7.29"/><path class="cls-2" d="M61.38,67.69a7.92,7.92,0,1,1,7-11.68.33.33,0,0,1-.14.46.34.34,0,0,1-.46-.13,7.28,7.28,0,1,0,.84,3.43,8.06,8.06,0,0,0-.47-2.61.34.34,0,0,1,.21-.43.33.33,0,0,1,.43.21,8.62,8.62,0,0,1,.51,2.83A7.93,7.93,0,0,1,61.38,67.69Z"/></g></svg>