<svg id="Capa_1" data-name="Capa 1" xmlns="http://www.w3.org/2000/svg" viewBox="0 0 80 80"><defs><style>.cls-1{fill:#d5e9fa;}.cls-2{fill:#fff;}.cls-3{fill:#36c;}.cls-4{fill:#f42f63;}.cls-5{fill:#004884;}</style></defs><circle class="cls-1" cx="47" cy="34.59" r="16.44"/><path class="cls-2" d="M56.5,40A1.51,1.51,0,0,1,55,41.5H39a1.51,1.51,0,0,1-1.5-1.5V33.81l.71.31a4.44,4.44,0,0,0,1.8.38h1.49V36a.5.5,0,0,0,.5.5.5.5,0,0,0,.5-.5V34.5h9V36a.5.5,0,0,0,.5.5.5.5,0,0,0,.5-.5V34.5H54a4.43,4.43,0,0,0,1.79-.38l.71-.31Z"/><path class="cls-2" d="M57.5,30a3.52,3.52,0,0,1-1,2.47,3.48,3.48,0,0,1-2.47,1H52.5V32a.5.5,0,0,0-.5-.5.5.5,0,0,0-.5.5v1.5h-9V32a.5.5,0,0,0-.5-.5.5.5,0,0,0-.5.5v1.5H40a3.48,3.48,0,0,1-2.47-1,3.52,3.52,0,0,1-1-2.47V28A1.51,1.51,0,0,1,38,26.5H56A1.51,1.51,0,0,1,57.5,28Z"/><path class="cls-3" d="M26.89,59.14h0l-9,9.12a3.6,3.6,0,0,1-2.55,1.07,3.25,3.25,0,0,1-.92-.13,3.62,3.62,0,0,1-2.54-2.58,3.72,3.72,0,0,1,.93-3.53l9-9.12a1.42,1.42,0,0,1,2,0l3.05,3.1A1.5,1.5,0,0,1,26.89,59.14Z"/><path class="cls-4" d="M57.16,40.63a1.52,1.52,0,0,1-1.5,1.5h-16a1.52,1.52,0,0,1-1.5-1.5v-6.2l.71.31a4.45,4.45,0,0,0,1.8.39h1.49v1.5a.51.51,0,0,0,.5.5.5.5,0,0,0,.5-.5v-1.5h9v1.5a.5.5,0,0,0,.5.5.51.51,0,0,0,.5-.5v-1.5h1.5a4.44,4.44,0,0,0,1.79-.39l.71-.31Z"/><path class="cls-4" d="M58.16,30.63a3.52,3.52,0,0,1-3.5,3.5h-1.5v-1.5a.5.5,0,0,0-.5-.5.5.5,0,0,0-.5.5v1.5h-9v-1.5a.5.5,0,0,0-.5-.5.5.5,0,0,0-.5.5v1.5h-1.5a3.52,3.52,0,0,1-3.5-3.5v-2a1.51,1.51,0,0,1,1.5-1.49h18a1.51,1.51,0,0,1,1.5,1.49Z"/><path class="cls-5" d="M57.77,26.23A2.51,2.51,0,0,0,56,25.5H51.5V24A2.49,2.49,0,0,0,49,21.5H45A2.49,2.49,0,0,0,42.5,24v1.5H38A2.49,2.49,0,0,0,35.5,28v2a4.43,4.43,0,0,0,.9,2.67l.1.13V40A2.49,2.49,0,0,0,39,42.5H55A2.49,2.49,0,0,0,57.5,40V32.8l.1-.13A4.45,4.45,0,0,0,58.5,30V28A2.51,2.51,0,0,0,57.77,26.23ZM43.5,24A1.5,1.5,0,0,1,45,22.5h4A1.5,1.5,0,0,1,50.5,24v1.5h-7Zm13,16A1.5,1.5,0,0,1,55,41.5H39A1.5,1.5,0,0,1,37.5,40V33.81l.7.31a4.47,4.47,0,0,0,1.8.38h1.5V36a.5.5,0,0,0,.5.5.5.5,0,0,0,.5-.5V34.5h9V36a.5.5,0,0,0,.5.5.5.5,0,0,0,.5-.5V34.5H54a4.47,4.47,0,0,0,1.8-.38l.7-.31Zm1-10A3.5,3.5,0,0,1,54,33.5H52.5V32a.51.51,0,0,0-.5-.5.5.5,0,0,0-.5.5v1.5h-9V32a.51.51,0,0,0-.5-.5.5.5,0,0,0-.5.5v1.5H40A3.48,3.48,0,0,1,36.5,30V28A1.5,1.5,0,0,1,38,26.5H56A1.5,1.5,0,0,1,57.5,28Z"/><path class="cls-5" d="M60.07,19.92A18.48,18.48,0,1,0,65.5,33,18.41,18.41,0,0,0,60.07,19.92Zm-.7,25.45A17.48,17.48,0,1,1,64.5,33,17.42,17.42,0,0,1,59.37,45.37Z"/><path class="cls-5" d="M68.45,26.19A22.5,22.5,0,0,0,47,10.5h0A22.48,22.48,0,0,0,35,14l.62.8A21.49,21.49,0,0,1,62.19,48.2,21.5,21.5,0,0,1,31.76,17.83l-.62-.8A22.48,22.48,0,0,0,29.09,46.6l.26.34-4.86,4.87-.33-.18A2.5,2.5,0,0,0,23,51.34l-.37,0a2.46,2.46,0,0,0-1.39.69l-9.34,9.35a4.74,4.74,0,1,0,6.7,6.7l9.35-9.34a2.52,2.52,0,0,0,.43-2.93l-.18-.33,4.87-4.86.34.26A22.5,22.5,0,0,0,68.45,26.19ZM27.23,58.06l-9.34,9.35a3.75,3.75,0,0,1-2.65,1.09,4,4,0,0,1-1-.12,3.75,3.75,0,0,1-1.68-6.27l9.35-9.34a1.51,1.51,0,0,1,2.12,0l3.17,3.17A1.51,1.51,0,0,1,27.23,58.06Zm.27-3.27L25.21,52.5,30,47.72l.35.39c.49.54,1,1.06,1.55,1.55l.39.35Z"/><circle class="cls-5" cx="31.5" cy="17.38" r="0.51"/><circle class="cls-5" cx="35.25" cy="14.39" r="0.51"/></svg>