<svg id="Capa_1" data-name="Capa 1" xmlns="http://www.w3.org/2000/svg" viewBox="0 0 80 80"><defs><style>.cls-1{fill:#069169;}.cls-2{fill:#d5e9fa;}.cls-3{fill:#004884;}.cls-4{fill:#0266cf;}</style></defs><path class="cls-1" d="M17.08,24.59l7,20.58a1.64,1.64,0,0,0,2.1,1L59.75,34.87a1.64,1.64,0,0,0,1-2.1L53.6,12.32a.57.57,0,0,0-1-.11L41.85,29.53A4.16,4.16,0,0,1,37,31.3L17.67,24A.45.45,0,0,0,17.08,24.59Z"/><path class="cls-2" d="M23.06,56.41l2.19-1.8a2,2,0,0,1,1.23-.44H46.8a2,2,0,0,1,1.24.45l1.23,1A2,2,0,0,0,52,55.42L62.66,43.1s1.73.57.75,2.69S52.13,60.62,52.13,60.62s-1,1.45-4.06,1.3H32.35A3.86,3.86,0,0,0,30,63Z"/><path class="cls-3" d="M63.72,42.68h0a3,3,0,0,0-4.19,0l-7.21,8.43a.5.5,0,0,0-.17.5.61.61,0,0,0,.42.42.5.5,0,0,0,.49-.17l7.2-8.43a1.9,1.9,0,0,1,2.71,0,1.61,1.61,0,0,1,.5,1.3,2.84,2.84,0,0,1-.55,1.48c-.57.83-2.42,3.12-4.37,5.55-2.34,2.93-4.77,6-5.57,7.11-1.41,2.06-2.84,3-4.48,3H32.55a3.67,3.67,0,0,0-2.53,1l-.08.08-9.65-9.26a.5.5,0,0,0-.75,0l-3.92,3.9a.54.54,0,0,0,0,.75L27,69.31a.51.51,0,0,0,.74,0l3.92-3.91a.51.51,0,0,0,.15-.37.49.49,0,0,0-.15-.38l-.93-.93.09-.1a2.38,2.38,0,0,1,1.78-.68H48.49a6.35,6.35,0,0,0,5.35-3c.85-1.23,3.53-4.74,5.9-7.84,1.8-2.34,3.5-4.56,4-5.33a3.81,3.81,0,0,0,.74-2.06A2.79,2.79,0,0,0,63.72,42.68ZM27.33,68.19,16.74,58l3.18-3.16L30.49,65ZM47.18,50.94H27.76a6.9,6.9,0,0,0-5.06,2.23.5.5,0,0,0-.15.49.59.59,0,0,0,.4.41.47.47,0,0,0,.49-.14A5.56,5.56,0,0,1,27.76,52H47.18a2.09,2.09,0,1,1,0,4.17h-12a.46.46,0,0,0-.45.25.58.58,0,0,0,0,.57.48.48,0,0,0,.45.24h12a3.15,3.15,0,1,0,0-6.29Z"/><polygon class="cls-4" points="27.33 68.19 16.74 58.01 19.92 54.84 30.49 65.03 27.33 68.19"/><path class="cls-3" d="M61.32,33l-7.08-21a2,2,0,0,0-1-1.16,1.9,1.9,0,0,0-.9-.22,2.05,2.05,0,0,0-.64.11L17.62,22.1a2,2,0,0,0-1.17,1,2,2,0,0,0-.1,1.54l7.08,21A2,2,0,0,0,26,47L60.05,35.51a2.07,2.07,0,0,0,1.17-1A2,2,0,0,0,61.32,33ZM19.07,22.7,50.89,12a.38.38,0,0,1,.43.57L41,29.37a3.09,3.09,0,0,1-2.55,1.33,3.15,3.15,0,0,1-1-.15L19.07,23.41a.37.37,0,0,1-.25-.35A.39.39,0,0,1,19.07,22.7Zm5.82,22.12a.36.36,0,0,1-.33.21h0a.36.36,0,0,1-.33-.25L17.42,24.59a.36.36,0,0,1,.08-.38.37.37,0,0,1,.39-.09l13.32,5.47,0,0Zm34.27-10.1L26.3,45.77l-.12,0a.34.34,0,0,1-.28-.13.36.36,0,0,1,0-.41L32.2,29.92h0L38,31.79a3.06,3.06,0,0,0,3.43-1.15l3.48-5h0L59.2,34a.36.36,0,0,1,.21.36A.38.38,0,0,1,59.16,34.72ZM60,33a.36.36,0,0,1-.24.09.35.35,0,0,1-.17,0L45.46,24.76v0l7.22-12.32a.37.37,0,0,1,.66.09l6.77,20.12A.36.36,0,0,1,60,33Z"/></svg>