<svg id="Capa_1" data-name="Capa 1" xmlns="http://www.w3.org/2000/svg" viewBox="0 0 80 80"><defs><style>.cls-1{fill:#004884;}.cls-2{fill:#d5e9fa;}.cls-3{fill:#ffab00;}.cls-4{fill:#0266cf;}</style></defs><path class="cls-1" d="M59.45,46.85a.56.56,0,0,0-.78,0l-3.52,3.52s0,0,0,.05c-5.87,6-13.74,14.09-14.77,15.15l-.24.25-.25-.25c-1.62-1.68-9.2-9.43-14.92-15.26l-.19-.2h0l-2.19-2.25-1.16-1.19-.13-.13a.54.54,0,0,0-.78.76l.08.08h0L24,50.86h0l.14.14c5.94,6.05,15.38,15.79,15.51,15.92a.68.68,0,0,0,1,0c.11-.11,9.48-9.81,15.39-15.84l3.47-3.46A.56.56,0,0,0,59.45,46.85Z"/><path class="cls-2" d="M67.08,29.72C66.54,25,63.92,21.66,60.22,19c-3.17-2.28-6.08-4-9.91-3.3-3.59.68-6,1.53-8.9,5.55L40.07,24l-1.68-3.05c-3.06-3.75-6.52-5.14-11.3-4.34A17.73,17.73,0,0,0,19,19.93c-6.12,4.87-5.51,13.78-1.72,20h5.29l5.1-5a2.31,2.31,0,0,1,1.63-.67,2,2,0,0,1,.42,0,2.28,2.28,0,0,1,1.68,1.31c1.29,2.77,2.9,6.21,4.25,9,1.18-4.64,2.76-10.89,3.56-14.07a2.33,2.33,0,0,1,2.09-1.74h.15a2.31,2.31,0,0,1,2.13,1.39l4.62,10.5,2.2-2.6A2.33,2.33,0,0,1,52,37.28h.16a2.29,2.29,0,0,1,1.57.61L56,40h8.9A17,17,0,0,0,67.08,29.72Zm-12,14.93A2.29,2.29,0,0,1,53.54,44l-1.19-1.09-3,3.58a2.3,2.3,0,0,1-1.77.81,1.94,1.94,0,0,1-.33,0A2.33,2.33,0,0,1,45.42,46L42,38.23c-1.53,6-3.3,13-3.43,13.43a2.36,2.36,0,0,1-2.11,1.66h-.18c-1.32,0-2-1-2.92-2.78s-2.37-4.71-4.83-10l-3.44,3.38a2.29,2.29,0,0,1-1.62.67h-2L41.15,64.75C42.67,63.13,61,44.39,61,44.39Z"/><path class="cls-3" d="M69.49,42.33a.82.82,0,0,1-.82.82H55.11a.82.82,0,0,1-.56-.22l-2.33-2.15-4,4.76a.84.84,0,0,1-.45.27l-.18,0h-.11a.84.84,0,0,1-.63-.49L41.65,33.63c-1.33,5.27-4.33,17.1-4.48,17.59a.87.87,0,0,1-.75.6h-.11c-.63,0-1.21-.72-7.28-13.83l-5,4.88a.81.81,0,0,1-.57.23H14.91a.82.82,0,1,1,0-1.64h8.25L28.71,36a.81.81,0,0,1,.57-.23h.15a.81.81,0,0,1,.59.47c1.83,4,4.63,9.88,6.06,12.66,1-4.06,3.5-13.75,4.57-18a.81.81,0,0,1,.72-.61.69.69,0,0,1,.25,0h.05a.78.78,0,0,1,.21.09.83.83,0,0,1,.31.36l5.58,12.7,3.75-4.42a.84.84,0,0,1,.58-.29h0a.81.81,0,0,1,.55.21l2.73,2.52H68.67A.82.82,0,0,1,69.49,42.33Z"/><circle class="cls-3" cx="11.89" cy="42.32" r="0.93"/><path class="cls-4" d="M61.3,21.41a.6.6,0,0,0-.72-.06.35.35,0,0,0-.13.11.59.59,0,0,0-.16.44.62.62,0,0,0,.2.42,11.88,11.88,0,0,1,3.5,5,.59.59,0,0,0,.31.35.57.57,0,0,0,.46,0,.34.34,0,0,0,.12-.06.59.59,0,0,0,.25-.71A13.17,13.17,0,0,0,61.3,21.41Z"/><circle class="cls-4" cx="58.87" cy="20.28" r="0.69"/><path class="cls-1" d="M65.48,19.16c-3.93-4.17-8.23-6.28-12.77-6.28-5,0-9.61,3-12.36,8.11l-.32.6L39.7,21c-2.74-5.08-7.35-8.11-12.33-8.11-4.51,0-8.68,2-12.75,6.28A16.69,16.69,0,0,0,13,39l.62,1a.54.54,0,0,0,.75.18.55.55,0,0,0,.18-.76l-.39-.63-.32-.55a14.81,14.81,0,0,1-2.14-9.07,16,16,0,0,1,3.71-9.25c3.82-4,7.81-5.93,12-5.93,4.52,0,8.86,2.88,11.39,7.55L40.07,24l1.23-2.41C43.83,16.88,48.18,14,52.71,14c4.19,0,8.28,2,12,6a15,15,0,0,1,3.46,8.93,16.1,16.1,0,0,1-1.89,9.38l-.16.26-.56.94s0,0,0,0h0a.53.53,0,0,0,.88.6l0,0,0,0h0l.46-.77C71.7,31.32,69.06,23,65.48,19.16Z"/></svg>