<svg id="Capa_1" data-name="Capa 1" xmlns="http://www.w3.org/2000/svg" viewBox="0 0 80 80"><defs><style>.cls-1{fill:#d5e9fa;}.cls-2{fill:#f42f63;}.cls-3{fill:#004884;}.cls-4{fill:#0266cf;}</style></defs><path class="cls-1" d="M53.93,62.34v4.58H26.16a2.65,2.65,0,0,1-2.64-2.65V19.32a2.71,2.71,0,0,1,2.71-2.71H57.82a2.65,2.65,0,0,1,2.65,2.64V60.12H56.09A2.21,2.21,0,0,0,53.93,62.34Z"/><circle class="cls-2" cx="33.17" cy="25.65" r="2.74"/><path class="cls-2" d="M38,34.28H28.3a.51.51,0,0,0,.51-.51V32.15a2.73,2.73,0,0,1,2.73-2.74h3.25a2.72,2.72,0,0,1,1.94.8,2.76,2.76,0,0,1,.8,1.94v1.62A.51.51,0,0,0,38,34.28Z"/><path class="cls-3" d="M37.86,30a3.67,3.67,0,0,0-1.79-1.36l-.42-.16.3-.33a3.75,3.75,0,1,0-5.57,0l.31.33-.43.16a3.72,3.72,0,0,0-2.47,3.51v1.62a.51.51,0,0,0,1,0V32.15a2.73,2.73,0,0,1,2.73-2.74h3.25a2.72,2.72,0,0,1,1.94.8,2.76,2.76,0,0,1,.8,1.94v1.62a.51.51,0,0,0,.51.51.5.5,0,0,0,.5-.51V32.15A3.71,3.71,0,0,0,37.86,30Zm-7.43-4.34a2.76,2.76,0,0,1,.8-1.94,2.72,2.72,0,0,1,1.94-.8,2.68,2.68,0,0,1,1.93.8,2.72,2.72,0,0,1,0,3.87,2.74,2.74,0,0,1-3.87,0A2.68,2.68,0,0,1,30.43,25.66Z"/><path class="cls-2" d="M57.71,49.27a.51.51,0,0,0,.15-.36.51.51,0,0,0-.51-.51H39.65a.51.51,0,0,0,0,1h17.7A.53.53,0,0,0,57.71,49.27Z"/><path class="cls-4" d="M51.67,53.27h-12a.5.5,0,0,0-.5.51.5.5,0,0,0,.5.5h12a.52.52,0,0,0,.36-.14.51.51,0,0,0,.15-.36.48.48,0,0,0-.15-.36A.49.49,0,0,0,51.67,53.27Z"/><path class="cls-2" d="M36.41,53.27H28.3a.51.51,0,0,0-.51.51.5.5,0,0,0,.51.5h8.11a.48.48,0,0,0,.5-.5.5.5,0,0,0-.5-.51Z"/><path class="cls-4" d="M51.67,58.05h-12a.5.5,0,0,0-.5.51.5.5,0,0,0,.5.5h12a.52.52,0,0,0,.36-.14.51.51,0,0,0,.15-.36A.48.48,0,0,0,52,58.2.49.49,0,0,0,51.67,58.05Z"/><path class="cls-2" d="M36.41,58.05H28.3a.51.51,0,0,0-.51.51.5.5,0,0,0,.51.5h8.11a.48.48,0,0,0,.5-.5.5.5,0,0,0-.5-.51Z"/><path class="cls-3" d="M18.52,12.31a2.72,2.72,0,0,1,1.94-.8h29.9a2.76,2.76,0,0,1,1.37.37,2.79,2.79,0,0,1,1,1,.48.48,0,0,0,.31.23.46.46,0,0,0,.38,0,.51.51,0,0,0,.19-.69,3.8,3.8,0,0,0-3.24-1.88H20.46a3.79,3.79,0,0,0-2.65,1.1,3.74,3.74,0,0,0-1.1,2.66V59.88a3.74,3.74,0,0,0,1.87,3.23.48.48,0,0,0,.26.07H19a.48.48,0,0,0,.31-.24.51.51,0,0,0-.18-.69,2.79,2.79,0,0,1-1-1,2.76,2.76,0,0,1-.37-1.37V14.25A2.76,2.76,0,0,1,18.52,12.31Z"/><path class="cls-2" d="M57.35,43.53H39.65a.51.51,0,0,0,0,1h17.7a.53.53,0,0,0,.36-.15.51.51,0,0,0,0-.72A.53.53,0,0,0,57.35,43.53Z"/><path class="cls-2" d="M36.41,43.53H28.3a.51.51,0,0,0,0,1h8.11a.55.55,0,0,0,.36-.15.53.53,0,0,0,0-.72A.55.55,0,0,0,36.41,43.53Z"/><path class="cls-2" d="M36.41,48.4H28.3a.51.51,0,1,0,0,1h8.11a.55.55,0,0,0,.36-.15.54.54,0,0,0,.14-.36.51.51,0,0,0-.14-.36A.55.55,0,0,0,36.41,48.4Z"/><path class="cls-3" d="M36.41,38.66H28.3a.51.51,0,0,0,0,1h8.11a.55.55,0,0,0,.36-.15.52.52,0,0,0,.14-.36.54.54,0,0,0-.14-.36A.55.55,0,0,0,36.41,38.66Z"/><path class="cls-4" d="M57.35,38.66H39.65a.51.51,0,0,0,0,1h17.7a.51.51,0,0,0,.51-.51.51.51,0,0,0-.15-.36A.53.53,0,0,0,57.35,38.66Z"/><path class="cls-3" d="M62.19,16.69a3.79,3.79,0,0,0-2.65-1.1H26.26a3.81,3.81,0,0,0-2.66,1.1,3.74,3.74,0,0,0-1.1,2.66v46.4a3.7,3.7,0,0,0,1.1,2.65,3.78,3.78,0,0,0,2.66,1.11H55a3.73,3.73,0,0,0,2.6-1.1l4.6-4.59a3.74,3.74,0,0,0,1.09-2.66V19.35A3.74,3.74,0,0,0,62.19,16.69ZM56.8,64.13A1.13,1.13,0,0,1,57.92,63h3.64L56.8,67.77Zm-1,0v4.23l-.23.06a3.07,3.07,0,0,1-.6.07H26.26a2.73,2.73,0,0,1-2.74-2.74V19.35a2.73,2.73,0,0,1,2.74-2.74H59.54a2.72,2.72,0,0,1,1.94.8,2.76,2.76,0,0,1,.8,1.94V61.16a3.08,3.08,0,0,1-.07.61l-.06.23H57.92a2.12,2.12,0,0,0-2.13,2.13Z"/><path class="cls-2" d="M46.14,25.07H57.35a.5.5,0,0,0,.51-.5.51.51,0,0,0-.51-.51H46.14a.5.5,0,0,0-.5.51A.5.5,0,0,0,46.14,25.07Z"/><path class="cls-3" d="M46.14,34.81H57.35a.51.51,0,0,0,.51-.51.5.5,0,0,0-.51-.5H46.14a.5.5,0,0,0-.5.5A.5.5,0,0,0,46.14,34.81Z"/><path class="cls-2" d="M46.14,29.94H57.35a.51.51,0,0,0,.51-.51.5.5,0,0,0-.51-.5H46.14a.5.5,0,0,0-.5.5A.5.5,0,0,0,46.14,29.94Z"/></svg>