<svg id="Capa_1" data-name="Capa 1" xmlns="http://www.w3.org/2000/svg" viewBox="0 0 80 80"><defs><style>.cls-1{fill:#d5e9fa;}.cls-2{isolation:isolate;}.cls-3{fill:#36c;}.cls-4{fill:#004884;}.cls-5{fill:#ffab00;}.cls-6{fill:#fff;}.cls-7{fill:#0266cf;}</style></defs><path class="cls-1" d="M55.86,63H19.72A6.69,6.69,0,0,1,13,56.38V21.55a6.69,6.69,0,0,1,6.72-6.65H55.93a6.69,6.69,0,0,1,6.73,6.65V56.27A6.85,6.85,0,0,1,55.86,63Z"/><g class="cls-2"><path class="cls-3" d="M56.05,46.72c0,1-.86,1.6-2.18,1.6s-2.17-.61-2.17-1.6a1.33,1.33,0,0,1,.85-1.27,1.22,1.22,0,0,1-.66-1.12c0-.91.8-1.48,2-1.48s2,.57,2,1.48a1.23,1.23,0,0,1-.68,1.12A1.34,1.34,0,0,1,56.05,46.72Zm-1,0c0-.53-.46-.85-1.18-.85s-1.17.32-1.17.85.44.86,1.17.86S55.05,47.23,55.05,46.69Zm-2.19-2.31c0,.45.38.74,1,.74s1-.29,1-.74-.41-.76-1-.76S52.86,43.9,52.86,44.38Z"/></g><g class="cls-2"><path class="cls-3" d="M44.6,52.9v5.32h-1V53.73H42.49V52.9Z"/><path class="cls-3" d="M47.5,52.9v5.32h-1V53.73H45.39V52.9Z"/></g><g class="cls-2"><path class="cls-3" d="M55.37,55h-.94v1.21h-1V55H50.55v-.69l2.62-3.42h1.06l-2.47,3.27H53.5V53.1h.93v1.07h.94Z"/></g><path class="cls-4" d="M40.66,65H19.25a6.63,6.63,0,0,1-6.63-6.62V19.61A6.64,6.64,0,0,1,19.25,13H59a6.64,6.64,0,0,1,6.63,6.63V43.07a.38.38,0,0,1-.38.37.37.37,0,0,1-.37-.37V19.61A5.89,5.89,0,0,0,59,13.73H19.25a5.89,5.89,0,0,0-5.88,5.88V58.33a5.88,5.88,0,0,0,5.88,5.87H40.66a.38.38,0,0,1,0,.75Z"/><path class="cls-5" d="M56,26.13H20.17a1.5,1.5,0,0,1,0-3H56a1.5,1.5,0,0,1,0,3Z"/><path class="cls-4" d="M21.19,16.81a.38.38,0,0,1-.37-.38V11.31a.38.38,0,0,1,.75,0v5.12A.38.38,0,0,1,21.19,16.81Z"/><path class="cls-4" d="M30.41,16.81a.38.38,0,0,1-.37-.38V11.31a.38.38,0,0,1,.75,0v5.12A.38.38,0,0,1,30.41,16.81Z"/><path class="cls-4" d="M38.61,16.78a.34.34,0,0,1-.35-.35V11.31a.35.35,0,0,1,.35-.35.35.35,0,0,1,.35.35v5.12A.35.35,0,0,1,38.61,16.78Z"/><path class="cls-4" d="M47.83,16.78a.34.34,0,0,1-.35-.35V11.31a.35.35,0,0,1,.35-.35.35.35,0,0,1,.35.35v5.12A.35.35,0,0,1,47.83,16.78Z"/><path class="cls-4" d="M57.05,16.81a.38.38,0,0,1-.38-.38V11.31a.38.38,0,0,1,.75,0v5.12A.38.38,0,0,1,57.05,16.81Z"/><circle class="cls-6" cx="54.09" cy="55.27" r="15.42"/><circle class="cls-7" cx="54.09" cy="55.27" r="12.91"/><g class="cls-2"><path class="cls-6" d="M54.4,61.45v1.93H53V61.46A7.46,7.46,0,0,1,48.76,60l.77-1.74A6.64,6.64,0,0,0,53,59.6V56.15c-1.91-.46-4-1.08-4-3.48,0-1.76,1.27-3.29,4-3.55V47.17H54.4v1.91a7.39,7.39,0,0,1,3.5,1.06l-.71,1.74A7,7,0,0,0,54.4,51v3.48c1.91.47,4,1.07,4,3.47C58.4,59.65,57.1,61.17,54.4,61.45ZM53,54.07V51c-1.22.19-1.74.81-1.74,1.57S52,53.77,53,54.07Zm3.21,4c0-.84-.76-1.24-1.79-1.53v3C55.65,59.38,56.19,58.79,56.19,58.05Z"/></g><path class="cls-7" d="M21.16,39.4A4.43,4.43,0,1,0,16.74,35,4.43,4.43,0,0,0,21.16,39.4Zm-2.3-4.31a.42.42,0,0,1,.57,0l.93.93,2.33-2.33a.39.39,0,0,1,.56,0,.4.4,0,0,1,0,.52l-2.61,2.62a.4.4,0,0,1-.57,0l-1.21-1.21A.45.45,0,0,1,18.86,35.09Z"/><path class="cls-4" d="M21.16,48.44a3.06,3.06,0,1,1,3.06-3.06A3.06,3.06,0,0,1,21.16,48.44Zm0-5.37a2.31,2.31,0,1,0,2.31,2.31A2.31,2.31,0,0,0,21.16,43.07Z"/><path class="cls-4" d="M32.83,48.44a3.06,3.06,0,1,1,3.06-3.06A3.06,3.06,0,0,1,32.83,48.44Zm0-5.37a2.31,2.31,0,1,0,2.31,2.31A2.3,2.3,0,0,0,32.83,43.07Z"/><path class="cls-4" d="M32.83,38.44a3.06,3.06,0,1,1,3.06-3.06A3.06,3.06,0,0,1,32.83,38.44Zm0-5.37a2.31,2.31,0,1,0,2.31,2.31A2.3,2.3,0,0,0,32.83,33.07Z"/><path class="cls-4" d="M44.83,38.44a3.06,3.06,0,1,1,3.06-3.06A3.06,3.06,0,0,1,44.83,38.44Zm0-5.37a2.31,2.31,0,1,0,2.31,2.31A2.3,2.3,0,0,0,44.83,33.07Z"/><path class="cls-4" d="M55.83,38.44a3.06,3.06,0,1,1,3.06-3.06A3.06,3.06,0,0,1,55.83,38.44Zm0-5.37a2.31,2.31,0,1,0,2.31,2.31A2.3,2.3,0,0,0,55.83,33.07Z"/><path class="cls-4" d="M21.16,58.18a3.06,3.06,0,1,1,3.06-3.06A3.06,3.06,0,0,1,21.16,58.18Zm0-5.37a2.31,2.31,0,1,0,2.31,2.31A2.32,2.32,0,0,0,21.16,52.81Z"/><path class="cls-4" d="M32.83,58.18a3.06,3.06,0,1,1,3.06-3.06A3.06,3.06,0,0,1,32.83,58.18Zm0-5.37a2.31,2.31,0,1,0,2.31,2.31A2.31,2.31,0,0,0,32.83,52.81Z"/></svg>