<svg id="Capa_1" data-name="Capa 1" xmlns="http://www.w3.org/2000/svg" viewBox="0 0 80 80"><defs><style>.cls-1{fill:#069169;}.cls-2{fill:none;}.cls-3{fill:#69f;}.cls-4{fill:#d5e9fa;}.cls-5{fill:#0266cf;}.cls-6{fill:#004884;}</style></defs><path class="cls-1" d="M19.58,13.76a.44.44,0,0,1,.38-.47h4.36a.51.51,0,0,1,.46.3.65.65,0,0,1,0,.2v6.36l-5.24,4.33Z"/><path class="cls-2" d="M19.91,13.11a.5.5,0,0,0-.13,0l.75,0Z"/><polygon class="cls-2" points="41.69 64.17 42.58 65.02 43.47 64.08 42.58 65.01 41.69 64.17"/><path class="cls-2" d="M25,13.61a.48.48,0,0,0,0-.2l0,1.94Z"/><path class="cls-2" d="M67.68,34.12a3,3,0,0,0-4.18.1l-1.27,1.32,4.22,4.17,1.34-1.42A3,3,0,0,0,67.68,34.12Z"/><path class="cls-2" d="M14.33,32a1.15,1.15,0,0,0,1.59.15L36.35,15.64,57.57,32a1.16,1.16,0,0,0,1.53-.12,1.14,1.14,0,0,0,.32-.86,1.1,1.1,0,0,0-.43-.82L36.36,11.93l-22,18.22a1.2,1.2,0,0,0-.41.79,1.18,1.18,0,0,0,.27.84Z"/><polygon class="cls-2" points="38.07 60.73 38.88 61.5 61.61 37.48 65.14 41.09 65.81 40.39 61.59 36.21 38.07 60.73"/><polygon class="cls-3" points="34.7 68.11 41.74 65.5 37.58 61.53 34.7 68.11"/><polygon class="cls-1" points="39.01 61.37 42.71 64.88 43.47 64.08 65.14 41.09 61.61 37.48 39.01 61.37"/><path class="cls-4" d="M52.75,42.14V31.37L36.29,18.51,20.69,31.24v23.6H40.58Zm-28.41-10a.53.53,0,0,1,.58-.47H35.44a.53.53,0,0,1,.58.47v.23a.54.54,0,0,1-.58.48H24.92a.53.53,0,0,1-.58-.48Zm0,5.3a.53.53,0,0,1,.58-.47H49.78a.53.53,0,0,1,.57.47v.23a.54.54,0,0,1-.57.48H24.92a.53.53,0,0,1-.58-.48Zm0,5.07a.53.53,0,0,1,.58-.48H49.78a.54.54,0,0,1,.57.48v.23a.54.54,0,0,1-.57.48H24.92a.53.53,0,0,1-.58-.48Zm0,5.3v-.23a.52.52,0,0,1,.55-.48H47.12l-1.21,1a.57.57,0,0,1-.38.14H24.89A.52.52,0,0,1,24.34,47.77Z"/><path class="cls-5" d="M24.92,32.75H35.44c.32,0,.58-.2.58-.43v-.21c0-.23-.26-.43-.58-.43H24.92c-.33,0-.58.2-.58.43v.21C24.34,32.55,24.59,32.75,24.92,32.75Z"/><path class="cls-6" d="M24.92,38.05H49.78c.31,0,.57-.2.57-.43v-.21c0-.23-.26-.43-.57-.43H24.92c-.33,0-.58.2-.58.43v.21C24.34,37.85,24.59,38.05,24.92,38.05Z"/><path class="cls-1" d="M24.92,43.12H49.78c.31,0,.57-.2.57-.43v-.21c0-.23-.26-.43-.57-.43H24.92c-.33,0-.58.2-.58.43v.21C24.34,42.92,24.59,43.12,24.92,43.12Z"/><path class="cls-6" d="M45.53,48.18a.62.62,0,0,0,.38-.12l1.21-.94H24.89a.5.5,0,0,0-.55.43v.2a.5.5,0,0,0,.55.43Z"/><path class="cls-6" d="M59.63,29.4,36.44,10.68l-.08-.06L25.88,19.27V13.61a1.39,1.39,0,0,0-1.39-1.39H19.91a1.39,1.39,0,0,0-1.39,1.39V25.36l-4.85,4a2.16,2.16,0,0,0-.27,3.07l.16.18h0a2.16,2.16,0,0,0,3,.28l19.81-16L57,32.79a2.16,2.16,0,0,0,2.67-3.39ZM19.58,13.76a.44.44,0,0,1,.38-.47h4.36a.51.51,0,0,1,.46.3.65.65,0,0,1,0,.2v6.36l-5.24,4.33ZM59,31.79a1,1,0,0,1-1.36.1L36.43,15.54l-.08-.06L15.84,32a1,1,0,0,1-1.41-.13l-.16-.18a1,1,0,0,1,.12-1.45l22-18.16L58.91,30.28a1,1,0,0,1,.38.73A1,1,0,0,1,59,31.79Z"/><path class="cls-6" d="M68.32,33.46a3.88,3.88,0,0,0-5.49.12L37.08,60.42l-.09.13-3.58,8.19a.46.46,0,0,0,.09.5.43.43,0,0,0,.35.14l.15,0,8.76-3.25a.43.43,0,0,0,.17-.12L68.46,38.93A3.9,3.9,0,0,0,68.32,33.46ZM34.7,68.11l2.88-6.58,4.16,4Zm30.44-27-21.67,23-.77.8L41.81,64,39,61.36l-.81-.77,23.4-24.38,4.22,4.18Zm2.65-2.8-1.21,1.27-4.22-4.17,1.14-1.17a3,3,0,0,1,4.29,4.07Z"/><polygon class="cls-6" points="55.26 39.38 55.26 33.63 54.2 32.6 54.2 40.59 55.26 39.38"/><path class="cls-6" d="M40.58,54.84H19.23V32.35l-1.07,1V54.84H11a.54.54,0,0,0,0,1.07H39.89l.7-1.07Z"/></svg>