<svg xmlns="http://www.w3.org/2000/svg" viewBox="0 0 80 80"><defs><style>.cls-1{fill:#d5e9fa;}.cls-2{fill:#ffab00;}.cls-3{fill:#004884;}.cls-4{fill:#fff;}.cls-5{fill:#0266cf;}.cls-6{fill:#69f;}</style></defs><g id="VIVIENDA"><path class="cls-1" d="M55.12,19.57c1,0,2.73-.7,2.73-1.73A2.43,2.43,0,0,0,56,15.64h-.46a1.87,1.87,0,0,0-1.84-1.15,1.82,1.82,0,0,0-1.85,1.83l.35.69.57.7.81.43h.69l.23.83Z"/><polygon class="cls-2" points="56.3 34.36 51.98 31.06 52 22.39 56.34 22.41 56.3 34.36"/><path class="cls-3" d="M58.79,34.08l-7.14-3.74,0-8.27,7.15,0Zm-6.48-4.14L58.15,33l0-10.27-5.85,0Z"/><polyline class="cls-1" points="60.62 37.58 60.54 65.75 19.38 65.63 19.44 46.5 19.47 35.54 39.24 18.87 60.62 38.45"/><path class="cls-4" d="M60.38,38.63l-5.17-4.5L40.5,21.44l-26,23A1.69,1.69,0,0,1,12.25,42L40.42,17,69.53,42.15a1.72,1.72,0,0,1,.19,2.39,1.63,1.63,0,0,1-1.3.59,1.5,1.5,0,0,1-1.09-.4l-4.77-4.1"/><path class="cls-3" d="M68.42,45.46A1.83,1.83,0,0,1,67.1,45l-4.75-4.08a.33.33,0,0,1,.42-.5l4.77,4.1a1.22,1.22,0,0,0,.88.33,1.3,1.3,0,0,0,1-.47,1.4,1.4,0,0,0-.14-2l-28.9-25L12.47,42.22a1.23,1.23,0,0,0-.43.85,1.54,1.54,0,0,0,.35,1.09,1.25,1.25,0,0,0,.92.42,1.47,1.47,0,0,0,1-.35L40.5,21,60.59,38.39a.32.32,0,0,1,0,.46.33.33,0,0,1-.46,0L55,34.38,40.51,21.87,14.75,44.72a2.19,2.19,0,0,1-1.4.51h-.06a1.89,1.89,0,0,1-1.39-.65A2.17,2.17,0,0,1,11.39,43,1.86,1.86,0,0,1,12,41.73L40.41,16.52l.22.19L69.74,41.9A2.05,2.05,0,0,1,70,44.75,1.94,1.94,0,0,1,68.42,45.46Z"/><path class="cls-5" d="M40.8,55.89a20.22,20.22,0,0,1-7.55-6.4c-1-1.49-2.18-4.39.22-6.57a5.28,5.28,0,0,1,3.59-1.28,5,5,0,0,1,3.48,1.3h.7a5.3,5.3,0,0,1,7,.12c2.38,2.2,1.18,5.09.18,6.58A20.31,20.31,0,0,1,40.8,55.89Z"/><path class="cls-4" d="M40.79,57.12l-.51-.28a21.29,21.29,0,0,1-7.92-6.73c-2-3-1.84-6,.38-8a6.68,6.68,0,0,1,8.16-.29,6.44,6.44,0,0,1,8.06.45c2.18,2,2.31,5,.33,8a21.33,21.33,0,0,1-8,6.61Zm-3.74-14.4a4.23,4.23,0,0,0-2.86,1c-1.88,1.71-.83,4,0,5.17a18.91,18.91,0,0,0,6.66,5.76A19,19,0,0,0,47.51,49c.78-1.16,1.84-3.41,0-5.14A4.24,4.24,0,0,0,42,43.75l-.31.28H40.32l-.51-.28A4,4,0,0,0,37.05,42.72Z"/><polygon class="cls-6" points="6.11 54.73 9.7 53.2 12.61 54.75 12.58 65.61 6.08 65.59 6.11 54.73"/><polygon class="cls-6" points="12.61 55.14 15.91 53.8 19.11 55.16 19.08 65.63 12.58 65.61 12.61 55.14"/><path class="cls-3" d="M19.08,65.8a.31.31,0,0,1-.33-.28l0-10.33-2.87-1.13-3,1.12,0,10.32a.31.31,0,0,1-.33.28.31.31,0,0,1-.33-.28l0-10.68,3.64-1.37,3.52,1.39,0,10.68A.31.31,0,0,1,19.08,65.8Z"/><path class="cls-3" d="M12.88,65.94l-6.83,0,0-11.5,3.43-1.54,3.12,1.47a.33.33,0,0,1,.16.44.35.35,0,0,1-.44.16L9.5,53.61,6.74,54.84l0,10.42,6.17,0a.33.33,0,0,1,.33.33A.33.33,0,0,1,12.88,65.94Z"/><path class="cls-3" d="M34.24,66l-21.66-.06a.33.33,0,0,1-.33-.34.32.32,0,0,1,.33-.32l21.66.06a.33.33,0,0,1,0,.66Z"/><polygon class="cls-6" points="73.92 65.59 67.42 65.61 67.39 54.75 70.3 53.2 73.89 54.73 73.92 65.59"/><polygon class="cls-6" points="67.42 65.61 60.92 65.63 60.89 55.16 64.08 53.8 67.39 55.14 67.42 65.61"/><path class="cls-3" d="M60.92,65.8a.31.31,0,0,0,.33-.28l0-10.33,2.87-1.13,3,1.12,0,10.32a.31.31,0,0,0,.33.28.31.31,0,0,0,.33-.28l0-10.68-3.64-1.37-3.52,1.39,0,10.68A.31.31,0,0,0,60.92,65.8Z"/><path class="cls-3" d="M67.12,65.94l6.83,0,0-11.5-3.43-1.54-3.12,1.47a.33.33,0,0,0-.16.44.35.35,0,0,0,.44.16l2.85-1.34,2.76,1.23,0,10.42-6.17,0a.33.33,0,0,0-.33.33A.33.33,0,0,0,67.12,65.94Z"/><path class="cls-3" d="M45.76,66l21.66-.06a.33.33,0,0,0,.33-.34.32.32,0,0,0-.33-.32l-21.66.06a.33.33,0,0,0,0,.66Z"/><path class="cls-3" d="M56,20a2.18,2.18,0,0,1-2.11-1.58h-.15a2.2,2.2,0,1,1,2.13-2.81h.15A2.2,2.2,0,1,1,56,20Zm-2.25-5.32a1.55,1.55,0,0,0,0,3.09h.65l.06.26A1.57,1.57,0,0,0,56,19.32a1.55,1.55,0,0,0,0-3.09h-.66l0-.25A1.59,1.59,0,0,0,53.78,14.65Z"/></g></svg>