<svg id="Capa_1" data-name="Capa 1" xmlns="http://www.w3.org/2000/svg" viewBox="0 0 80 80"><defs><style>.cls-1{fill:none;}.cls-2{fill:#d5e9fa;}.cls-3{fill:#004884;}.cls-4{fill:#ffab00;}.cls-5{fill:#0266cf;}.cls-6{fill:#fff;}</style></defs><rect class="cls-1" x="5" y="5" width="70" height="70"/><path class="cls-2" d="M62.75,59.33H15.58a3.91,3.91,0,0,1-3.91-3.91V28.25a3.92,3.92,0,0,1,3.91-3.92H62.75a3.93,3.93,0,0,1,3.92,3.92V55.42A3.92,3.92,0,0,1,62.75,59.33Z"/><path class="cls-3" d="M64.08,59.54H14.92a5.3,5.3,0,0,1-5.3-5.29V35.83a.38.38,0,0,1,.76,0V54.25a4.54,4.54,0,0,0,4.54,4.54H64.08a4.49,4.49,0,0,0,4.54-4.54.38.38,0,0,1,.76,0A5.24,5.24,0,0,1,64.08,59.54Z"/><path class="cls-4" d="M69.17,44.54a.38.38,0,0,1-.38-.37V25.75a4.55,4.55,0,0,0-4.54-4.54H15a4.49,4.49,0,0,0-4.54,4.54.38.38,0,0,1-.75,0A5.23,5.23,0,0,1,15,20.46H64.25a5.29,5.29,0,0,1,5.29,5.29V44.17A.38.38,0,0,1,69.17,44.54Z"/><path class="cls-3" d="M62.5,37H45a.38.38,0,1,1,0-.75H62.5a.38.38,0,1,1,0,.75Z"/><path class="cls-3" d="M62.5,39.54H45a.38.38,0,1,1,0-.75H62.5a.38.38,0,1,1,0,.75Z"/><path class="cls-3" d="M62.5,42H45a.38.38,0,1,1,0-.75H62.5a.38.38,0,1,1,0,.75Z"/><path class="cls-3" d="M62.5,44.54H45a.38.38,0,1,1,0-.75H62.5a.38.38,0,1,1,0,.75Z"/><path class="cls-3" d="M62.5,47H45a.38.38,0,1,1,0-.75H62.5a.38.38,0,1,1,0,.75Z"/><path class="cls-5" d="M41.67,50.08a3.25,3.25,0,0,1-3.25,3.25H16.59a3.25,3.25,0,0,1-3.26-3.24V29.91a3.26,3.26,0,0,1,3.26-3.24H38.41a3.25,3.25,0,0,1,3.26,3.24Z"/><circle class="cls-6" cx="27.4" cy="34.81" r="4.25"/><path class="cls-6" d="M36.33,45.15h0a3.5,3.5,0,0,0-3.49-3.48H22.38a3.5,3.5,0,0,0-3.48,3.48h0A4.84,4.84,0,0,0,23.74,50H31.4A5,5,0,0,0,36.33,45.15Z"/></svg>