<?xml version="1.0" encoding="utf-8"?>
<!-- Generator: Adobe Illustrator 25.4.1, SVG Export Plug-In . SVG Version: 6.00 Build 0)  -->
<svg version="1.1" id="Capa_1" xmlns="http://www.w3.org/2000/svg" xmlns:xlink="http://www.w3.org/1999/xlink" x="0px" y="0px"
	 viewBox="0 0 80 80" style="enable-background:new 0 0 80 80;" xml:space="preserve">
<style type="text/css">
	.st0{fill:#6797FD;}
	.st1{fill:#034782;}
	.st2{opacity:0.3;}
	.st3{fill:#D3E7F8;}
	.st4{opacity:0.4;}
	.st5{fill:#FDA902;}
	.st6{fill:#2A4980;}
</style>
<g>
	<g>
		<g>
			<path class="st0" d="M54.6,14.4l10.7,0.1c0.9,0,1.2,1.1,1.2,2l-0.4,15.9c0,1.6-1.3,2.9-2.9,2.9l0,0c-0.5,0-0.9,0.5-0.9,1
				l-0.4,30.5c0,2.1-1.6,3.6-3.8,3.5l-36,0L23.1,14L54.6,14.4z"/>
			<path class="st1" d="M66.4,14.7c-0.4-0.4-0.9-0.6-1.4-0.6L54,14l-32.3-0.2l-0.2,0l-1,57.7c0,0,37.5,0,37.5,0
				c2.6,0.1,4.5-1.5,4.5-3.9l0-31.1c0-0.4,0.3-0.7,0.6-0.7c1.8-0.1,3.3-1.7,3.3-3.5l0.4-16.2C66.9,15.6,66.7,15.1,66.4,14.7z
				 M58,70.7C58,70.7,58,70.7,58,70.7H21.2l0.9-56.3L54,14.7l11,0.1c0.4,0,0.7,0.1,0.9,0.4c0.2,0.3,0.4,0.6,0.4,0.9l-0.4,16.2
				c0,1.4-1.3,2.7-2.7,2.8c-0.7,0-1.3,0.6-1.3,1.4l0,31.1C61.8,69.5,60,70.8,58,70.7z"/>
		</g>
		<g class="st2">
			<polygon points="15.2,56.1 19,55.7 21.5,52.7 15.3,54.1 			"/>
		</g>
		<g>
			<g>
				<g>
					<path class="st1" d="M14.9,67.7c-0.4,0-0.8-0.3-1.1-0.6c-0.3-0.4-0.5-0.8-0.5-1.3l0.1-52c0-1.1,0.7-1.8,1.7-1.8
						c0.2,0,0.3,0.1,0.3,0.3c0,0.2-0.1,0.3-0.3,0.3c-0.7,0-1.1,0.6-1.1,1.3l-0.1,52c0,0.3,0.1,0.7,0.4,0.9c0.2,0.2,0.6,0.4,0.9,0.4
						l38,0c1.1,0,1.1-0.4,1.2-0.6c0.1-0.2,0.1-0.3,0.3-0.3c0.2,0,0.3,0.1,0.3,0.3c-0.1,0.8-0.6,1.2-1.8,1.2
						C53.2,67.7,15,67.7,14.9,67.7z"/>
				</g>
			</g>
		</g>
		<g>
			<g>
				<path class="st3" d="M15.4,11.4l-0.3,52.6c0,0.9,0.7,1.6,1.6,1.6l38.5,0.3c0.9,0,1.6-0.7,1.6-1.6l-0.3-52.8
					c0-0.9-0.7-1.6-1.6-1.6L17,9.8C16.1,9.8,15.4,10.5,15.4,11.4z"/>
			</g>
		</g>
		<g>
			<g>
				<g>
					<path class="st1" d="M25.2,55.9c-0.2,0-0.3-0.1-0.3-0.3c0-0.2,0.1-0.4,0.3-0.4c0,0,0.1,0,0.2,0c0,0,0.1,0,0.1,0
						c0.1,0,0.2,0,0.3-0.1c0.5-0.1,1-0.3,1.5-0.5c0.3-0.1,0.6-0.3,1-0.5c0.2-0.1,0.3-0.2,0.4-0.3c-0.2-0.2-0.3-0.5-0.4-0.7
						c-0.4-0.8-0.5-1.8-0.4-2.6c0.1-0.5,0.2-0.9,0.4-1.3c0.2-0.4,0.5-0.8,0.9-1c0.4-0.3,0.9-0.4,1.4-0.3c0.4,0.1,0.8,0.4,1.1,0.8
						c0.3,0.4,0.4,0.8,0.4,1.2c0,0.4,0,0.7-0.1,1.1c-0.2,0.7-0.6,1.3-0.9,1.7c-0.3,0.4-0.7,0.8-1.1,1.2c0.2,0.2,0.4,0.4,0.7,0.5
						c0.7,0.4,1.5,0.6,2.3,0.6c0.9,0,1.7-0.3,2.4-0.7c0.3-0.2,0.6-0.4,0.8-0.7c-0.8-0.6-1.5-1.5-1.9-2.5c-0.2-0.4-0.2-0.9-0.2-1.4
						c0-0.5,0.1-1,0.3-1.5c0.2-0.5,0.6-1,1.1-1.2c0.3-0.1,0.5-0.2,0.8-0.2c0.3,0,0.6,0.1,0.9,0.2c0.5,0.2,0.9,0.7,1.2,1.2
						c0.2,0.4,0.3,1,0.3,1.6c0,1-0.3,2.1-0.8,3c-0.1,0.2-0.2,0.4-0.4,0.6c0.2,0.1,0.5,0.2,0.7,0.2c0.6,0.1,1.3,0.1,1.9-0.1
						c0.6-0.2,1.1-0.4,1.6-0.8c0.4-0.3,0.8-0.8,1.1-1.2c0.1-0.2,0.3-0.4,0.4-0.7c0.1-0.2,0.1-0.4,0.2-0.7c0.1-0.7,0.1-1.5-0.1-2.4
						c-0.1-0.6-0.4-1.1-0.6-1.4c-0.1-0.1-0.2-0.2-0.2-0.2c0,0,0,0-0.1,0c-0.1,0-0.2-0.1-0.2-0.2c0-0.1,0-0.2,0-0.3
						c0.1-0.2,0.3-0.2,0.5-0.2c0,0,0,0,0.1,0c0,0,0.1,0.1,0.2,0.1c0.1,0.1,0.3,0.2,0.4,0.4c0.3,0.4,0.6,1,0.7,1.6
						c0.3,1,0.3,1.9,0.2,2.8c-0.1,0.3-0.1,0.6-0.2,0.8c-0.1,0.3-0.3,0.6-0.4,0.8c-0.4,0.6-0.8,1-1.3,1.4c-0.6,0.5-1.2,0.8-1.9,1
						c-0.8,0.2-1.6,0.3-2.4,0.1c-0.4-0.1-0.8-0.2-1.1-0.4c-0.3,0.4-0.7,0.7-1.2,1c-0.9,0.5-1.9,0.8-2.9,0.8c-1,0-2-0.3-2.8-0.8
						c-0.3-0.2-0.6-0.5-0.9-0.7c-0.2,0.1-0.3,0.2-0.5,0.4c-0.4,0.2-0.8,0.4-1.1,0.6c-0.5,0.2-1.1,0.4-1.6,0.5
						C25.6,55.9,25.3,55.9,25.2,55.9C25.3,55.9,25.3,55.9,25.2,55.9z M30.2,48.6c-0.2,0-0.4,0-0.6,0.2c-0.2,0.1-0.4,0.4-0.6,0.7
						c-0.1,0.3-0.2,0.6-0.3,1c-0.1,0.7,0,1.5,0.4,2.2c0.1,0.2,0.2,0.4,0.3,0.5c0.4-0.3,0.7-0.7,1-1.1c0.3-0.4,0.6-0.9,0.8-1.5
						c0.1-0.3,0.1-0.5,0.1-0.8c0-0.3-0.1-0.5-0.3-0.7c-0.2-0.2-0.4-0.4-0.6-0.4C30.3,48.6,30.2,48.6,30.2,48.6z M36.4,47.7
						c0,0-0.1,0-0.1,0c-0.2,0-0.3,0-0.5,0.1c-0.3,0.2-0.6,0.5-0.7,0.8C35,48.9,35,49.3,35,49.7c0,0.4,0.1,0.8,0.2,1.1
						c0.3,0.9,0.9,1.6,1.6,2.1c0.1-0.2,0.3-0.4,0.4-0.6c0.4-0.8,0.7-1.7,0.6-2.6c0-0.5-0.1-0.9-0.2-1.2c-0.2-0.3-0.4-0.6-0.7-0.8
						C36.7,47.8,36.6,47.7,36.4,47.7z"/>
				</g>
			</g>
		</g>
		<g class="st4">
			<polygon class="st0" points="15.2,56.3 18.8,56.1 21,52.9 15.2,54.5 			"/>
		</g>
		<g>
			<g>
				<polygon class="st5" points="11.9,46.2 19.7,46.1 23.3,49.7 19.8,54.5 11.9,54.9 				"/>
			</g>
		</g>
		<g>
			<path class="st6" d="M32.4,58.8H19.6c-0.1,0-0.2-0.1-0.2-0.2s0.1-0.2,0.2-0.2h12.8c0.1,0,0.2,0.1,0.2,0.2S32.5,58.8,32.4,58.8z"
				/>
		</g>
		<g>
			<path class="st6" d="M26.7,60.5h-7.1c-0.1,0-0.2-0.1-0.2-0.2s0.1-0.2,0.2-0.2h7.1c0.1,0,0.2,0.1,0.2,0.2S26.8,60.5,26.7,60.5z"/>
		</g>
	</g>
	<g>
		<path class="st1" d="M50.4,26.3H19.9c-0.3,0-0.5-0.2-0.5-0.5s0.2-0.5,0.5-0.5h30.6c0.3,0,0.5,0.2,0.5,0.5S50.7,26.3,50.4,26.3z"/>
	</g>
	<g>
		<path class="st1" d="M50.4,21.4H30c-0.4,0-0.8-0.3-0.8-0.8s0.3-0.8,0.8-0.8h20.4c0.4,0,0.8,0.3,0.8,0.8S50.9,21.4,50.4,21.4z"/>
	</g>
	<g>
		<path class="st1" d="M50.4,30.3H19.9c-0.3,0-0.5-0.2-0.5-0.5s0.2-0.5,0.5-0.5h30.6c0.3,0,0.5,0.2,0.5,0.5S50.7,30.3,50.4,30.3z"/>
	</g>
	<g>
		<path class="st1" d="M50.4,34.3H19.9c-0.3,0-0.5-0.2-0.5-0.5s0.2-0.5,0.5-0.5h30.6c0.3,0,0.5,0.2,0.5,0.5S50.7,34.3,50.4,34.3z"/>
	</g>
	<g>
		<path class="st1" d="M50.4,38.2H19.9c-0.3,0-0.5-0.2-0.5-0.5s0.2-0.5,0.5-0.5h30.6c0.3,0,0.5,0.2,0.5,0.5S50.7,38.2,50.4,38.2z"/>
	</g>
	<g>
		<path class="st1" d="M38.7,42.2H19.9c-0.3,0-0.5-0.2-0.5-0.5s0.2-0.5,0.5-0.5h18.9c0.3,0,0.5,0.2,0.5,0.5S39,42.2,38.7,42.2z"/>
	</g>
</g>
</svg>
