<svg xmlns="http://www.w3.org/2000/svg" viewBox="0 0 80 80"><defs><style>.cls-1{fill:none;}.cls-2{fill:#d5e9fa;}.cls-3{fill:#69f;}.cls-4{fill:#ffab00;}.cls-5{fill:#fff;}.cls-6{fill:#004884;}</style></defs><g id="INCLUSION"><path class="cls-1" d="M59.38,23.24a5.07,5.07,0,0,1,3-.72,5.57,5.57,0,0,0-4.08.59,5.31,5.31,0,0,0,4.43,2.28A4.78,4.78,0,0,1,59.38,23.24Z"/><path class="cls-1" d="M68.72,18.88a6.19,6.19,0,0,0,3-4.11,6.15,6.15,0,0,0-4.54,1.83,5.47,5.47,0,0,1,3.62-1.16A5.08,5.08,0,0,1,68.72,18.88Z"/><polygon class="cls-1" points="29.72 52.16 24.66 55 28.38 53.14 29.72 52.16"/><path class="cls-1" d="M68.08,36.69l.18,0-3.11-2.19v.2Z"/><path class="cls-1" d="M0,0V80H80V0Z"/><path class="cls-2" d="M62.06,31.9c-2.18-.62-5.23-.08-6.75,1.63a6.54,6.54,0,0,0-.41.51.36.36,0,0,1-.51.12.34.34,0,0,1-.09-.08l0,0-.16.12-.39.22a.13.13,0,0,1,0,.06.36.36,0,0,1,0,.25.39.39,0,0,1-.34.21.59.59,0,0,1-.17,0h0l-1.11-.58-4.33-2.23c-7.62-2.9-20.53-8-25-10.68a6.42,6.42,0,0,1-1.38-1,21.6,21.6,0,0,0,2.23,8.1L25,29l.55.2,22.41,8.22a.38.38,0,0,1,.23.48.39.39,0,0,1-.36.25l-.13,0-.09,0-4.88-1.79-17.2-5.52L10.89,26.07l-2.31-.74c3.11,5.84,12.08,21,22.5,23.22a11.28,11.28,0,0,0,3.21.24,13,13,0,0,0,7.45-3.06l.11-.08a.36.36,0,0,1,.44,0l.09.07a.37.37,0,0,1-.06.52,13.63,13.63,0,0,1-8.68,3.35l-.4,0-.76.56,0,0a.37.37,0,0,1-.14.51l-2.65,1.49-1.34,1L24.66,55l-6.41,3.61c-.22,1-1.2,6.36,2.43,8.53l0,0a9.38,9.38,0,0,0,4,1,3.1,3.1,0,0,0,2.95-1.7l3.2-6.2A2.63,2.63,0,0,1,34,59.09a3.4,3.4,0,0,0,.34.12,17.25,17.25,0,0,0,7.14,1c2.75-1.2,8-3.76,11.72-7.09a25.89,25.89,0,0,0,2.94-4.86c.11-.24.17-.39.17-.4,1.8-7,2.26-7.63,4.59-8.79l.42-.21c1.37-.64,3.07-1.44,3.07-4.56C64.41,32.74,62.76,32.1,62.06,31.9Zm-2.18,2.84c-.27,0-.5-.36-.5-.8s.23-.8.5-.8.5.36.5.8S60.16,34.74,59.88,34.74Z"/><path class="cls-3" d="M62.39,22.52a5.07,5.07,0,0,0-3,.72,4.78,4.78,0,0,0,3.36,2.15,7.18,7.18,0,0,0,3-.72A6.61,6.61,0,0,0,62.39,22.52Z"/><path class="cls-3" d="M66.18,19.45a5.51,5.51,0,0,0,2.54-.57,5.08,5.08,0,0,0,2.06-3.44,5.47,5.47,0,0,0-3.62,1.16,5.92,5.92,0,0,0-1.42,2.83Z"/><path class="cls-4" d="M64.37,37.47l3.71-.78-2.93-2A5.59,5.59,0,0,1,64.37,37.47Z"/><path class="cls-5" d="M22.71,21.38l-.78-2.64-.32-.16a.25.25,0,0,0-.25,0,.18.18,0,0,0-.1.14c0,.4,0,1,.07,1.62A6.42,6.42,0,0,0,22.71,21.38Z"/><path class="cls-5" d="M47.75,32.06,21.93,18.74l.78,2.64C27.22,24.1,40.13,29.16,47.75,32.06Z"/><path class="cls-5" d="M7.72,22.88a.37.37,0,0,1,.38-.09L8,22.74s-1.39,0-.89.68a.82.82,0,0,1,.14-.28A.77.77,0,0,1,7.72,22.88Z"/><path class="cls-5" d="M7.72,23.68c.08.15.18.35.28.56l2.89,1.83,14.59,4.68-.27-.89L7.85,23.5a.36.36,0,0,1-.16-.14.41.41,0,0,0-.11.07.59.59,0,0,0,0,.08A.37.37,0,0,1,7.72,23.68Z"/><path class="cls-5" d="M8.58,25.33l2.31.74L8,24.24Z"/><polygon class="cls-5" points="25.48 30.75 42.68 36.27 25.21 29.86 25.48 30.75"/><path class="cls-5" d="M16.86,60.91c.39,3.45,2,5.29,3.8,6.25l0,0C17.05,65,18,59.59,18.25,58.61l-.28.16A2.21,2.21,0,0,0,16.86,60.91Z"/><path class="cls-5" d="M51,55.7a21.69,21.69,0,0,0,2.25-2.54c-3.68,3.33-9,5.89-11.72,7.09A15.3,15.3,0,0,0,51,55.7Z"/><path class="cls-6" d="M60.38,33.94c0-.44-.22-.8-.5-.8s-.5.36-.5.8.23.8.5.8S60.38,34.38,60.38,33.94Z"/><path class="cls-6" d="M71.48,41.64c-.3-.6-.5-1.3-.8-1.9a10.66,10.66,0,0,1-.7-1.9c-.07-.26-.14-.49-.22-.74L70.1,37l-.46-.32c-.08-.28-.17-.56-.26-.87-.8-2.6-1.5-5.3-2.1-8s-1.08-5.31-1.57-8l.46,0c5.12,0,6-5.27,6-5.32l0-.26H72c-4.5,0-6,2.82-6.5,4.35-.19-1-.35-2-.5-3-.2-1.4-.4-2.7-.6-4.1a46.51,46.51,0,0,0,.7,8.3q.24,2.06.6,4.14a6.17,6.17,0,0,0-7.83-1.12l-.19.13.14.18a5.75,5.75,0,0,0,4.88,2.65,7.83,7.83,0,0,0,3.21-.73c.18,1,.38,2,.59,2.95a56.13,56.13,0,0,0,2.3,8l0,.08L65,33.44a3.76,3.76,0,0,0-2.75-2.26c-2.64-.75-6.45,0-8,2.47a.34.34,0,0,0,0,.41l0,0a.34.34,0,0,0,.09.08A.36.36,0,0,0,54.9,34a6.54,6.54,0,0,1,.41-.51c1.52-1.71,4.57-2.25,6.75-1.63.7.2,2.35.84,2.35,2.44,0,3.12-1.7,3.92-3.07,4.56l-.42.21c-2.33,1.16-2.79,1.79-4.59,8.79,0,0-.06.16-.17.4a25.89,25.89,0,0,1-2.94,4.86A21.69,21.69,0,0,1,51,55.7a15.3,15.3,0,0,1-9.47,4.55,17.25,17.25,0,0,1-7.14-1,3.4,3.4,0,0,1-.34-.12,2.63,2.63,0,0,0-3.17,1.18l-3.2,6.2a3.1,3.1,0,0,1-2.95,1.7,9.38,9.38,0,0,1-4-1c-1.8-1-3.41-2.8-3.8-6.25A2.21,2.21,0,0,1,18,58.77l.28-.16L24.66,55l5.06-2.84,2.65-1.49a.37.37,0,0,0,.14-.51l0,0A.36.36,0,0,0,32,50L17.6,58.11a3,3,0,0,0-1,.88,3,3,0,0,0-.52,2c.41,3.67,2.14,5.65,4,6.72a10.22,10.22,0,0,0,4.53,1.22h.25a3.86,3.86,0,0,0,3.41-2.12l3.19-6.19a1.88,1.88,0,0,1,2.24-.83A17.93,17.93,0,0,0,41.12,61C52,60.37,57,48.32,57.05,48.14s.12-.49.19-.73c1.63-6.26,2.06-6.66,4-7.63l.41-.2a7.28,7.28,0,0,0,1.92-1.17l5.65-1.19a33.58,33.58,0,0,0,3.15,6.32C72.08,42.94,71.78,42.24,71.48,41.64Zm-4.32-25a6.15,6.15,0,0,1,4.54-1.83,6.19,6.19,0,0,1-3,4.11,5.51,5.51,0,0,1-2.54.57l-.44,0A5.92,5.92,0,0,1,67.16,16.6Zm-4.42,8.79a5.31,5.31,0,0,1-4.43-2.28,5.57,5.57,0,0,1,4.08-.59,6.61,6.61,0,0,1,3.33,2.15A7.18,7.18,0,0,1,62.74,25.39Zm5.34,11.3-3.71.78a5.59,5.59,0,0,0,.78-2.81v-.2l3.11,2.19Z"/><path class="cls-6" d="M30.92,49.29a12.33,12.33,0,0,0,2.32.27l.4,0a13.63,13.63,0,0,0,8.68-3.35.37.37,0,0,0,.06-.52l-.09-.07a.36.36,0,0,0-.44,0l-.11.08a13,13,0,0,1-7.45,3.06,11.28,11.28,0,0,1-3.21-.24C20.66,46.3,11.69,31.17,8.58,25.33L8,24.24c-.1-.21-.2-.41-.28-.56a.37.37,0,0,0-.18-.17.59.59,0,0,1,0-.08.41.41,0,0,1,.11-.07.36.36,0,0,0,.16.14l17.36,6.36,17.47,6.41,4.88,1.79.09,0,.13,0a.39.39,0,0,0,.36-.25.38.38,0,0,0-.23-.48L25.5,29.17,25,29l-1.39-.51a21.6,21.6,0,0,1-2.23-8.1c-.06-.67-.07-1.22-.07-1.62a.18.18,0,0,1,.1-.14.25.25,0,0,1,.25,0l.32.16L47.75,32.06l4.33,2.23,1.11.58h0a.59.59,0,0,0,.17,0,.39.39,0,0,0,.34-.21.36.36,0,0,0,0-.25.13.13,0,0,0,0-.06.35.35,0,0,0-.17-.19L22,17.91A1,1,0,0,0,21,18a.92.92,0,0,0-.46.78,23.07,23.07,0,0,0,2,9.34L8.11,22.79h0a.37.37,0,0,0-.38.09.77.77,0,0,0-.49.26.82.82,0,0,0-.14.28.9.9,0,0,0,0,.23.38.38,0,0,0,0,.36C8.93,27.78,18.93,46.69,30.92,49.29Z"/></g></svg>