<?xml version="1.0" encoding="utf-8"?>
<!-- Generator: Adobe Illustrator 26.3.1, SVG Export Plug-In . SVG Version: 6.00 Build 0)  -->
<svg version="1.1" id="Capa_1" xmlns="http://www.w3.org/2000/svg" xmlns:xlink="http://www.w3.org/1999/xlink" x="0px" y="0px"
	 viewBox="0 0 80 80" style="enable-background:new 0 0 80 80;" xml:space="preserve">
<style type="text/css">
	.st0{fill-rule:evenodd;clip-rule:evenodd;fill:#0266CF;}
	.st1{fill-rule:evenodd;clip-rule:evenodd;fill:#D5E9FA;}
	.st2{fill:none;stroke:#004884;stroke-linejoin:round;}
	.st3{fill:none;stroke:#004884;stroke-linecap:round;stroke-linejoin:round;}
	.st4{fill-rule:evenodd;clip-rule:evenodd;fill:#F42F63;}
</style>
<path class="st0" d="M58.2,50.1c-0.2-1-0.1-13.6,0-15.5c0-0.9,0.1-1.8,0.5-2.6c0.5-1,1.1-1.9,2-2.6c1-0.9,2-1.8,3-2.7
	c1.8-1.6,3.4-3.5,4.8-5.5c0.7-0.9,1.2-2,1.4-3.1c0-1-0.4-1.9-1.1-2.6l0,0c-1.1-0.7-2.3-0.1-3.2,0.6c-0.4,0.3-0.7,0.6-1,1
	C63.7,18,62.9,19,62,19.8c-2.2,2-4.7,3.6-7.5,4.7c-5.3,2.1-10.9,2.5-16.4,3.6c-2.2,0.4-4.4,1.1-6.4,2.1c-0.4,0.2-0.6,0.3-0.1,0.6
	c3.3,0.9,6.7,1.4,10.1,1.5c0.8-0.1,1.4,0.5,1.5,1.2c0.4,2.1,0.6,4.2,0.6,6.3c0,1.4,0.2,4.7,0.2,4.7c2.5,0,4.9,0.7,7,2.1
	C53.2,48.1,55.7,49.3,58.2,50.1z"/>
<path class="st1" d="M28.1,28.4c2.4,0,4.4-2,4.4-4.4s-2-4.4-4.4-4.4s-4.4,2-4.4,4.4l0,0C23.8,26.4,25.7,28.4,28.1,28.4z"/>
<path class="st0" d="M47.7,23.3c3,0,5.4-2.4,5.4-5.3c-0.2-3.1-2.7-5.6-5.8-5.7c-2.8,0-5.1,2.3-5,5.1c0,0.2,0,0.4,0,0.6
	C42.6,21,44.7,23.4,47.7,23.3L47.7,23.3z"/>
<path class="st2" d="M43.6,44.5c0,0,0.2-3.3,0.2-4.7c0-2.1-0.2-4.2-0.6-6.3c-0.1-0.7-0.8-1.3-1.5-1.2c-3.4-0.2-6.8-0.7-10.1-1.5
	c-0.5-0.3-0.3-0.5,0.1-0.6c2-1,4.2-1.7,6.4-2.1c5.5-1.1,11.2-1.6,16.4-3.6c2.8-1.1,5.3-2.7,7.5-4.7c0.9-0.9,1.7-1.8,2.6-2.7
	c0.3-0.4,0.6-0.7,1-1c0.9-0.7,2.1-1.2,3.2-0.6l0,0c0.7,0.6,1.1,1.6,1.1,2.6c-0.2,1.1-0.7,2.2-1.4,3.1c-1.4,2-3,3.9-4.8,5.5
	c-1,0.9-2,1.8-3,2.7c-0.9,0.7-1.5,1.6-2,2.6c-0.3,0.8-0.5,1.7-0.5,2.6C58.1,36.4,58.4,49,58.6,50"/>
<path class="st1" d="M33,52.2c-1.8-6-3.6-12.1-2.8-12.6s6.6-0.1,8.9-1.7c0.8-0.8,1-2,0.6-3c-0.5-0.8-1.3-0.9-2.2-0.9
	c-1.3-0.1-2.6-0.3-3.8-0.6c-3.9-0.8-8.1-1.3-11.4-3.9c-2.6-2-4.5-3.8-5.7-6.9c-0.5-1.5-1-2.9-1.7-4.3c-0.3-0.6-1.7-3-1.7-3.1
	c-0.6,0.1-0.4,0.3-0.6,0.9c-0.2,0.6-0.3,1.3-0.2,2c0.1,1.4,0.3,2.9,0.6,4.3c0.6,2.2,1.4,4.3,2.6,6.3c1.2,2.4,2.5,4,3.1,5.9
	c3.1,10.2,2.1,21.9,1.8,25C20.2,61,27,64.2,28.5,65c1.1,0.4,2.2,0.9,3.2,1.4c2.4-1.7,4.4-3.8,6.1-6.2C36.5,59.2,33.4,54.9,33,52.2z"
	/>
<path class="st2" d="M27.3,29c2.9,0,5.2-2.3,5.2-5.2s-2.3-5.2-5.2-5.2s-5.2,2.3-5.2,5.2c0,0,0,0,0,0C22.1,26.7,24.5,29,27.3,29
	C27.3,29,27.3,29,27.3,29z"/>
<path class="st3" d="M18.3,46.5c0,0.5,0.1,1,0.1,1.5c0.2,3.9,0,7.9-0.4,11.8c-0.1,1.3,7.9,4.7,9.5,5.5c0.5,0.2,3.5,1.3,3.5,1.4
	c2.5-1.7,4.7-3.8,6.5-6.2c-4.3-3.2-8.3-20.3-7.3-20.8s6.4,0.1,8.8-1.5c0.8-0.8,1.1-2,0.6-3c-0.5-0.8-1.4-0.9-2.3-1
	c-1.4-0.1-2.8-0.3-4.2-0.6c-4.2-0.8-8.4-1.9-11.9-4.4c-2.8-2-4.4-4.9-5.7-8c-0.7-1.8-1.5-3.5-2.4-5.2c-0.3-0.6-1-0.9-1.6-0.8
	c-0.6,0.1-1.1,0.5-1.3,1.1c-0.2,0.6-0.3,1.3-0.2,2c0.1,1.4,0.3,2.9,0.6,4.3c0.6,2.4,1.4,4.8,2.6,7c0.9,1.7,2.3,3.3,2.9,5.1
	c0.8,2.9,1.4,5.8,1.8,8.8"/>
<path class="st4" d="M53.5,54c-1,0.7-2,1.3-3.2,1.6c-4.2,1.3-8.7-0.3-12.5-2c-0.4-0.2-0.9-0.3-1.3-0.1c-0.5,0.2-0.3,0.8-0.2,1.2
	c0.1,0.6,0.4,1.2,0.8,1.6c1.6,1.6,3.5,2.9,5.5,3.7c1,0.4,0.7,2.1,0.7,2.9c0,1.8,0,2.6,0.1,4.4c2.8,0.1,5.6,0,8.3-0.3
	c0-2.4,0.2-5.4,0.1-7.7c0-1.2,0.3-1.1,1.1-1.6c1.3-0.7,2.5-1.5,3.6-2.3c0.9-0.7,1.6-1.7,1.9-2.8C58.2,49.9,54.2,53.5,53.5,54
	L53.5,54z"/>
<path class="st4" d="M47.7,54c1.9-0.1,3.4-1.6,3.4-3.5c0-1.9-1.5-3.5-3.4-3.5c-1.9,0-3.5,0.8-3.7,3.2c-0.2,1.9,1.2,3.6,3.1,3.8
	C47.4,54,47.5,54,47.7,54z"/>
<path class="st2" d="M53.7,54.1c-1,0.7-2,1.3-3.2,1.7c-4.3,1.4-8.8-0.3-12.6-2c-0.4-0.3-0.9-0.3-1.4-0.1c-0.5,0.2-0.3,0.8-0.2,1.2
	c0.1,0.6,0.4,1.2,0.8,1.6c1.6,1.6,3.5,2.9,5.6,3.8c1,0.4,0.7,2.2,0.7,3c0,1.9,0,3.7,0.1,5.6c3.2,0.1,6.4-0.1,9.6-0.5
	c0-2.4,0.2-5.9,0.1-8.3c0-1.2,0.3-1.1,1.1-1.7c0.9-0.6,1.8-1.3,2.6-2c1.2-0.9,1.9-2.4,1.8-3.9C58.5,49.9,54.4,53.6,53.7,54.1
	L53.7,54.1z"/>
<path class="st2" d="M47.1,54c2.1-0.1,3.8-1.8,3.9-3.9c0-2.2-1.7-3.9-3.9-3.9c-2.1,0-3.9,0.9-4.1,3.5c-0.2,2.1,1.3,4.1,3.5,4.3
	C46.7,54,46.9,54,47.1,54z"/>
<path class="st2" d="M47.4,23.4c3.2,0,5.9-2.7,5.9-6.1c0-3.4-2.6-6.1-5.8-6.1c-3.2,0-5.9,2.7-5.9,6.1c0,0,0,0,0,0
	C41.5,20.6,44.2,23.4,47.4,23.4C47.4,23.4,47.4,23.4,47.4,23.4z"/>
</svg>
