<svg id="Capa_1" data-name="Capa 1" xmlns="http://www.w3.org/2000/svg" viewBox="0 0 80 80"><defs><style>.cls-1{fill:#d5e9fa;}.cls-2{fill:#0266cf;}.cls-3{fill:#fff;}.cls-4{fill:#004685;}.cls-5{fill:#69f;}.cls-6{fill:#004884;}.cls-7{fill:#ffab00;}</style></defs><polygon class="cls-1" points="6.3 18.04 6.4 37.49 21.77 19.79 6.3 18.04"/><circle class="cls-2" cx="31.76" cy="43.36" r="14.56"/><circle class="cls-3" cx="31.76" cy="41.17" r="2.11"/><path class="cls-4" d="M31.76,43.68a2.51,2.51,0,1,1,2.51-2.51A2.52,2.52,0,0,1,31.76,43.68Zm0-4.22a1.71,1.71,0,1,0,1.71,1.71A1.71,1.71,0,0,0,31.76,39.46Z"/><path class="cls-4" d="M31.76,58.32a17.15,17.15,0,1,1,17-19.15.4.4,0,1,1-.79.09,16.41,16.41,0,1,0-.09,4.43.4.4,0,0,1,.8.12A17.16,17.16,0,0,1,31.76,58.32Z"/><path class="cls-4" d="M31.05,39.56a.41.41,0,0,1-.38-.26l-8.1-22.83H17.64a.4.4,0,0,1,0-.8h5.21a.4.4,0,0,1,.38.26L31.43,39a.41.41,0,0,1-.24.51A.34.34,0,0,1,31.05,39.56Z"/><path class="cls-4" d="M6.4,37.89a.41.41,0,0,1-.26-.09.4.4,0,0,1,0-.57L23.17,17.56a.41.41,0,0,1,.57,0,.4.4,0,0,1,0,.57L6.71,37.76A.42.42,0,0,1,6.4,37.89Z"/><path class="cls-4" d="M30.32,19.06a.4.4,0,1,1,0-.8,3,3,0,0,0,3-3V13.92a3,3,0,0,0-3-3H21.46l1.77,5a.4.4,0,0,1-.24.52.42.42,0,0,1-.52-.25l-2-5.52a.39.39,0,0,1,.06-.36.37.37,0,0,1,.32-.17h9.43a3.77,3.77,0,0,1,3.77,3.77v1.37A3.77,3.77,0,0,1,30.32,19.06Z"/><path class="cls-5" d="M30.32,19.21a.54.54,0,0,1-.55-.55.55.55,0,0,1,.55-.55,2.81,2.81,0,0,0,2.81-2.82V13.92a2.81,2.81,0,0,0-2.81-2.82.55.55,0,0,1,0-1.1,3.92,3.92,0,0,1,3.91,3.92v1.37A3.92,3.92,0,0,1,30.32,19.21Z"/><path class="cls-4" d="M14.94,16.47H6.4a.4.4,0,0,1,0-.8h8.54a.4.4,0,1,1,0,.8Z"/><path class="cls-1" d="M64.16,58.94a6.28,6.28,0,0,1,3.43-.58c.81.08,2.62.56,2.66,1.56s-2.1.86-4.37.75a22.16,22.16,0,0,0-8.75.81"/><path class="cls-1" d="M33.3,53.24A25.86,25.86,0,0,0,22,52.43c-2.24.37-3.84,1.83-5.42,4.29a8.72,8.72,0,0,0-1.21,5.42,9.78,9.78,0,0,0,1.46,4.19,9.14,9.14,0,0,0,3.89,3.6c2.78,1.24,5.53.31,8.38-.65s7.68-3.83,10.31-5.59c3.09-2.06,9.31-6.13,12.53-8.48,4-2.9,8.46-6.3,10-7.06a44.9,44.9,0,0,1,4.79-2.36"/><path class="cls-6" d="M32.29,53.23a20.4,20.4,0,0,0-6.38-1,18.29,18.29,0,0,0-3.22.31l-.79.18c-.26.05-.52.14-.78.21-.51.14-1,.32-1.55.49a11.82,11.82,0,0,0-2.86,1.38,8.91,8.91,0,0,0-1.2,1,8.74,8.74,0,0,0-1,1.22,9.2,9.2,0,0,0-1.19,6,10.09,10.09,0,0,0,.92,3,11.82,11.82,0,0,0,.79,1.37,10.73,10.73,0,0,0,1,1.26,8.53,8.53,0,0,0,2.44,1.92,7.59,7.59,0,0,0,1.44.54,7.83,7.83,0,0,0,1.53.21A10.21,10.21,0,0,0,23,71.29,14.09,14.09,0,0,0,24.57,71c1-.27,2.08-.63,3.12-1a26.68,26.68,0,0,0,3-1.31c1-.5,1.93-1,2.89-1.57q2.85-1.65,5.59-3.49l5.5-3.69c1.83-1.23,3.66-2.47,5.47-3.73s3.56-2.58,5.34-3.9,3.55-2.63,5.37-3.91c.45-.32.91-.63,1.38-.94l.72-.45a7,7,0,0,1,.76-.4,25.85,25.85,0,0,1,3.11-1.31c.53-.18,1.07-.34,1.63-.47s1.11-.21,1.66-.3a10.79,10.79,0,0,1,1.72-.15,6,6,0,0,1,1.74.26,7.69,7.69,0,0,1,1.61.63,7,7,0,0,1,1.44,1,5.08,5.08,0,0,1,1.11,1.33,3.07,3.07,0,0,1,.46,1.63,3.88,3.88,0,0,0-.78-1.41,6.16,6.16,0,0,0-1.18-1,9.3,9.3,0,0,0-2.88-1.28,5.72,5.72,0,0,0-1.53-.22,9.47,9.47,0,0,0-1.57.15c-.54.09-1.09.18-1.6.3s-1,.28-1.55.45a23.73,23.73,0,0,0-3,1.27,6.64,6.64,0,0,0-.7.38c-.23.14-.46.28-.68.43-.46.3-.91.61-1.36.93-1.79,1.27-3.56,2.6-5.32,3.92S52.47,55.71,50.66,57,47,59.51,45.2,60.76l-5.5,3.71C37.87,65.72,36,66.9,34.06,68c-1,.56-1.94,1.09-2.94,1.6A28.61,28.61,0,0,1,28,71c-1.05.37-2.1.73-3.2,1a13.51,13.51,0,0,1-1.68.34,11.21,11.21,0,0,1-1.74.1,8.13,8.13,0,0,1-3.4-.87,9.46,9.46,0,0,1-2.74-2.16,12.48,12.48,0,0,1-1.9-2.87,11.18,11.18,0,0,1-1-3.3,10.85,10.85,0,0,1,.1-3.46,9.53,9.53,0,0,1,1.27-3.24,10.31,10.31,0,0,1,1.1-1.37A9.59,9.59,0,0,1,16.17,54a13.32,13.32,0,0,1,3.1-1.47c.54-.18,1.06-.35,1.6-.5l.82-.21.84-.18a19,19,0,0,1,3.37-.3,21.36,21.36,0,0,1,6.64,1.11.4.4,0,0,1,.25.51.39.39,0,0,1-.49.25Z"/><path class="cls-3" d="M33.11,63.86l-.82-13a8.31,8.31,0,0,1,5.06-8.17A16,16,0,0,1,42.5,41a38.89,38.89,0,0,1,7.15-.67,8.33,8.33,0,0,1,8.24,5.87l.25.84"/><path class="cls-6" d="M33.1,64.26a.39.39,0,0,1-.39-.37l-.82-13a8.71,8.71,0,0,1,5.28-8.55,16.57,16.57,0,0,1,5.25-1.72,39.88,39.88,0,0,1,7.24-.68,8.73,8.73,0,0,1,8.61,6.15l.25.84a.41.41,0,0,1-.27.5.4.4,0,0,1-.49-.27l-.26-.84a7.92,7.92,0,0,0-7.84-5.58,38.15,38.15,0,0,0-7.09.66,16,16,0,0,0-5,1.63l-.06,0a7.9,7.9,0,0,0-4.82,7.78l.81,13a.39.39,0,0,1-.37.42Z"/><path class="cls-7" d="M35.18,63.09l-.83-11.24a8.31,8.31,0,0,1,5.06-8.17A16.09,16.09,0,0,1,44.56,42a38.36,38.36,0,0,1,7.15-.66c2.76.06,4.95,1,6,4.58l.26.84"/><path class="cls-6" d="M33.28,69.69A47.1,47.1,0,0,0,45,64.17c1.8-1.2,3.49-2.55,5.24-3.87l1.32-1,1.3-1c.87-.66,1.74-1.32,2.62-2s1.79-1.27,2.71-1.87S60,53.35,61,52.8s1.9-1.08,2.86-1.61a22,22,0,0,1,3.05-1.36,15.1,15.1,0,0,1,1.63-.45l.82-.15.82-.14a10.28,10.28,0,0,1,3.41,0,7.79,7.79,0,0,1,.83.22,8.46,8.46,0,0,1,.8.28,3.9,3.9,0,0,1,1.5,1,2.53,2.53,0,0,1,.63,1.7,3.06,3.06,0,0,1-.5,1.61,3.79,3.79,0,0,0,0-1.57,2.11,2.11,0,0,0-.69-1.22,3.66,3.66,0,0,0-1.28-.69l-.75-.23L73.4,50a9.15,9.15,0,0,0-3.09,0l-.79.14-.79.16a11.74,11.74,0,0,0-1.51.43,23.46,23.46,0,0,0-2.9,1.31c-1,.51-1.91,1-2.84,1.58-1.87,1.09-3.7,2.25-5.47,3.49-.89.61-1.77,1.25-2.65,1.9L52,60c-.46.32-.9.62-1.34.94-1.75,1.27-3.49,2.61-5.33,3.8A36.11,36.11,0,0,1,33.28,69.69Z"/><path class="cls-6" d="M43.41,67.29l4.2-2.44c1.38-.83,2.76-1.66,4.12-2.51s2.71-1.75,4.06-2.65S58.55,58,60,57.17s2.87-1.52,4.34-2.23c.74-.34,1.48-.69,2.28-1a11.88,11.88,0,0,1,2.45-.56,12.38,12.38,0,0,1,2.51-.09,4.85,4.85,0,0,1,2.49.8,2.43,2.43,0,0,1,.49.52,1.87,1.87,0,0,1,.17.31,1.73,1.73,0,0,1,.11.37,2.44,2.44,0,0,1-.23,1.33,6.61,6.61,0,0,1-1.46,2,9.58,9.58,0,0,0,1-2.15,2,2,0,0,0,.06-1.05.66.66,0,0,0-.08-.21A.9.9,0,0,0,74,55a1.31,1.31,0,0,0-.37-.33,4.38,4.38,0,0,0-2.11-.56,12.17,12.17,0,0,0-2.33.15,11.28,11.28,0,0,0-2.25.59c-.73.27-1.45.62-2.17,1s-1.43.73-2.14,1.11l-2.14,1.13c-1.41.77-2.77,1.6-4.14,2.46s-2.72,1.75-4.12,2.58-2.84,1.59-4.31,2.28A46.46,46.46,0,0,1,43.41,67.29Z"/><path class="cls-6" d="M64.41,57.81A6.53,6.53,0,0,1,67,56.66a5.54,5.54,0,0,1,1.47-.09,4.1,4.1,0,0,1,1.44.38,2.63,2.63,0,0,1,.67.45,1.66,1.66,0,0,1,.44.75,2.3,2.3,0,0,1,0,.45A2.17,2.17,0,0,1,71,59a1.75,1.75,0,0,1-.44.73,3.61,3.61,0,0,1-1.32.81,7.32,7.32,0,0,1-1.42.34A11.69,11.69,0,0,1,66.4,61l-.72,0L65,61c-.92,0-1.84,0-2.76,0l-1.38.06c-.45,0-.91.06-1.36.11-.91.09-1.81.24-2.75.36a9.63,9.63,0,0,1,2.65-1,11,11,0,0,1,1.4-.22c.48,0,.94-.06,1.4-.08.94,0,1.87-.07,2.81-.06h.69c.22,0,.45,0,.68,0a11.91,11.91,0,0,0,1.34-.11,7.7,7.7,0,0,0,1.28-.3,2.63,2.63,0,0,0,1.05-.6,1,1,0,0,0,.28-.44.66.66,0,0,0,.05-.25.63.63,0,0,0,0-.24,1.22,1.22,0,0,0-.71-.78,3.85,3.85,0,0,0-1.22-.37,4.8,4.8,0,0,0-1.31,0,6.36,6.36,0,0,0-2.5.92.19.19,0,0,1-.25-.06A.18.18,0,0,1,64.41,57.81Z"/><path class="cls-6" d="M78,44.9a10.81,10.81,0,0,0-3.81-2.13,10.94,10.94,0,0,0-4.29-.43,14.2,14.2,0,0,0-2.13.38c-.71.18-1.4.39-2.09.64a22.28,22.28,0,0,0-3.93,1.91c-1.25.75-2.46,1.6-3.68,2.44s-2.44,1.68-3.67,2.52c-2.45,1.67-4.9,3.33-7.38,5l-3.71,2.45c-1.23.82-2.47,1.63-3.68,2.48-2.42,1.69-4.8,3.45-7.24,5.15-1.23.85-2.44,1.7-3.76,2.45a20.86,20.86,0,0,1-4.17,1.76,18.64,18.64,0,0,1-4.46.87,9.47,9.47,0,0,1-2.31-.13,6.68,6.68,0,0,1-1.14-.32,5.51,5.51,0,0,1-1.06-.59.4.4,0,0,1-.09-.56.41.41,0,0,1,.55-.09h0a4.13,4.13,0,0,0,.88.47,5.7,5.7,0,0,0,1,.28,9.34,9.34,0,0,0,2.12.09,17.4,17.4,0,0,0,4.25-.84,20.47,20.47,0,0,0,4-1.7c1.25-.72,2.47-1.57,3.68-2.41,2.43-1.69,4.81-3.45,7.25-5.16,1.22-.85,2.46-1.67,3.69-2.49l3.71-2.45Q50.28,52,54,49.53L57.64,47c1.22-.83,2.45-1.67,3.75-2.43a22.4,22.4,0,0,1,4.08-1.93c.71-.24,1.43-.46,2.16-.63a13.16,13.16,0,0,1,2.25-.35,10.65,10.65,0,0,1,4.48.66A9.87,9.87,0,0,1,78,44.9Z"/><path class="cls-6" d="M19,70.23a.44.44,0,0,1-.31-.15c-.15-.19-3.59-4.57-2.47-8s3.43-5.18,8.37-6.67a10.42,10.42,0,0,1,8.1.48.4.4,0,0,1-.41.68,9.84,9.84,0,0,0-7.46-.4C20.12,57.59,18,59.26,17,62.33s2.3,7.21,2.33,7.25a.4.4,0,0,1-.06.56A.38.38,0,0,1,19,70.23Z"/><path class="cls-6" d="M23.17,69.54a.35.35,0,0,1-.17,0,5.14,5.14,0,0,1-2.73-4.31c-.29-3.74,3-5.55,6-6.71s6.56.67,6.72.74a.4.4,0,0,1-.37.71s-3.43-1.75-6.06-.71c-2.84,1.12-5.71,2.71-5.46,5.91a4.41,4.41,0,0,0,2.27,3.65.39.39,0,0,1,.2.52A.4.4,0,0,1,23.17,69.54Z"/><path class="cls-6" d="M27,68.48a.36.36,0,0,1-.2-.06c-1.64-1-2.42-2.08-2.32-3.26.14-1.61,1.91-2.83,3.37-3.39A11.56,11.56,0,0,1,33,61.59a.4.4,0,0,1-.15.79,10.78,10.78,0,0,0-4.7.14c-1.31.49-2.76,1.55-2.87,2.71-.07.85.58,1.69,1.94,2.51a.4.4,0,0,1,.13.55A.39.39,0,0,1,27,68.48Z"/><path class="cls-6" d="M38,49.2a40.45,40.45,0,0,1-5.54-.34.38.38,0,0,1-.33-.45.39.39,0,0,1,.45-.33c.15,0,15.1,2.15,23.21-4.93a.4.4,0,0,1,.53.59c-4.4,3.84-10.66,5-15.14,5.35C40.1,49.17,39,49.2,38,49.2Z"/><path class="cls-6" d="M32.71,52.23a44.47,44.47,0,0,0,6.63.28,41.66,41.66,0,0,0,6.59-.73c1.08-.22,2.15-.49,3.2-.81a27.87,27.87,0,0,0,3.08-1.17,22.28,22.28,0,0,0,2.88-1.57,19.46,19.46,0,0,0,2.58-2h0a.4.4,0,0,1,.56,0,.41.41,0,0,1,0,.57h0a20.8,20.8,0,0,1-2.71,2.06,24.53,24.53,0,0,1-3,1.6,30.23,30.23,0,0,1-3.18,1.16c-1.08.31-2.18.57-3.28.78a42,42,0,0,1-6.7.67,44.33,44.33,0,0,1-6.71-.37.24.24,0,0,1-.2-.27.22.22,0,0,1,.26-.2Z"/><path class="cls-6" d="M32.51,56.06c1.15,0,2.31,0,3.46,0s2.3-.11,3.45-.22,2.29-.23,3.42-.4,2.27-.38,3.39-.62h0a.4.4,0,1,1,.16.78h0c-1.15.2-2.3.39-3.46.52s-2.31.23-3.47.29-2.32.1-3.49.1-2.31,0-3.48-.09a.17.17,0,1,1,0-.34Z"/><path class="cls-6" d="M33,60c1,0,2,0,2.92,0s1.95-.09,2.92-.16a.39.39,0,0,1,.43.36.4.4,0,0,1-.36.43h0c-1,0-2,0-3,0s-2,0-3-.11a.27.27,0,0,1-.24-.29A.26.26,0,0,1,33,60Z"/><path class="cls-6" d="M33.1,64.26a.39.39,0,0,1-.39-.37l-.82-13a8.71,8.71,0,0,1,5.28-8.55,16.57,16.57,0,0,1,5.25-1.72,39.88,39.88,0,0,1,7.24-.68,8.73,8.73,0,0,1,8.61,6.15l.25.84a.41.41,0,0,1-.27.5.4.4,0,0,1-.49-.27l-.26-.84a7.92,7.92,0,0,0-7.84-5.58,38.15,38.15,0,0,0-7.09.66,16,16,0,0,0-5,1.63l-.06,0a7.9,7.9,0,0,0-4.82,7.78l.81,13a.39.39,0,0,1-.37.42Z"/></svg>