<?xml version="1.0" encoding="utf-8"?>
<!-- Generator: Adobe Illustrator 26.1.0, SVG Export Plug-In . SVG Version: 6.00 Build 0)  -->
<svg version="1.1" id="Capa_1" xmlns="http://www.w3.org/2000/svg" xmlns:xlink="http://www.w3.org/1999/xlink" x="0px" y="0px"
	 viewBox="0 0 253 345" style="enable-background:new 0 0 253 345;" xml:space="preserve">
<style type="text/css">
	.st0{fill:#0154A4;}
</style>
<path class="st0" d="M61.72,98.73l126.46-61.23c3.56-1.72,7.58,1.3,6.91,5.2l-1.53,8.85L63.22,102.17c-0.51,0.2-1.09,0.16-1.58-0.1
	C60.3,101.34,60.34,99.39,61.72,98.73 M235.36,276.03c0.06,2.25-1.43,4.24-3.6,4.82c-3,0.81-7.71,2.07-13.65,3.67l8.23,10.36
	c4.96,6.25,3.67,15.37-2.82,20.01l-22.38,15.96c-2.47,1.76-5.29,2.59-8.07,2.59c-4.98,0-9.84-2.66-12.35-7.46l-14.45-27.51
	c-41.62,11.2-88.21,23.77-96.98,26.24c-16.47,4.64-36.54-6.55-38.56-15.48c-3.41-11.19-11.19-176.95-10.7-191.7
	c0.48-14.75,7.11-19.49,33.48-39.54c36.54-27.78,62.14-48.2,74.02-57.79c3.1-2.51,7.74-0.41,7.9,3.58l0.28,6.6
	c0.07,1.69-0.74,3.3-2.15,4.24c-12.93,8.64-77.19,51.72-85.62,60.32c-9.38,9.58,2.32,17.88,12.2,15.94
	c6.43-1.26,134.19-36.47,163.55-44.57c3.04-0.84,6.06,1.4,6.15,4.55L235.36,276.03z M180.67,255.07l-7.13-8.98l9.27-6.76l16.5-12.02
	c1.04-0.76,1.23-1.77,1.2-2.48c-0.03-0.71-0.3-1.7-1.4-2.37l-76.67-46.68c-0.5-0.3-0.99-0.45-1.49-0.45c-0.8,0-1.65,0.39-2.23,1.01
	c-0.55,0.59-0.78,1.3-0.71,2.16l7.44,97.17c0.15,1.98,1.9,2.72,2.96,2.72c0.59,0,1.14-0.19,1.67-0.58l17-12.4l10.31-7.52l5.93,11.3
	l27.15,51.7c0.76,1.45,2.19,1.57,2.61,1.57c0.61,0,1.17-0.18,1.68-0.55l22.38-15.96c0.84-0.6,1.12-1.4,1.2-1.97
	c0.08-0.57,0.04-1.41-0.6-2.22L180.67,255.07z"/>
</svg>
