<svg id="Capa_1" data-name="Capa 1" xmlns="http://www.w3.org/2000/svg" viewBox="0 0 80 80"><defs><style>.cls-1{fill:#d5e9fa;}.cls-2{fill:#69f;}.cls-3{fill:#004884;}.cls-4{fill:#ffab00;}.cls-5{fill:#0266cf;}</style></defs><path class="cls-1" d="M65,57.35a1,1,0,0,1-1,1H18.08a1,1,0,0,1-1-1V31.84a1,1,0,0,1,1-1H64a1,1,0,0,1,1,1Z"/><rect class="cls-2" x="17.06" y="65.03" width="13.26" height="3.53"/><rect class="cls-2" x="50.71" y="65.03" width="13.26" height="3.53"/><path class="cls-2" d="M57.72,23.57H23.3v-8a3.16,3.16,0,0,1,3.34-2.94H54.38a3.16,3.16,0,0,1,3.34,2.94ZM24.07,22.8H57V15.54a2.39,2.39,0,0,0-2.57-2.17H26.64a2.39,2.39,0,0,0-2.57,2.17Z"/><path class="cls-3" d="M66.84,65.34l-53.53.07A4.28,4.28,0,0,1,9,61.16L9,27.1a4.28,4.28,0,0,1,4.26-4.27l53.43-.06A4.25,4.25,0,0,1,71,27l0,34A4.2,4.2,0,0,1,69.84,64,4.1,4.1,0,0,1,66.84,65.34ZM13.26,23.6a3.49,3.49,0,0,0-3.49,3.49l0,34.06a3.49,3.49,0,0,0,3.5,3.49l53.53-.06a3.39,3.39,0,0,0,2.45-1.06A3.44,3.44,0,0,0,70.23,61l0-34a3.5,3.5,0,0,0-3.5-3.49Z"/><rect class="cls-4" x="30.31" y="10.44" width="20.4" height="6.12"/><rect class="cls-5" x="38.73" y="35.93" width="4.08" height="17.34"/><rect class="cls-5" x="32.1" y="42.05" width="17.34" height="4.08"/><path class="cls-5" d="M15.75,59.67a1.65,1.65,0,0,1-1.63-1.61V29.51a1.64,1.64,0,0,1,1.63-1.61h50a1.65,1.65,0,0,1,1.63,1.61.39.39,0,0,1-.39.38.38.38,0,0,1-.38-.38.86.86,0,0,0-.86-.84h-50a.86.86,0,0,0-.86.84V58.06a.87.87,0,0,0,.86.84.39.39,0,0,1,.39.38A.4.4,0,0,1,15.75,59.67Z"/></svg>