<svg id="Capa_1" data-name="Capa 1" xmlns="http://www.w3.org/2000/svg" viewBox="0 0 80 80"><defs><style>.cls-1{fill:none;}.cls-2{fill:#d5e9fa;}.cls-3{fill:#004884;}.cls-4{fill:#fff;}.cls-5{fill:#69f;}.cls-6{fill:#ffab00;}</style></defs><rect class="cls-1" x="2.5" y="-2" width="75" height="84"/><path class="cls-2" d="M65.82,61H23.2a3.72,3.72,0,0,1-3.7-3.7V30.7A3.72,3.72,0,0,1,23.2,27H65.8a3.7,3.7,0,0,1,3.7,3.7V57.34A3.66,3.66,0,0,1,65.82,61Z"/><path class="cls-3" d="M46.5,45.58a70.63,70.63,0,0,1-24.65-4.53,5,5,0,0,1-3.23-4.65V29.8a3.68,3.68,0,0,1,3.68-3.68H67.7a3.68,3.68,0,0,1,3.68,3.68V37a4.92,4.92,0,0,1-3.14,4.65A60.66,60.66,0,0,1,46.5,45.58ZM22.3,26.88a2.92,2.92,0,0,0-2.92,2.92v6.6a4.23,4.23,0,0,0,2.74,4C29.24,43.07,48,48.59,68,41a4.23,4.23,0,0,0,2.64-4V29.8a2.92,2.92,0,0,0-2.92-2.92Z"/><path class="cls-3" d="M67.1,62.88H22.8a4.19,4.19,0,0,1-4.18-4.18V30.3a4.19,4.19,0,0,1,4.18-4.18H67.2a4.19,4.19,0,0,1,4.18,4.18V58.6A4.28,4.28,0,0,1,67.1,62.88Zm-44.3-36a3.42,3.42,0,0,0-3.42,3.42V58.7a3.42,3.42,0,0,0,3.42,3.42H67.1a3.53,3.53,0,0,0,3.52-3.52V30.3a3.42,3.42,0,0,0-3.42-3.42Z"/><path class="cls-4" d="M29.8,63H11.2a1.7,1.7,0,0,1-1.7-1.7V35.7A1.71,1.71,0,0,1,11.2,34H29.8a1.71,1.71,0,0,1,1.7,1.7V61.3A1.7,1.7,0,0,1,29.8,63Z"/><path class="cls-5" d="M60.35,28.85H30.65v-7.1a2.75,2.75,0,0,1,2.87-2.6h24a2.75,2.75,0,0,1,2.87,2.6Zm-29-.7h28.3v-6.4a2,2,0,0,0-2.17-1.9h-24a2,2,0,0,0-2.17,1.9Z"/><rect class="cls-6" x="36.5" y="17" width="17" height="5"/><path class="cls-6" d="M49,49H41.1a1.6,1.6,0,0,1-1.6-1.6V42.6A1.6,1.6,0,0,1,41.1,41h7.8a1.6,1.6,0,0,1,1.6,1.6v4.78A1.7,1.7,0,0,1,49,49Z"/><rect class="cls-4" x="24.5" y="42.5" width="7" height="24"/><path class="cls-5" d="M28.3,64.5H9.7A1.7,1.7,0,0,1,8,62.8V37.2a1.71,1.71,0,0,1,1.7-1.7H28.3A1.71,1.71,0,0,1,30,37.2V62.8A1.7,1.7,0,0,1,28.3,64.5Z"/><path class="cls-3" d="M28.3,64.85H9.7a2.05,2.05,0,0,1-2-2V37.2a2.05,2.05,0,0,1,2-2.05H28.3a2.05,2.05,0,0,1,2.05,2.05V62.8A2.05,2.05,0,0,1,28.3,64.85Zm-18.6-29A1.36,1.36,0,0,0,8.35,37.2V62.8A1.36,1.36,0,0,0,9.7,64.15H28.3a1.36,1.36,0,0,0,1.35-1.35V37.2a1.36,1.36,0,0,0-1.35-1.35Z"/><path class="cls-4" d="M27,53.88H11a.38.38,0,0,1,0-.76H27a.38.38,0,1,1,0,.76Z"/><path class="cls-4" d="M27,57.88H11a.38.38,0,1,1,0-.76H27a.38.38,0,1,1,0,.76Z"/><circle class="cls-4" cx="19.17" cy="43.13" r="2.04"/><path class="cls-4" d="M23,47.58h0a1.49,1.49,0,0,0-1.46-1.46H17a1.49,1.49,0,0,0-1.47,1.46h0a2.14,2.14,0,0,0,2.14,2.14h3.38A2.1,2.1,0,0,0,23,47.58Z"/></svg>