<svg id="Capa_1" data-name="Capa 1" xmlns="http://www.w3.org/2000/svg" viewBox="0 0 80 80"><defs><style>.cls-1{fill:#d5e9fa;}.cls-2{fill:#fff;}.cls-3{fill:#0266cf;}.cls-4{fill:#ffab00;}.cls-5{fill:#004884;}</style></defs><circle class="cls-1" cx="37.28" cy="44.11" r="23.43"/><path class="cls-2" d="M60.39,47.59a.25.25,0,0,1-.27.21c-5.07-.52-8.59-.23-9.4.76a1,1,0,0,0-.18,1,5.39,5.39,0,0,1-2.09,5.88c-1.45,1.09-1.51,2.79-1.56,4s-.08,1.72-.66,1.78l-.23,0a1.22,1.22,0,0,1-.88-.38c-1-1-.92-4-.63-5.56.57-3.21.49-5.08-.26-6.07a2.08,2.08,0,0,0-1.4-.84,3.33,3.33,0,0,1-2.13-2.21c-.35-1-.41-2.7,1.38-4.53,2-2,5.45-4.15,9.12-6.32a.26.26,0,0,1,.31,0c.63.69,1.25,1.35,1.85,2a.24.24,0,0,1,0,.34l-1.68,1.71a2.91,2.91,0,0,0-.75,1.36,2.85,2.85,0,0,0,0,1.56l1.22,4a.51.51,0,0,0,.35.35.55.55,0,0,0,.48-.11l4.81-4.19a.24.24,0,0,1,.32,0,3.2,3.2,0,0,0,2,.73h.25a.21.21,0,0,1,.18.06.25.25,0,0,1,.08.18A23.58,23.58,0,0,1,60.39,47.59Z"/><path class="cls-3" d="M60.92,47.81a.24.24,0,0,1-.27.2c-5.07-.5-8.59-.22-9.4.76a1,1,0,0,0-.18.94A5.17,5.17,0,0,1,51,52.94a5.25,5.25,0,0,1-2,2.55c-1.45,1.08-1.51,2.75-1.55,4s-.09,1.69-.67,1.74a.9.9,0,0,1-.23,0,1.19,1.19,0,0,1-.87-.37c-1-1-.93-3.89-.64-5.47.57-3.16.6-6-.14-6.93a2.08,2.08,0,0,0-1.4-.82,3.27,3.27,0,0,1-2.13-2.18c-.36-1,.44-2.58,1.26-3.5,1.88-2.11,5.45-4.09,9.12-6.23a.25.25,0,0,1,.31.05c.63.67,1.25,1.33,1.85,1.95a.24.24,0,0,1,0,.34l-1.67,1.68a2.86,2.86,0,0,0-.76,1.34,2.94,2.94,0,0,0,0,1.53l1.22,3.91a.48.48,0,0,0,.35.34.52.52,0,0,0,.48-.1l4.81-4.12a.26.26,0,0,1,.32,0,3.2,3.2,0,0,0,2,.73H61a.23.23,0,0,1,.18.06.25.25,0,0,1,.08.18A22.88,22.88,0,0,1,60.92,47.81Z"/><path class="cls-2" d="M33.9,68a.26.26,0,0,1-.24.17h0a24.59,24.59,0,0,1-16-8.21.26.26,0,0,1-.06-.19.23.23,0,0,1,.1-.17C20,57.91,22,55.17,24.31,52l.14-.18c1.86-2.5,4-3.48,5.64-2.63a3.83,3.83,0,0,1,1.6,1.93,3.76,3.76,0,0,1,0,2.5c-1.37,4.17-.51,6.68,1.68,10.12h0A5.22,5.22,0,0,1,33.9,68Z"/><path class="cls-3" d="M34.36,68.64a.25.25,0,0,1-.24.18h0a24.59,24.59,0,0,1-16-8.21.26.26,0,0,1-.07-.19.32.32,0,0,1,.1-.18c2.24-1.67,4.26-4.41,6.6-7.59l.14-.18c1.87-2.5,4-3.48,5.64-2.64a3.76,3.76,0,0,1,1.6,1.94,3.83,3.83,0,0,1,0,2.5c-1.37,4.16-.51,6.68,1.68,10.12h0A5.2,5.2,0,0,1,34.36,68.64Z"/><path class="cls-2" d="M42.87,25.77a.31.31,0,0,1,.2-.09.25.25,0,0,1,.18.1c.93,1.19,2.13,2.64,3.7,4.45a.25.25,0,0,1,0,.34l-8.63,7.79a.23.23,0,0,1-.16.06h0a.25.25,0,0,1-.17-.11l-2-3.11a1.57,1.57,0,0,1,.15-1.87Z"/><path class="cls-2" d="M42.61,26.67a.3.3,0,0,1,.19-.08.26.26,0,0,1,.19.1c.92,1.18,2.13,2.64,3.69,4.44a.25.25,0,0,1,0,.35L38,39.26a.24.24,0,0,1-.16.07h0a.25.25,0,0,1-.17-.11l-2-3.1a1.58,1.58,0,0,1,.15-1.87Z"/><path class="cls-2" d="M34.83,28a.72.72,0,0,1-.12-.59.74.74,0,0,1,.36-.5l2.61-1.67a.81.81,0,0,1,.59-.11.76.76,0,0,1,.48.36l1.07,1.67a.25.25,0,0,1,0,.3l-2.88,3.23a.27.27,0,0,1-.19.08h0a.25.25,0,0,1-.18-.12Z"/><path class="cls-2" d="M54.05,38.44a.23.23,0,0,1,.17-.08h0a.23.23,0,0,1,.17.08c.85.9,1.74,1.83,2.69,2.81a.26.26,0,0,1,.07.19.28.28,0,0,1-.09.17L53.24,45a.27.27,0,0,1-.17.06H53a.23.23,0,0,1-.16-.17L52,42a1.87,1.87,0,0,1,.46-1.88Z"/><path class="cls-4" d="M54.38,19.09l9.7-3a1.56,1.56,0,0,1,1.76.61l2,3.1a.26.26,0,0,1,0,.21.28.28,0,0,1-.14.16L57.05,24.78l-.09,0a.24.24,0,0,1-.23-.14c-.93-2.06-1.77-3.82-2.5-5.22a.3.3,0,0,1,0-.21A.25.25,0,0,1,54.38,19.09Z"/><path class="cls-4" d="M42.87,26.67a.36.36,0,0,1,.2-.08.26.26,0,0,1,.19.1c.92,1.18,2.12,2.64,3.69,4.44a.25.25,0,0,1,0,.35l-8.64,7.78a.24.24,0,0,1-.16.07h0a.25.25,0,0,1-.17-.11l-2-3.1a1.58,1.58,0,0,1,.15-1.87Z"/><path class="cls-4" d="M60.83,42.07a.1.1,0,0,1,0,0,2.18,2.18,0,0,1-1.16.34h-.24a2.23,2.23,0,0,1-1.3-.64c-1.32-1.46-2.86-3.06-4.48-4.76-6-6.24-12.8-13.32-13.07-17.65-.15-2.36.35-5.16,1.79-6.08,2-1.29,6.46.63,8.1,2.16,2.8,2.6,11.34,23.87,11.34,24.83A2.14,2.14,0,0,1,60.83,42.07Z"/><path class="cls-5" d="M69.35,35.29l-3.11-2.76a2.79,2.79,0,0,0-1.39-.7,2.88,2.88,0,0,0-1.54.11l-2.26.8a.25.25,0,0,1-.31-.14c-1.08-2.62-2.13-5.12-3.13-7.41a.21.21,0,0,1,0-.19.25.25,0,0,1,.13-.14L69.21,20a.52.52,0,0,0,.3-.33.56.56,0,0,0-.06-.44L67,15.33a2.73,2.73,0,0,0-1.29-1,2.59,2.59,0,0,0-1.65,0l-.79.24a.24.24,0,0,1-.28-.11l-1.93-3a1.81,1.81,0,0,0-1.14-.8,1.76,1.76,0,0,0-1.37.25L55.88,12.5a1.81,1.81,0,0,0-.79,1.15A1.84,1.84,0,0,0,55.34,15l.84,1.32a.24.24,0,0,1-.14.36l-2,.63a.26.26,0,0,1-.3-.13,12.56,12.56,0,0,0-2-2.94c-1.76-1.65-6.69-4-9.35-2.25-2.05,1.31-2.29,4.69-2.3,6.08a.27.27,0,0,1-.08.19.25.25,0,0,1-.2.06,25.69,25.69,0,0,0-23.49,9.21c-.37.45-.71.91-1,1.37l.91.53a21.41,21.41,0,0,1,1.47-1.86,24.37,24.37,0,0,1,22.3-8.18.25.25,0,0,1,.21.22,9.76,9.76,0,0,0,.36,1.85,13,13,0,0,0,1.8,3,.26.26,0,0,1,0,.33l-1.41,1.57a.26.26,0,0,1-.21.08.27.27,0,0,1-.18-.11l-.85-1.31a1.75,1.75,0,0,0-1.13-.8,1.78,1.78,0,0,0-1.37.24L34.49,26.2a1.85,1.85,0,0,0-.55,2.51l1.94,3a.26.26,0,0,1,0,.3l-.56.61a2.71,2.71,0,0,0-.62,1.51,2.61,2.61,0,0,0,.4,1.59l1.59,2.49a.26.26,0,0,1,0,.21.29.29,0,0,1-.12.16,4.6,4.6,0,0,1-5.46-.69,3.76,3.76,0,0,0-3.06-1.47c-1.63.16-2.73,1.88-3.8,3.54C22.32,43,22,43.19,19,43.24c-1.45,0-3.24.07-4.38,1.26-.85.89-1.25,2.31-1.2,4.33a3.75,3.75,0,0,1-.39,2,.26.26,0,0,1-.22.14h0a.26.26,0,0,1-.22-.18,24.34,24.34,0,0,1,1.33-17.56L13,32.7A25.3,25.3,0,0,0,12,52.27a25.62,25.62,0,0,0,49.79-9.45.28.28,0,0,1,.13-.23,3.19,3.19,0,0,0,1.3-1.53,3.11,3.11,0,0,0,.12-2,.25.25,0,0,1,.14-.29l5.8-2.61a.52.52,0,0,0,.12-.87ZM56.21,14.46a.79.79,0,0,1-.12-.6.81.81,0,0,1,.36-.49l2.62-1.65a.68.68,0,0,1,.57-.11.75.75,0,0,1,.5.35l1.69,2.65a.25.25,0,0,1,0,.22.28.28,0,0,1-.16.16l-4.13,1.27h-.08a.26.26,0,0,1-.21-.11Zm-1.75,3.91a.26.26,0,0,1,.15-.14l9.71-3a1.58,1.58,0,0,1,1.76.61l2,3.11a.24.24,0,0,1,0,.2.25.25,0,0,1-.14.16L57.29,23.92a.18.18,0,0,1-.1,0A.24.24,0,0,1,57,23.8C56,21.74,55.2,20,54.47,18.59A.24.24,0,0,1,54.46,18.37ZM34.83,28.15a.72.72,0,0,1-.12-.59.73.73,0,0,1,.36-.49l2.61-1.68a.79.79,0,0,1,.58-.11.76.76,0,0,1,.49.36l1.07,1.67a.26.26,0,0,1,0,.3l-2.88,3.23a.27.27,0,0,1-.19.08h0a.25.25,0,0,1-.18-.11Zm1.1,7.06a1.56,1.56,0,0,1,.15-1.87l6.8-7.57a.22.22,0,0,1,.19-.08.25.25,0,0,1,.19.09c.92,1.19,2.12,2.64,3.69,4.44a.25.25,0,0,1,0,.35l-8.64,7.78a.23.23,0,0,1-.17.07h0a.26.26,0,0,1-.17-.12ZM33.9,68a.25.25,0,0,1-.24.18h0a24.57,24.57,0,0,1-16-8.21.26.26,0,0,1-.07-.19.29.29,0,0,1,.1-.18C20,57.91,22,55.17,24.31,52l.14-.18c1.86-2.5,4-3.48,5.63-2.64a3.78,3.78,0,0,1,1.6,1.95,3.67,3.67,0,0,1,0,2.49c-1.37,4.17-.5,6.68,1.68,10.12h0A5.24,5.24,0,0,1,33.9,68Zm17.22-4.79a24.71,24.71,0,0,1-15,5.1H35.2a.26.26,0,0,1-.19-.1A.25.25,0,0,1,35,68a6.2,6.2,0,0,0-.71-4.79c-2-3.24-2.81-5.44-1.56-9.22a4.75,4.75,0,0,0-.05-3.22,4.83,4.83,0,0,0-2.08-2.46c-.8-.41-3.69-1.45-6.95,2.92l-.47.64c-1.79,2.4-4,5.4-6.13,7a.24.24,0,0,1-.34,0,24.13,24.13,0,0,1-3.53-6.3.25.25,0,0,1,.07-.28,4.07,4.07,0,0,0,1.24-3.39c-.05-1.73.24-2.85.89-3.55.84-.88,2.14-.92,3.65-1,3.43-.09,4-.44,6.11-3.71,1.19-1.84,2-2.95,3-3.06a2.87,2.87,0,0,1,2.22,1.16c2.59,2.64,5.87,1.29,6.8.81a.27.27,0,0,1,.34.11.52.52,0,0,0,.41.29.48.48,0,0,0,.4-.13l9.27-8.38a.22.22,0,0,1,.18-.06.23.23,0,0,1,.17.08c.81.93,1.66,1.87,2.51,2.8a.25.25,0,0,1,.07.21.28.28,0,0,1-.12.18c-3.42,2-6.94,4.15-9.06,6.32s-2,4.25-1.61,5.6a4.26,4.26,0,0,0,3,2.9,1,1,0,0,1,.7.44c.55.75.57,2.47.07,5.26-.49,3-.13,5.38,1,6.49a2.17,2.17,0,0,0,2,.64c1.33-.23,1.44-1.2,1.51-2.75C48,58.29,48,57,49.06,56.19a6.44,6.44,0,0,0,2.51-6.85.25.25,0,0,1,.12-.28c.82-.47,4.1-.7,8.19-.27a.25.25,0,0,1,.18.1.28.28,0,0,1,0,.2A24.76,24.76,0,0,1,51.12,63.19Zm9.27-15.6a.24.24,0,0,1-.27.2c-5.07-.51-8.59-.23-9.4.78a.94.94,0,0,0-.18,1,5.43,5.43,0,0,1-2.09,5.88c-1.45,1.1-1.51,2.78-1.55,4s-.09,1.71-.68,1.77l-.21,0a1.21,1.21,0,0,1-.89-.39c-1-1-.92-3.95-.63-5.55.57-3.21.49-5.08-.26-6.07a2,2,0,0,0-1.4-.83,3.34,3.34,0,0,1-2.13-2.23c-.35-1-.4-2.69,1.37-4.52,2-2,5.46-4.15,9.13-6.33a.27.27,0,0,1,.31.05c.63.69,1.24,1.35,1.85,2a.25.25,0,0,1,0,.35l-1.68,1.7a3,3,0,0,0-.75,1.36,2.91,2.91,0,0,0,0,1.55l1.22,4a.51.51,0,0,0,.35.35.55.55,0,0,0,.48-.11l4.81-4.19a.23.23,0,0,1,.31,0,3.26,3.26,0,0,0,2,.74h.25a.23.23,0,0,1,.18.06.25.25,0,0,1,.08.18A23.71,23.71,0,0,1,60.39,47.59Zm-6.34-9.15a.21.21,0,0,1,.17-.08.25.25,0,0,1,.18.08c.86.9,1.74,1.83,2.69,2.81a.32.32,0,0,1,.07.19.28.28,0,0,1-.09.17L53.23,45a.23.23,0,0,1-.16.06H53a.29.29,0,0,1-.17-.17L52,42a1.87,1.87,0,0,1,.46-1.88Zm7.35,3.21,0,0a2.14,2.14,0,0,1-1.16.33L60,42a2,2,0,0,1-1.29-.63c-1.33-1.46-2.87-3.06-4.5-4.76C48.17,30.37,41.37,23.28,41.1,19c-.15-2.37.35-5.17,1.8-6.09,2-1.29,6.46.63,8.1,2.16,2.79,2.61,11.33,23.87,11.33,24.83A2.14,2.14,0,0,1,61.4,41.65Zm6.32-6-4.64,2.09a.16.16,0,0,1-.1,0h-.09a.23.23,0,0,1-.14-.15c-.45-1.11-.92-2.32-1.44-3.62a.25.25,0,0,1,0-.19.24.24,0,0,1,.15-.13l2.21-.78a1.89,1.89,0,0,1,1.9.38l2.21,2a.23.23,0,0,1,.08.23A.25.25,0,0,1,67.72,35.69Z"/><path class="cls-3" d="M48.23,15.47a.49.49,0,0,0-.28-.19h-.07a7.13,7.13,0,0,0-.79,0A4.09,4.09,0,0,0,43,18.42a.5.5,0,0,0,0,.4.55.55,0,0,0,.3.26.51.51,0,0,0,.4,0,.5.5,0,0,0,.25-.3,3.14,3.14,0,0,1,3.79-2.43.5.5,0,0,0,.39-.11.52.52,0,0,0,.08-.73Z"/><path class="cls-5" d="M13.89,33.23a.52.52,0,0,0-.19-.71.51.51,0,0,0-.7.2"/><path class="cls-5" d="M15.24,28.92a.52.52,0,1,0,.9.52"/></svg>